{
.appVersion = "1349";
DisplayStrings = (
":"
);
classes = (
{
automatic = 1;
code = "A Aacute Abreve Acircumflex Adieresis Agrave Amacron Aogonek Aring Atilde AE B C Cacute Ccaron Ccedilla Ccircumflex Cdotaccent D Eth Dcaron Dcroat E Eacute Ebreve Ecaron Ecircumflex Edieresis Edotaccent Egrave Emacron Eogonek F G Gbreve Gcircumflex Gcommaaccent Gdotaccent H Hbar Hcircumflex I IJ Iacute Icircumflex Idieresis Idotaccent Igrave Imacron Iogonek Itilde J Jcircumflex K Kcommaaccent L Lacute Lcaron Lcommaaccent Ldot Lslash M N Nacute Ncaron Ncommaaccent Ntilde O Oacute Obreve Ocircumflex Odieresis Ograve Ohungarumlaut Omacron Oslash Otilde OE P Thorn Q R Racute Rcaron Rcommaaccent S Sacute Scaron Scedilla Scircumflex Scommaaccent T Tbar Tcaron Tcedilla Tcommaaccent U Uacute Ubreve Ucircumflex Udieresis Ugrave Uhungarumlaut Umacron Uogonek Uring Utilde V W Wacute Wcircumflex Wdieresis Wgrave X Y Yacute Ycircumflex Ydieresis Z Zacute Zcaron Zdotaccent G.ss03 Gbreve.ss03 Gcircumflex.ss03 Gcommaaccent.ss03 Gdotaccent.ss03 IJ.ss04 J.ss04 Jcircumflex.ss04 Delta Omega";
name = Uppercase;
}
);
copyright = "Copyright 2019 The Mohave Project Authors (https://github.com/tokotype/Mohave-Typefaces)";
customParameters = (
{
name = description;
value = "Designed by Gumpita Rahayu from Tokotype in 2013.";
},
{
name = license;
value = "This Font Software is licensed under the SIL Open Font License, Version 1.1. This license is available with a FAQ at: http://scripts.sil.org/OFL";
},
{
name = licenseURL;
value = "http://scripts.sil.org/OFL";
},
{
name = vendorID;
value = TOKO;
},
{
name = glyphOrder;
value = (
.notdef,
space
);
},
{
name = fsType;
value = (
);
},
{
name = trademark;
value = "Mohave is a trademark of Tokotype.";
},
{
name = Axes;
value = (
{
Name = Weight;
Tag = wght;
}
);
},
{
name = "Use Typo Metrics";
value = 1;
}
);
date = "2019-11-22 19:31:13 +0000";
designer = "Gumpita Rahayu";
designerURL = "https://www.tokotypefaces.com";
familyName = Mohave;
featurePrefixes = (
{

glyphs = (
{
glyphname = .notdef;
lastChange = "2019-11-13 16:16:32 +0000";
layers = (
{
layerId = "60B18B06-8123-4D0C-85E3-2DE7B5C03586";
paths = (
{
closed = 1;
nodes = (
"820 0 LINE",
"820 1500 LINE",
"140 1500 LINE",
"140 0 LINE"
);
},
{
closed = 1;
nodes = (
"310 1330 LINE",
"650 1330 LINE",
"650 170 LINE",
"310 170 LINE"
);
}
);
width = 960;
},
{
hints = (
{
horizontal = 1;
origin = "{0, 3}";
target = "{1, 3}";
type = Stem;
},
{
horizontal = 1;
origin = "{0, 2}";
target = "{1, 0}";
type = Stem;
}
);
layerId = "DDDB0B36-051A-43AE-9F30-611505482296";
paths = (
{
closed = 1;
nodes = (
"858 0 LINE",
"858 1500 LINE",
"178 1500 LINE",
"178 0 LINE"
);
},
{
closed = 1;
nodes = (
"288 1390 LINE",
"748 1390 LINE",
"748 110 LINE",
"288 110 LINE"
);
}
);
width = 1036;
}
);
note = .notdef;
},
{
glyphname = A;
lastChange = "2019-11-13 16:16:32 +0000";
layers = (
{
anchors = (
{
name = bottom;
position = "{458, 0}";
},
{
name = ogonek;
position = "{736, 0}";
},
{
name = top;
position = "{458, 1500}";
}
);
layerId = "60B18B06-8123-4D0C-85E3-2DE7B5C03586";
paths = (
{
closed = 1;
nodes = (
"306 0 LINE",
"342 234 LINE",
"574 234 LINE",
"608 0 LINE",
"884 0 LINE",
"606 1500 LINE",
"314 1500 LINE",
"30 0 LINE"
);
},
{
closed = 1;
nodes = (
"478 1136 LINE",
"442 1136 LINE",
"534 504 LINE",
"382 504 LINE"
);
}
);
width = 914;
},
{
anchors = (
{
name = bottom;
position = "{460, 0}";
},
{
name = ogonek;
position = "{776, 0}";
},
{
name = top;
position = "{460, 1500}";
}
);
hints = (
{
horizontal = 1;
origin = "{0, 7}";
target = up;
type = BottomGhost;
},
{
horizontal = 1;
origin = "{0, 1}";
target = "{1, 3}";
type = Stem;
},
{
horizontal = 1;
origin = "{0, 6}";
target = down;
type = TopGhost;
}
);
layerId = "DDDB0B36-051A-43AE-9F30-611505482296";
paths = (
{
closed = 1;
nodes = (
"176 0 LINE",
"250 322 LINE",
"670 322 LINE",
"744 0 LINE",
"858 0 LINE",
"518 1500 LINE",
"402 1500 LINE",
"62 0 LINE"
);
},
{
closed = 1;
nodes = (
"470 1334 LINE",
"450 1334 LINE",
"646 432 LINE",
"274 432 LINE"
);
}
);
width = 920;
},
{
associatedMasterId = "DDDB0B36-051A-43AE-9F30-611505482296";
layerId = "6669D1E1-3322-4A31-837A-101834F2C3CB";
name = "Apr 26 18, 09:50";
paths = (
{
closed = 1;
nodes = (
"200 0 LINE",
"542 1500 LINE",
"426 1500 LINE",
"86 0 LINE"
);
},
{
closed = 1;
nodes = (
"718 322 LINE",
"718 432 LINE",
"240 432 LINE",
"240 322 LINE"
);
},
{
closed = 1;
nodes = (
"542 1500 LINE",
"426 1500 LINE",
"768 0 LINE",
"882 0 LINE"
);
}
);
width = 1200;
}
);
leftKerningGroup = A;
note = A;
rightKerningGroup = A;
unicode = 0041;
},
{
glyphname = AE;
lastChange = "2019-11-13 16:16:32 +0000";
layers = (
{
hints = (
{
horizontal = 1;
origin = "{0, 15}";
target = "{0, 6}";
type = Stem;
},
{
horizontal = 1;
origin = "{0, 1}";
target = "{1, 3}";
type = Stem;
},
{
horizontal = 1;
origin = "{0, 7}";
target = "{0, 10}";
type = Stem;
},
{
horizontal = 1;
origin = "{0, 14}";
target = "{1, 0}";
type = Stem;
}
);
layerId = "DDDB0B36-051A-43AE-9F30-611505482296";
paths = (
{
closed = 1;
nodes = (
"176 0 LINE",
"250 322 LINE",
"598 322 LINE",
"598 0 LINE",
"1202 0 LINE",
"1202 110 LINE",
"708 110 LINE",
"708 680 LINE",
"1148 680 LINE",
"1148 790 LINE",
"708 790 LINE",
"708 1390 LINE",
"1202 1390 LINE",
"1202 1500 LINE",
"402 1500 LINE",
"62 0 LINE"
);
},
{
closed = 1;
nodes = (
"482 1390 LINE",
"598 1390 LINE",
"598 432 LINE",
"274 432 LINE"
);
}
);
width = 1284;
},
{
layerId = "60B18B06-8123-4D0C-85E3-2DE7B5C03586";
paths = (
{
closed = 1;
nodes = (
"306 0 LINE",
"346 234 LINE",
"608 234 LINE",
"608 0 LINE",
"1230 0 LINE",
"1230 270 LINE",
"878 270 LINE",
"878 660 LINE",
"1176 660 LINE",
"1176 930 LINE",
"878 930 LINE",
"878 1230 LINE",
"1230 1230 LINE",
"1230 1500 LINE",
"314 1500 LINE",
"30 0 LINE"
);
},
{
closed = 1;
nodes = (
"518 1230 LINE",
"608 1230 LINE",
"608 504 LINE",
"392 504 LINE"
);
}
);
width = 1318;
}
);
leftKerningGroup = A;
leftMetricsKey = A;
rightKerningGroup = E;
rightMetricsKey = E;
unicode = 00C6;
},
{
glyphname = B;
lastChange = "2019-11-13 16:16:32 +0000";
layers = (
{
layerId = "60B18B06-8123-4D0C-85E3-2DE7B5C03586";
paths = (
{
closed = 1;
nodes = (
"536 0 LINE SMOOTH",
"762 0 OFFCURVE",
"906 148 OFFCURVE",
"906 370 CURVE SMOOTH",
"906 500 LINE SMOOTH",
"906 630 OFFCURVE",
"854 736 OFFCURVE",
"770 798 CURVE",
"776 692 LINE",
"846 756 OFFCURVE",
"886 854 OFFCURVE",
"886 970 CURVE SMOOTH",
"886 1130 LINE SMOOTH",
"886 1352 OFFCURVE",
"742 1500 OFFCURVE",
"516 1500 CURVE SMOOTH",
"146 1500 LINE",
"146 0 LINE"
);
},
{
closed = 1;
nodes = (
"416 600 LINE",
"536 600 LINE SMOOTH",
"600 600 OFFCURVE",
"636 560 OFFCURVE",
"636 500 CURVE SMOOTH",
"636 370 LINE SMOOTH",
"636 310 OFFCURVE",
"600 270 OFFCURVE",
"536 270 CURVE SMOOTH",
"416 270 LINE"
);
},
{
closed = 1;
nodes = (
"416 1230 LINE",
"516 1230 LINE SMOOTH",
"580 1230 OFFCURVE",
"616 1190 OFFCURVE",
"616 1130 CURVE SMOOTH",
"616 970 LINE SMOOTH",
"616 910 OFFCURVE",
"580 870 OFFCURVE",
"516 870 CURVE SMOOTH",
"416 870 LINE"
);
}
);
width = 1006;
},
{
hints = (
{
horizontal = 1;
origin = "{0, 17}";
target = "{1, 9}";
type = Stem;
},
{
horizontal = 1;
origin = "{1, 0}";
target = "{2, 9}";
type = Stem;
},
{
horizontal = 1;
origin = "{0, 16}";
target = "{2, 0}";
type = Stem;
}
);
layerId = "DDDB0B36-051A-43AE-9F30-611505482296";
paths = (
{
closed = 1;
nodes = (
"576 0 LINE SMOOTH",
"762 0 OFFCURVE",
"886 132 OFFCURVE",
"886 330 CURVE SMOOTH",
"886 510 LINE SMOOTH",
"886 648 OFFCURVE",
"822 756 OFFCURVE",
"724 808 CURVE",
"726 774 LINE",
"812 830 OFFCURVE",
"866 932 OFFCURVE",
"866 1060 CURVE SMOOTH",
"866 1170 LINE SMOOTH",
"866 1368 OFFCURVE",
"742 1500 OFFCURVE",
"556 1500 CURVE SMOOTH",
"186 1500 LINE",
"186 0 LINE"
);
},
{
closed = 1;
nodes = (
"296 730 LINE",
"576 730 LINE SMOOTH",
"696 730 OFFCURVE",
"776 642 OFFCURVE",
"776 510 CURVE SMOOTH",
"776 330 LINE SMOOTH",
"776 198 OFFCURVE",
"696 110 OFFCURVE",
"576 110 CURVE SMOOTH",
"296 110 LINE"
);
},
{
closed = 1;
nodes = (
"296 1390 LINE",
"556 1390 LINE SMOOTH",
"676 1390 OFFCURVE",
"756 1302 OFFCURVE",
"756 1170 CURVE SMOOTH",
"756 1060 LINE SMOOTH",
"756 928 OFFCURVE",
"676 840 OFFCURVE",
"556 840 CURVE SMOOTH",
"296 840 LINE"
);
}
);
width = 1026;
}
);
leftKerningGroup = I;
note = B;
rightKerningGroup = B;
unicode = 0042;
},
{
glyphname = C;
lastChange = "2019-11-13 16:16:32 +0000";
layers = (
{
anchors = (
{
name = bottom;
position = "{494, 0}";
},
{
name = top;
position = "{494, 1500}";
}
);
layerId = "60B18B06-8123-4D0C-85E3-2DE7B5C03586";
paths = (
{
closed = 1;
nodes = (
"594 418 LINE",
"594 338 LINE SMOOTH",
"594 278 OFFCURVE",
"558 238 OFFCURVE",
"494 238 CURVE SMOOTH",
"430 238 OFFCURVE",
"394 278 OFFCURVE",
"394 338 CURVE SMOOTH",
"394 1162 LINE SMOOTH",
"394 1222 OFFCURVE",
"430 1262 OFFCURVE",
"494 1262 CURVE SMOOTH",
"558 1262 OFFCURVE",
"594 1222 OFFCURVE",
"594 1162 CURVE SMOOTH",
"594 1082 LINE",
"864 1082 LINE",
"864 1162 LINE SMOOTH",
"864 1384 OFFCURVE",
"720 1532 OFFCURVE",
"494 1532 CURVE SMOOTH",
"268 1532 OFFCURVE",
"124 1384 OFFCURVE",
"124 1162 CURVE SMOOTH",
"124 338 LINE SMOOTH",
"124 116 OFFCURVE",
"268 -32 OFFCURVE",
"494 -32 CURVE SMOOTH",
"720 -32 OFFCURVE",
"864 116 OFFCURVE",
"864 338 CURVE SMOOTH",
"864 418 LINE"
);
}
);
width = 932;
},
{
anchors = (
{
name = bottom;
position = "{514, 0}";
},
{
name = top;
position = "{514, 1500}";
}
);
hints = (
{
horizontal = 1;
origin = "{0, 27}";
target = "{0, 4}";
type = Stem;
},
{
horizontal = 1;
origin = "{0, 20}";
target = "{0, 11}";
type = Stem;
}
);
layerId = "DDDB0B36-051A-43AE-9F30-611505482296";
paths = (
{
closed = 1;
nodes = (
"754 378 LINE",
"754 338 LINE SMOOTH",
"754 182 OFFCURVE",
"658 78 OFFCURVE",
"514 78 CURVE SMOOTH",
"370 78 OFFCURVE",
"274 182 OFFCURVE",
"274 338 CURVE SMOOTH",
"274 1162 LINE SMOOTH",
"274 1318 OFFCURVE",
"370 1422 OFFCURVE",
"514 1422 CURVE SMOOTH",
"658 1422 OFFCURVE",
"754 1318 OFFCURVE",
"754 1162 CURVE SMOOTH",
"754 1122 LINE",
"864 1122 LINE",
"864 1162 LINE SMOOTH",
"864 1384 OFFCURVE",
"724 1532 OFFCURVE",
"514 1532 CURVE SMOOTH",
"304 1532 OFFCURVE",
"164 1384 OFFCURVE",
"164 1162 CURVE SMOOTH",
"164 338 LINE SMOOTH",
"164 116 OFFCURVE",
"304 -32 OFFCURVE",
"514 -32 CURVE SMOOTH",
"724 -32 OFFCURVE",
"864 116 OFFCURVE",
"864 338 CURVE SMOOTH",
"864 378 LINE"
);
}
);
width = 964;
}
);
leftKerningGroup = O;
note = C;
rightKerningGroup = C;
unicode = 0043;
},
{
glyphname = D;
lastChange = "2019-11-13 16:16:32 +0000";
layers = (
{
anchors = (
{
name = bottom;
position = "{500, 0}";
},
{
name = center;
position = "{286, 750}";
},
{
name = top;
position = "{500, 1500}";
}
);
layerId = "60B18B06-8123-4D0C-85E3-2DE7B5C03586";
paths = (
{
closed = 1;
nodes = (
"516 0 LINE SMOOTH",
"742 0 OFFCURVE",
"886 148 OFFCURVE",
"886 370 CURVE SMOOTH",
"886 1130 LINE SMOOTH",
"886 1352 OFFCURVE",
"742 1500 OFFCURVE",
"516 1500 CURVE SMOOTH",
"146 1500 LINE",
"146 0 LINE"
);
},
{
closed = 1;
nodes = (
"416 1230 LINE",
"516 1230 LINE SMOOTH",
"580 1230 OFFCURVE",
"616 1190 OFFCURVE",
"616 1130 CURVE SMOOTH",
"616 370 LINE SMOOTH",
"616 310 OFFCURVE",
"580 270 OFFCURVE",
"516 270 CURVE SMOOTH",
"416 270 LINE"
);
}
);
width = 1002;
},
{
anchors = (
{
name = bottom;
position = "{512, 0}";
},
{
name = center;
position = "{238, 750}";
},
{
name = top;
position = "{512, 1500}";
}
);
hints = (
{
horizontal = 1;
origin = "{0, 9}";
target = "{1, 9}";
type = Stem;
},
{
horizontal = 1;
origin = "{0, 8}";
target = "{1, 0}";
type = Stem;
}
);
layerId = "DDDB0B36-051A-43AE-9F30-611505482296";
paths = (
{
closed = 1;
nodes = (
"516 0 LINE SMOOTH",
"726 0 OFFCURVE",
"866 148 OFFCURVE",
"866 370 CURVE SMOOTH",
"866 1130 LINE SMOOTH",
"866 1352 OFFCURVE",
"726 1500 OFFCURVE",
"516 1500 CURVE SMOOTH",
"186 1500 LINE",
"186 0 LINE"
);
},
{
closed = 1;
nodes = (
"296 1390 LINE",
"516 1390 LINE SMOOTH",
"660 1390 OFFCURVE",
"756 1286 OFFCURVE",
"756 1130 CURVE SMOOTH",
"756 370 LINE SMOOTH",
"756 214 OFFCURVE",
"660 110 OFFCURVE",
"516 110 CURVE SMOOTH",
"296 110 LINE"
);
}
);
width = 1022;
}
);
leftKerningGroup = I;
note = D;
rightKerningGroup = O;
unicode = 0044;
},
{
glyphname = E;
lastChange = "2019-11-13 16:16:32 +0000";
layers = (
{
anchors = (
{
name = bottom;
position = "{456, 0}";
},
{
name = ogonek;
position = "{456, 0}";
},
{
name = top;
position = "{426, 1500}";
}
);
layerId = "60B18B06-8123-4D0C-85E3-2DE7B5C03586";
paths = (
{
closed = 1;
nodes = (
"146 1500 LINE",
"146 0 LINE",
"766 0 LINE",
"766 270 LINE",
"416 270 LINE",
"416 660 LINE",
"712 660 LINE",
"712 930 LINE",
"416 930 LINE",
"416 1230 LINE",
"766 1230 LINE",
"766 1500 LINE"
);
}
);
width = 854;
},
{
anchors = (
{
name = bottom;
position = "{486, 0}";
},
{
name = ogonek;
position = "{484, 0}";
},
{
name = top;
position = "{424, 1500}";
}
);
hints = (
{
horizontal = 1;
origin = "{0, 1}";
target = "{0, 4}";
type = Stem;
},
{
horizontal = 1;
origin = "{0, 5}";
target = "{0, 8}";
type = Stem;
},
{
horizontal = 1;
origin = "{0, 0}";
target = "{0, 9}";
type = Stem;
}
);
layerId = "DDDB0B36-051A-43AE-9F30-611505482296";
paths = (
{
closed = 1;
nodes = (
"186 1500 LINE",
"186 0 LINE",
"786 0 LINE",
"786 110 LINE",
"296 110 LINE",
"296 680 LINE",
"732 680 LINE",
"732 790 LINE",
"296 790 LINE",
"296 1390 LINE",
"786 1390 LINE",
"786 1500 LINE"
);
}
);
width = 868;
}
);
leftKerningGroup = I;
note = E;
rightKerningGroup = E;
unicode = 0045;
},
{
glyphname = F;
lastChange = "2019-11-13 16:16:32 +0000";
layers = (
{
layerId = "60B18B06-8123-4D0C-85E3-2DE7B5C03586";
paths = (
{
closed = 1;
nodes = (
"416 0 LINE",
"416 480 LINE",
"712 480 LINE",
"712 750 LINE",
"416 750 LINE",
"416 1230 LINE",
"766 1230 LINE",
"766 1500 LINE",
"146 1500 LINE",
"146 0 LINE"
);
}
);
width = 814;
},
{
hints = (
{
horizontal = 1;
origin = "{0, 9}";
target = up;
type = BottomGhost;
},
{
horizontal = 1;
origin = "{0, 1}";
target = "{0, 4}";
type = Stem;
},
{
horizontal = 1;
origin = "{0, 8}";
target = "{0, 5}";
type = Stem;
}
);
layerId = "DDDB0B36-051A-43AE-9F30-611505482296";
paths = (
{
closed = 1;
nodes = (
"296 0 LINE",
"296 620 LINE",
"732 620 LINE",
"732 730 LINE",
"296 730 LINE",
"296 1390 LINE",
"786 1390 LINE",
"786 1500 LINE",
"186 1500 LINE",
"186 0 LINE"
);
}
);
width = 846;
}
);
leftKerningGroup = I;
note = F;
unicode = 0046;
},
{
glyphname = G;
lastChange = "2019-11-13 16:16:32 +0000";
layers = (
{
anchors = (
{
name = bottom;
position = "{494, 0}";
},
{
name = top;
position = "{494, 1500}";
}
);
layerId = "60B18B06-8123-4D0C-85E3-2DE7B5C03586";
paths = (
{
closed = 1;
nodes = (
"720 -32 OFFCURVE",
"864 116 OFFCURVE",
"864 338 CURVE SMOOTH",
"864 750 LINE",
"468 750 LINE",
"468 480 LINE",
"594 480 LINE",
"594 338 LINE SMOOTH",
"594 278 OFFCURVE",
"558 238 OFFCURVE",
"494 238 CURVE SMOOTH",
"430 238 OFFCURVE",
"394 278 OFFCURVE",
"394 338 CURVE SMOOTH",
"394 1162 LINE SMOOTH",
"394 1222 OFFCURVE",
"430 1262 OFFCURVE",
"494 1262 CURVE SMOOTH",
"558 1262 OFFCURVE",
"594 1222 OFFCURVE",
"594 1162 CURVE SMOOTH",
"594 1082 LINE",
"864 1082 LINE",
"864 1162 LINE SMOOTH",
"864 1384 OFFCURVE",
"720 1532 OFFCURVE",
"494 1532 CURVE SMOOTH",
"268 1532 OFFCURVE",
"124 1384 OFFCURVE",
"124 1162 CURVE SMOOTH",
"124 338 LINE SMOOTH",
"124 116 OFFCURVE",
"268 -32 OFFCURVE",
"494 -32 CURVE SMOOTH"
);
}
);
width = 968;
},
{
anchors = (
{
name = bottom;
position = "{514, 0}";
},
{
name = top;
position = "{514, 1500}";
}
);
hints = (
{
horizontal = 1;
origin = "{0, 33}";
target = "{0, 10}";
type = Stem;
},
{
horizontal = 1;
origin = "{0, 5}";
target = "{0, 4}";
type = Stem;
},
{
horizontal = 1;
origin = "{0, 26}";
target = "{0, 17}";
type = Stem;
}
);
layerId = "DDDB0B36-051A-43AE-9F30-611505482296";
paths = (
{
closed = 1;
nodes = (
"724 -32 OFFCURVE",
"864 116 OFFCURVE",
"864 338 CURVE SMOOTH",
"864 710 LINE",
"528 710 LINE",
"528 600 LINE",
"754 600 LINE",
"754 338 LINE SMOOTH",
"754 182 OFFCURVE",
"658 78 OFFCURVE",
"514 78 CURVE SMOOTH",
"370 78 OFFCURVE",
"274 182 OFFCURVE",
"274 338 CURVE SMOOTH",
"274 1162 LINE SMOOTH",
"274 1318 OFFCURVE",
"370 1422 OFFCURVE",
"514 1422 CURVE SMOOTH",
"658 1422 OFFCURVE",
"754 1318 OFFCURVE",
"754 1162 CURVE SMOOTH",
"754 1122 LINE",
"864 1122 LINE",
"864 1162 LINE SMOOTH",
"864 1384 OFFCURVE",
"724 1532 OFFCURVE",
"514 1532 CURVE SMOOTH",
"304 1532 OFFCURVE",
"164 1384 OFFCURVE",
"164 1162 CURVE SMOOTH",
"164 338 LINE SMOOTH",
"164 116 OFFCURVE",
"304 -32 OFFCURVE",
"514 -32 CURVE SMOOTH"
);
}
);
width = 1000;
}
);
leftKerningGroup = O;
note = G;
rightKerningGroup = G;
unicode = 0047;
},
{
glyphname = H;
lastChange = "2019-11-13 16:16:32 +0000";
layers = (
{
anchors = (
{
name = bottom;
position = "{496, 0}";
},
{
name = center;
position = "{496, 1100}";
},
{
name = top;
position = "{496, 1500}";
}
);
layerId = "60B18B06-8123-4D0C-85E3-2DE7B5C03586";
paths = (
{
closed = 1;
nodes = (
"416 0 LINE",
"416 480 LINE",
"576 480 LINE",
"576 0 LINE",
"846 0 LINE",
"846 1500 LINE",
"576 1500 LINE",
"576 750 LINE",
"416 750 LINE",
"416 1500 LINE",
"146 1500 LINE",
"146 0 LINE"
);
}
);
width = 992;
},
{
anchors = (
{
name = bottom;
position = "{526, 0}";
},
{
name = center;
position = "{526, 1080}";
},
{
name = top;
position = "{526, 1500}";
}
);
hints = (
{
horizontal = 1;
origin = "{0, 11}";
target = up;
type = BottomGhost;
},
{
horizontal = 1;
origin = "{0, 1}";
target = "{0, 8}";
type = Stem;
},
{
horizontal = 1;
origin = "{0, 10}";
target = down;
type = TopGhost;
}
);
layerId = "DDDB0B36-051A-43AE-9F30-611505482296";
paths = (
{
closed = 1;
nodes = (
"296 0 LINE",
"296 620 LINE",
"756 620 LINE",
"756 0 LINE",
"866 0 LINE",
"866 1500 LINE",
"756 1500 LINE",
"756 730 LINE",
"296 730 LINE",
"296 1500 LINE",
"186 1500 LINE",
"186 0 LINE"
);
}
);
width = 1052;
}
);
leftKerningGroup = I;
note = H;
rightKerningGroup = I;
unicode = 0048;
},
{
glyphname = I;
lastChange = "2019-11-13 16:16:32 +0000";
layers = (
{
anchors = (
{
name = bottom;
position = "{282, 0}";
},
{
name = ogonek;
position = "{232, 0}";
},
{
name = top;
position = "{282, 1500}";
},
{
name = topleft;
position = "{48, 1500}";
}
);
layerId = "60B18B06-8123-4D0C-85E3-2DE7B5C03586";
paths = (
{
closed = 1;
nodes = (
"416 1500 LINE",
"146 1500 LINE",
"146 0 LINE",
"416 0 LINE"
);
}
);
width = 562;
},
{
anchors = (
{
name = bottom;
position = "{242, 0}";
},
{
name = ogonek;
position = "{210, 0}";
},
{
name = top;
position = "{242, 1500}";
},
{
name = topleft;
position = "{44, 1500}";
}
);
hints = (
{
horizontal = 1;
origin = "{0, 2}";
target = up;
type = BottomGhost;
},
{
horizontal = 1;
origin = "{0, 1}";
target = down;
type = TopGhost;
}
);
layerId = "DDDB0B36-051A-43AE-9F30-611505482296";
paths = (
{
closed = 1;
nodes = (
"296 1500 LINE",
"186 1500 LINE",
"186 0 LINE",
"296 0 LINE"
);
}
);
width = 482;
}
);
leftKerningGroup = I;
note = I;
rightKerningGroup = I;
unicode = 0049;
},
{
glyphname = J;
lastChange = "2019-11-13 16:16:32 +0000";
layers = (
{
anchors = (
{
name = bottom;
position = "{348, 0}";
},
{
name = top;
position = "{384, 1500}";
}
);
layerId = "60B18B06-8123-4D0C-85E3-2DE7B5C03586";
paths = (
{
closed = 1;
nodes = (
"154 -14 LINE SMOOTH",
"380 -14 OFFCURVE",
"524 134 OFFCURVE",
"524 356 CURVE SMOOTH",
"524 1500 LINE",
"254 1500 LINE",
"254 356 LINE SMOOTH",
"254 296 OFFCURVE",
"218 256 OFFCURVE",
"154 256 CURVE SMOOTH",
"18 256 LINE",
"18 -14 LINE"
);
}
);
width = 658;
},
{
anchors = (
{
name = bottom;
position = "{352, 0}";
},
{
name = top;
position = "{424, 1500}";
}
);
hints = (
{
horizontal = 1;
origin = "{0, 11}";
target = "{0, 10}";
type = Stem;
},
{
horizontal = 1;
origin = "{0, 5}";
target = down;
type = TopGhost;
}
);
layerId = "DDDB0B36-051A-43AE-9F30-611505482296";
paths = (
{
closed = 1;
nodes = (
"132 -12 LINE SMOOTH",
"342 -12 OFFCURVE",
"482 136 OFFCURVE",
"482 358 CURVE SMOOTH",
"482 1500 LINE",
"372 1500 LINE",
"372 358 LINE SMOOTH",
"372 202 OFFCURVE",
"276 98 OFFCURVE",
"132 98 CURVE SMOOTH",
"44 98 LINE",
"44 -12 LINE"
);
}
);
width = 656;
}
);
leftKerningGroup = J;
note = J;
rightKerningGroup = J;
unicode = 004A;
},
{
glyphname = K;
lastChange = "2019-11-13 16:16:32 +0000";
layers = (
{
anchors = (
{
name = bottom;
position = "{488, 0}";
},
{
name = top;
position = "{488, 1500}";
}
);
layerId = "60B18B06-8123-4D0C-85E3-2DE7B5C03586";
paths = (
{
closed = 1;
nodes = (
"966 0 LINE",
"632 964 LINE",
"986 1500 LINE",
"696 1500 LINE",
"396 1048 LINE",
"396 606 LINE",
"446 682 LINE",
"676 0 LINE"
);
},
{
closed = 1;
nodes = (
"416 0 LINE",
"416 1500 LINE",
"146 1500 LINE",
"146 0 LINE"
);
}
);
width = 1002;
},
{
anchors = (
{
name = bottom;
position = "{470, 0}";
},
{
name = top;
position = "{470, 1500}";
}
);
hints = (
{
horizontal = 1;
origin = "{1, 3}";
target = up;
type = BottomGhost;
},
{
horizontal = 1;
origin = "{1, 2}";
target = down;
type = TopGhost;
}
);
layerId = "DDDB0B36-051A-43AE-9F30-611505482296";
paths = (
{
closed = 1;
nodes = (
"926 0 LINE",
"468 922 LINE",
"868 1500 LINE",
"748 1500 LINE",
"276 830 LINE",
"276 646 LINE",
"396 820 LINE",
"806 0 LINE"
);
},
{
closed = 1;
nodes = (
"296 0 LINE",
"296 1500 LINE",
"186 1500 LINE",
"186 0 LINE"
);
}
);
width = 974;
}
);
leftKerningGroup = I;
note = K;
rightKerningGroup = K;
unicode = 004B;
},
{
glyphname = L;
lastChange = "2019-11-13 16:16:32 +0000";
layers = (
{
anchors = (
{
name = bottom;
position = "{354, 0}";
},
{
name = center;
position = "{280, 750}";
},
{
name = top;
position = "{354, 1500}";
},
{
name = topright;
position = "{660, 1500}";
}
);
layerId = "60B18B06-8123-4D0C-85E3-2DE7B5C03586";
paths = (
{
closed = 1;
nodes = (
"146 1500 LINE",
"146 0 LINE",
"726 0 LINE",
"726 270 LINE",
"416 270 LINE",
"416 1500 LINE"
);
}
);
width = 756;
},
{
anchors = (
{
name = bottom;
position = "{374, 0}";
},
{
name = center;
position = "{242, 750}";
},
{
name = top;
position = "{374, 1500}";
},
{
name = topright;
position = "{702, 1500}";
}
);
hints = (
{
horizontal = 1;
origin = "{0, 1}";
target = "{0, 4}";
type = Stem;
},
{
horizontal = 1;
origin = "{0, 0}";
target = down;
type = TopGhost;
}
);
layerId = "DDDB0B36-051A-43AE-9F30-611505482296";
paths = (
{
closed = 1;
nodes = (
"186 1500 LINE",
"186 0 LINE",
"746 0 LINE",
"746 110 LINE",
"296 110 LINE",
"296 1500 LINE"
);
}
);
width = 790;
}
);
leftKerningGroup = I;
note = L;
rightKerningGroup = L;
unicode = 004C;
},
{
glyphname = M;
lastChange = "2019-11-13 16:16:32 +0000";
layers = (
{
layerId = "60B18B06-8123-4D0C-85E3-2DE7B5C03586";
paths = (
{
closed = 1;
nodes = (
"396 0 LINE",
"396 762 LINE",
"364 756 LINE",
"576 0 LINE",
"748 0 LINE",
"960 756 LINE",
"928 762 LINE",
"928 0 LINE",
"1178 0 LINE",
"1178 1500 LINE",
"938 1500 LINE",
"630 338 LINE",
"694 338 LINE",
"386 1500 LINE",
"146 1500 LINE",
"146 0 LINE"
);
}
);
width = 1324;
},
{
hints = (
{
horizontal = 1;
origin = "{0, 15}";
target = up;
type = BottomGhost;
},
{
horizontal = 1;
origin = "{0, 14}";
target = down;
type = TopGhost;
}
);
layerId = "DDDB0B36-051A-43AE-9F30-611505482296";
paths = (
{
closed = 1;
nodes = (
"296 0 LINE",
"296 1210 LINE",
"284 1208 LINE",
"596 0 LINE",
"696 0 LINE",
"1008 1208 LINE",
"996 1210 LINE",
"996 0 LINE",
"1106 0 LINE",
"1106 1500 LINE",
"978 1500 LINE",
"634 172 LINE",
"658 172 LINE",
"314 1500 LINE",
"186 1500 LINE",
"186 0 LINE"
);
}
);
width = 1292;
}
);
leftKerningGroup = I;
note = M;
rightKerningGroup = I;
unicode = 004D;
},
{
glyphname = N;
lastChange = "2019-11-13 16:16:32 +0000";
layers = (
{
anchors = (
{
name = bottom;
position = "{506, 0}";
},
{
name = top;
position = "{506, 1500}";
}
);
layerId = "60B18B06-8123-4D0C-85E3-2DE7B5C03586";
paths = (
{
closed = 1;
nodes = (
"396 0 LINE",
"396 974 LINE",
"324 972 LINE",
"666 0 LINE",
"866 0 LINE",
"866 1500 LINE",
"616 1500 LINE",
"616 526 LINE",
"688 528 LINE",
"346 1500 LINE",
"146 1500 LINE",
"146 0 LINE"
);
}
);
width = 1012;
},
{
anchors = (
{
name = bottom;
position = "{536, 0}";
},
{
name = top;
position = "{536, 1500}";
}
);
hints = (
{
horizontal = 1;
origin = "{0, 11}";
target = up;
type = BottomGhost;
},
{
horizontal = 1;
origin = "{0, 10}";
target = down;
type = TopGhost;
}
);
layerId = "DDDB0B36-051A-43AE-9F30-611505482296";
paths = (
{
closed = 1;
nodes = (
"296 0 LINE",
"296 1312 LINE",
"264 1306 LINE",
"776 0 LINE",
"886 0 LINE",
"886 1500 LINE",
"776 1500 LINE",
"776 188 LINE",
"808 194 LINE",
"296 1500 LINE",
"186 1500 LINE",
"186 0 LINE"
);
}
);
width = 1072;
}
);
leftKerningGroup = I;
note = N;
rightKerningGroup = I;
unicode = 004E;
},
{
glyphname = O;
lastChange = "2019-11-13 16:16:32 +0000";
layers = (
{
anchors = (
{
name = bottom;
position = "{494, 0}";
},
{
name = center;
position = "{494, 750}";
},
{
name = ogonek;
position = "{536, 20}";
},
{
name = top;
position = "{494, 1500}";
}
);
layerId = "60B18B06-8123-4D0C-85E3-2DE7B5C03586";
paths = (
{
closed = 1;
nodes = (
"720 -32 OFFCURVE",
"864 116 OFFCURVE",
"864 338 CURVE SMOOTH",
"864 1162 LINE SMOOTH",
"864 1384 OFFCURVE",
"720 1532 OFFCURVE",
"494 1532 CURVE SMOOTH",
"268 1532 OFFCURVE",
"124 1384 OFFCURVE",
"124 1162 CURVE SMOOTH",
"124 338 LINE SMOOTH",
"124 116 OFFCURVE",
"268 -32 OFFCURVE",
"494 -32 CURVE SMOOTH"
);
},
{
closed = 1;
nodes = (
"430 238 OFFCURVE",
"394 278 OFFCURVE",
"394 338 CURVE SMOOTH",
"394 1162 LINE SMOOTH",
"394 1222 OFFCURVE",
"430 1262 OFFCURVE",
"494 1262 CURVE SMOOTH",
"558 1262 OFFCURVE",
"594 1222 OFFCURVE",
"594 1162 CURVE SMOOTH",
"594 338 LINE SMOOTH",
"594 278 OFFCURVE",
"558 238 OFFCURVE",
"494 238 CURVE SMOOTH"
);
}
);
width = 988;
},
{
anchors = (
{
name = bottom;
position = "{514, 0}";
},
{
name = center;
position = "{514, 750}";
},
{
name = ogonek;
position = "{576, 20}";
},
{
name = top;
position = "{514, 1500}";
}
);
hints = (
{
horizontal = 1;
origin = "{0, 13}";
target = "{1, 13}";
type = Stem;
},
{
horizontal = 1;
origin = "{0, 6}";
target = "{1, 6}";
type = Stem;
}
);
layerId = "DDDB0B36-051A-43AE-9F30-611505482296";
paths = (
{
closed = 1;
nodes = (
"724 -32 OFFCURVE",
"864 116 OFFCURVE",
"864 338 CURVE SMOOTH",
"864 1162 LINE SMOOTH",
"864 1384 OFFCURVE",
"724 1532 OFFCURVE",
"514 1532 CURVE SMOOTH",
"304 1532 OFFCURVE",
"164 1384 OFFCURVE",
"164 1162 CURVE SMOOTH",
"164 338 LINE SMOOTH",
"164 116 OFFCURVE",
"304 -32 OFFCURVE",
"514 -32 CURVE SMOOTH"
);
},
{
closed = 1;
nodes = (
"370 78 OFFCURVE",
"274 182 OFFCURVE",
"274 338 CURVE SMOOTH",
"274 1162 LINE SMOOTH",
"274 1318 OFFCURVE",
"370 1422 OFFCURVE",
"514 1422 CURVE SMOOTH",
"658 1422 OFFCURVE",
"754 1318 OFFCURVE",
"754 1162 CURVE SMOOTH",
"754 338 LINE SMOOTH",
"754 182 OFFCURVE",
"658 78 OFFCURVE",
"514 78 CURVE SMOOTH"
);
}
);
width = 1028;
}
);
leftKerningGroup = O;
note = O;
rightKerningGroup = O;
unicode = 004F;
},
{
glyphname = OE;
lastChange = "2019-11-13 16:16:32 +0000";
layers = (
{
anchors = (
{
name = bottom;
position = "{516, 0}";
},
{
name = center;
position = "{516, 750}";
},
{
name = ogonek;
position = "{578, 20}";
},
{
name = top;
position = "{516, 1500}";
}
);
hints = (
{
horizontal = 1;
origin = "{0, 25}";
target = "{1, 13}";
type = Stem;
},
{
horizontal = 1;
origin = "{0, 7}";
target = "{0, 10}";
type = Stem;
},
{
horizontal = 1;
origin = "{0, 14}";
target = "{0, 11}";
type = Stem;
},
{
horizontal = 1;
origin = "{0, 3}";
target = "{0, 6}";
type = Stem;
},
{
horizontal = 1;
origin = "{0, 18}";
target = "{1, 6}";
type = Stem;
}
);
layerId = "DDDB0B36-051A-43AE-9F30-611505482296";
paths = (
{
closed = 1;
nodes = (
"612 -32 OFFCURVE",
"694 0 OFFCURVE",
"754 56 CURVE",
"754 0 LINE",
"1354 0 LINE",
"1354 110 LINE",
"864 110 LINE",
"864 680 LINE",
"1300 680 LINE",
"1300 790 LINE",
"864 790 LINE",
"864 1390 LINE",
"1354 1390 LINE",
"1354 1500 LINE",
"754 1500 LINE",
"754 1444 LINE",
"694 1500 OFFCURVE",
"612 1532 OFFCURVE",
"514 1532 CURVE SMOOTH",
"304 1532 OFFCURVE",
"164 1384 OFFCURVE",
"164 1162 CURVE SMOOTH",
"164 338 LINE SMOOTH",
"164 116 OFFCURVE",
"304 -32 OFFCURVE",
"514 -32 CURVE SMOOTH"
);
},
{
closed = 1;
nodes = (
"370 78 OFFCURVE",
"274 182 OFFCURVE",
"274 338 CURVE SMOOTH",
"274 1162 LINE SMOOTH",
"274 1318 OFFCURVE",
"370 1422 OFFCURVE",
"514 1422 CURVE SMOOTH",
"658 1422 OFFCURVE",
"754 1318 OFFCURVE",
"754 1162 CURVE SMOOTH",
"754 338 LINE SMOOTH",
"754 182 OFFCURVE",
"658 78 OFFCURVE",
"514 78 CURVE SMOOTH"
);
}
);
width = 1436;
},
{
anchors = (
{
name = bottom;
position = "{494, 0}";
},
{
name = center;
position = "{494, 750}";
},
{
name = ogonek;
position = "{536, 20}";
},
{
name = top;
position = "{494, 1500}";
}
);
layerId = "60B18B06-8123-4D0C-85E3-2DE7B5C03586";
paths = (
{
closed = 1;
nodes = (
"614 -32 OFFCURVE",
"712 10 OFFCURVE",
"776 82 CURVE",
"776 0 LINE",
"1396 0 LINE",
"1396 270 LINE",
"1046 270 LINE",
"1046 660 LINE",
"1342 660 LINE",
"1342 930 LINE",
"1046 930 LINE",
"1046 1230 LINE",
"1396 1230 LINE",
"1396 1500 LINE",
"776 1500 LINE",
"776 1418 LINE",
"712 1490 OFFCURVE",
"614 1532 OFFCURVE",
"494 1532 CURVE SMOOTH",
"268 1532 OFFCURVE",
"124 1384 OFFCURVE",
"124 1162 CURVE SMOOTH",
"124 338 LINE SMOOTH",
"124 116 OFFCURVE",
"268 -32 OFFCURVE",
"494 -32 CURVE SMOOTH"
);
},
{
closed = 1;
nodes = (
"430 238 OFFCURVE",
"394 278 OFFCURVE",
"394 338 CURVE SMOOTH",
"394 1162 LINE SMOOTH",
"394 1222 OFFCURVE",
"430 1262 OFFCURVE",
"494 1262 CURVE SMOOTH",
"558 1262 OFFCURVE",
"594 1222 OFFCURVE",
"594 1162 CURVE SMOOTH",
"594 338 LINE SMOOTH",
"594 278 OFFCURVE",
"558 238 OFFCURVE",
"494 238 CURVE SMOOTH"
);
}
);
width = 1484;
}
);
leftKerningGroup = O;
leftMetricsKey = O;
rightKerningGroup = E;
rightMetricsKey = E;
unicode = 0152;
},
{
glyphname = P;
lastChange = "2019-11-13 16:16:32 +0000";
layers = (
{
anchors = (
{
name = bottom;
position = "{460, 0}";
},
{
name = top;
position = "{460, 1500}";
}
);
layerId = "60B18B06-8123-4D0C-85E3-2DE7B5C03586";
paths = (
{
closed = 1;
nodes = (
"416 0 LINE",
"416 560 LINE",
"516 560 LINE SMOOTH",
"742 560 OFFCURVE",
"886 708 OFFCURVE",
"886 930 CURVE SMOOTH",
"886 1130 LINE SMOOTH",
"886 1352 OFFCURVE",
"742 1500 OFFCURVE",
"516 1500 CURVE SMOOTH",
"146 1500 LINE",
"146 0 LINE"
);
},
{
closed = 1;
nodes = (
"416 1230 LINE",
"516 1230 LINE SMOOTH",
"580 1230 OFFCURVE",
"616 1190 OFFCURVE",
"616 1130 CURVE SMOOTH",
"616 930 LINE SMOOTH",
"616 870 OFFCURVE",
"580 830 OFFCURVE",
"516 830 CURVE SMOOTH",
"416 830 LINE"
);
}
);
width = 940;
},
{
anchors = (
{
name = bottom;
position = "{464, 0}";
},
{
name = top;
position = "{464, 1500}";
}
);
hints = (
{
horizontal = 1;
origin = "{0, 11}";
target = up;
type = BottomGhost;
},
{
horizontal = 1;
origin = "{0, 1}";
target = "{1, 9}";
type = Stem;
},
{
horizontal = 1;
origin = "{0, 10}";
target = "{1, 0}";
type = Stem;
}
);
layerId = "DDDB0B36-051A-43AE-9F30-611505482296";
paths = (
{
closed = 1;
nodes = (
"296 0 LINE",
"296 690 LINE",
"556 690 LINE SMOOTH",
"742 690 OFFCURVE",
"866 822 OFFCURVE",
"866 1020 CURVE SMOOTH",
"866 1170 LINE SMOOTH",
"866 1368 OFFCURVE",
"742 1500 OFFCURVE",
"556 1500 CURVE SMOOTH",
"186 1500 LINE",
"186 0 LINE"
);
},
{
closed = 1;
nodes = (
"296 1390 LINE",
"556 1390 LINE SMOOTH",
"676 1390 OFFCURVE",
"756 1302 OFFCURVE",
"756 1170 CURVE SMOOTH",
"756 1020 LINE SMOOTH",
"756 888 OFFCURVE",
"676 800 OFFCURVE",
"556 800 CURVE SMOOTH",
"296 800 LINE"
);
}
);
width = 954;
},
{
associatedMasterId = "DDDB0B36-051A-43AE-9F30-611505482296";
layerId = "717232E1-C685-40E8-BA8C-325482597663";
name = "Apr 29 18, 11:00";
paths = (
{
closed = 1;
nodes = (
"556 690 LINE SMOOTH",
"742 690 OFFCURVE",
"866 822 OFFCURVE",
"866 1020 CURVE SMOOTH",
"866 1170 LINE SMOOTH",
"866 1368 OFFCURVE",
"742 1500 OFFCURVE",
"556 1500 CURVE SMOOTH",
"186 1500 LINE",
"186 690 LINE"
);
},
{
closed = 1;
nodes = (
"296 1390 LINE",
"556 1390 LINE SMOOTH",
"676 1390 OFFCURVE",
"756 1302 OFFCURVE",
"756 1170 CURVE SMOOTH",
"756 1020 LINE SMOOTH",
"756 888 OFFCURVE",
"676 800 OFFCURVE",
"556 800 CURVE SMOOTH",
"296 800 LINE"
);
},
{
closed = 1;
nodes = (
"296 1500 LINE",
"186 1500 LINE",
"186 0 LINE",
"296 0 LINE"
);
}
);
width = 954;
}
);
leftKerningGroup = I;
note = P;
rightKerningGroup = P;
unicode = 0050;
},
{
glyphname = Thorn;
lastChange = "2019-11-13 16:16:32 +0000";
layers = (
{
hints = (
{
horizontal = 1;
origin = "{0, 13}";
target = up;
type = BottomGhost;
},
{
horizontal = 1;
origin = "{0, 1}";
target = "{1, 9}";
type = Stem;
},
{
horizontal = 1;
origin = "{1, 0}";
target = "{0, 10}";
type = Stem;
}
);
layerId = "DDDB0B36-051A-43AE-9F30-611505482296";
paths = (
{
closed = 1;
nodes = (
"296 0 LINE",
"296 444 LINE",
"556 444 LINE SMOOTH",
"742 444 OFFCURVE",
"866 576 OFFCURVE",
"866 774 CURVE SMOOTH",
"866 924 LINE SMOOTH",
"866 1122 OFFCURVE",
"742 1254 OFFCURVE",
"556 1254 CURVE SMOOTH",
"296 1254 LINE",
"296 1500 LINE",
"186 1500 LINE",
"186 0 LINE"
);
},
{
closed = 1;
nodes = (
"296 1144 LINE",
"556 1144 LINE SMOOTH",
"676 1144 OFFCURVE",
"756 1056 OFFCURVE",
"756 924 CURVE SMOOTH",
"756 774 LINE SMOOTH",
"756 642 OFFCURVE",
"676 554 OFFCURVE",
"556 554 CURVE SMOOTH",
"296 554 LINE"
);
}
);
width = 954;
},
{
layerId = "60B18B06-8123-4D0C-85E3-2DE7B5C03586";
paths = (
{
closed = 1;
nodes = (
"416 0 LINE",
"416 378 LINE",
"516 378 LINE SMOOTH",
"742 378 OFFCURVE",
"886 526 OFFCURVE",
"886 748 CURVE SMOOTH",
"886 948 LINE SMOOTH",
"886 1170 OFFCURVE",
"742 1318 OFFCURVE",
"516 1318 CURVE SMOOTH",
"416 1318 LINE",
"416 1500 LINE",
"146 1500 LINE",
"146 0 LINE"
);
},
{
closed = 1;
nodes = (
"416 1048 LINE",
"516 1048 LINE SMOOTH",
"580 1048 OFFCURVE",
"616 1008 OFFCURVE",
"616 948 CURVE SMOOTH",
"616 748 LINE SMOOTH",
"616 688 OFFCURVE",
"580 648 OFFCURVE",
"516 648 CURVE SMOOTH",
"416 648 LINE"
);
}
);
width = 940;
}
);
leftKerningGroup = I;
leftMetricsKey = P;
rightKerningGroup = P;
rightMetricsKey = P;
unicode = 00DE;
},
{
glyphname = Q;
lastChange = "2019-11-13 16:16:32 +0000";
layers = (
{
layerId = "60B18B06-8123-4D0C-85E3-2DE7B5C03586";
paths = (
{
closed = 1;
nodes = (
"846 -184 LINE",
"700 438 LINE",
"422 438 LINE",
"572 -184 LINE"
);
},
{
closed = 1;
nodes = (
"720 -32 OFFCURVE",
"864 116 OFFCURVE",
"864 338 CURVE SMOOTH",
"864 1162 LINE SMOOTH",
"864 1384 OFFCURVE",
"720 1532 OFFCURVE",
"494 1532 CURVE SMOOTH",
"268 1532 OFFCURVE",
"124 1384 OFFCURVE",
"124 1162 CURVE SMOOTH",
"124 338 LINE SMOOTH",
"124 116 OFFCURVE",
"268 -32 OFFCURVE",
"494 -32 CURVE SMOOTH"
);
},
{
closed = 1;
nodes = (
"430 238 OFFCURVE",
"394 278 OFFCURVE",
"394 338 CURVE SMOOTH",
"394 1162 LINE SMOOTH",
"394 1222 OFFCURVE",
"430 1262 OFFCURVE",
"494 1262 CURVE SMOOTH",
"558 1262 OFFCURVE",
"594 1222 OFFCURVE",
"594 1162 CURVE SMOOTH",
"594 338 LINE SMOOTH",
"594 278 OFFCURVE",
"558 238 OFFCURVE",
"494 238 CURVE SMOOTH"
);
}
);
width = 988;
},
{
hints = (
{
horizontal = 1;
origin = "{1, 13}";
target = "{2, 13}";
type = Stem;
},
{
horizontal = 1;
origin = "{1, 6}";
target = "{2, 6}";
type = Stem;
}
);
layerId = "DDDB0B36-051A-43AE-9F30-611505482296";
paths = (
{
closed = 1;
nodes = (
"780 -180 LINE",
"568 438 LINE",
"456 438 LINE",
"668 -180 LINE"
);
},
{
closed = 1;
nodes = (
"724 -32 OFFCURVE",
"864 116 OFFCURVE",
"864 338 CURVE SMOOTH",
"864 1162 LINE SMOOTH",
"864 1384 OFFCURVE",
"724 1532 OFFCURVE",
"514 1532 CURVE SMOOTH",
"304 1532 OFFCURVE",
"164 1384 OFFCURVE",
"164 1162 CURVE SMOOTH",
"164 338 LINE SMOOTH",
"164 116 OFFCURVE",
"304 -32 OFFCURVE",
"514 -32 CURVE SMOOTH"
);
},
{
closed = 1;
nodes = (
"370 78 OFFCURVE",
"274 182 OFFCURVE",
"274 338 CURVE SMOOTH",
"274 1162 LINE SMOOTH",
"274 1318 OFFCURVE",
"370 1422 OFFCURVE",
"514 1422 CURVE SMOOTH",
"658 1422 OFFCURVE",
"754 1318 OFFCURVE",
"754 1162 CURVE SMOOTH",
"754 338 LINE SMOOTH",
"754 182 OFFCURVE",
"658 78 OFFCURVE",
"514 78 CURVE SMOOTH"
);
}
);
width = 1028;
}
);
leftKerningGroup = O;
note = Q;
rightKerningGroup = O;
unicode = 0051;
},
{
glyphname = R;
lastChange = "2019-11-13 16:16:32 +0000";
layers = (
{
anchors = (
{
name = bottom;
position = "{504, 0}";
},
{
name = top;
position = "{504, 1500}";
}
);
layerId = "60B18B06-8123-4D0C-85E3-2DE7B5C03586";
paths = (
{
closed = 1;
nodes = (
"416 0 LINE",
"416 520 LINE",
"516 520 LINE SMOOTH",
"580 520 OFFCURVE",
"616 480 OFFCURVE",
"616 420 CURVE SMOOTH",
"616 0 LINE",
"886 0 LINE",
"886 420 LINE SMOOTH",
"886 536 OFFCURVE",
"820 618 OFFCURVE",
"704 660 CURVE",
"724 572 LINE",
"828 638 OFFCURVE",
"886 748 OFFCURVE",
"886 890 CURVE SMOOTH",
"886 1130 LINE SMOOTH",
"886 1352 OFFCURVE",
"742 1500 OFFCURVE",
"516 1500 CURVE SMOOTH",
"146 1500 LINE",
"146 0 LINE"
);
},
{
closed = 1;
nodes = (
"416 1230 LINE",
"516 1230 LINE SMOOTH",
"580 1230 OFFCURVE",
"616 1190 OFFCURVE",
"616 1130 CURVE SMOOTH",
"616 890 LINE SMOOTH",
"616 830 OFFCURVE",
"580 790 OFFCURVE",
"516 790 CURVE SMOOTH",
"416 790 LINE"
);
}
);
width = 1008;
},
{
associatedMasterId = "60B18B06-8123-4D0C-85E3-2DE7B5C03586";
layerId = "39C2CA93-2650-459A-BE0E-7AE4DC651A2C";
name = "Apr 25 18, 16:34";
paths = (
{
closed = 1;
nodes = (
"298 562 LINE",
"462 562 LINE SMOOTH",
"548 562 OFFCURVE",
"622 488 OFFCURVE",
"622 400 CURVE SMOOTH",
"622 0 LINE",
"816 0 LINE",
"816 400 LINE SMOOTH",
"816 498 OFFCURVE",
"774 598 OFFCURVE",
"698 664 CURVE",
"760 728 OFFCURVE",
"802 818 OFFCURVE",
"802 908 CURVE SMOOTH",
"802 1152 LINE SMOOTH",
"802 1344 OFFCURVE",
"644 1500 OFFCURVE",
"452 1500 CURVE SMOOTH",
"104 1500 LINE",
"104 0 LINE",
"298 0 LINE"
);
},
{
closed = 1;
nodes = (
"452 1308 LINE SMOOTH",
"538 1308 OFFCURVE",
"606 1238 OFFCURVE",
"606 1152 CURVE SMOOTH",
"606 908 LINE SMOOTH",
"606 826 OFFCURVE",
"542 754 OFFCURVE",
"460 754 CURVE SMOOTH",
"298 754 LINE",
"298 1308 LINE"
);
}
);
width = 908;
},
{
anchors = (
{
name = bottom;
position = "{514, 0}";
},
{
name = top;
position = "{514, 1500}";
}
);
hints = (
{
horizontal = 1;
origin = "{0, 21}";
target = up;
type = BottomGhost;
},
{
horizontal = 1;
origin = "{0, 1}";
target = "{1, 9}";
type = Stem;
},
{
horizontal = 1;
origin = "{0, 20}";
target = "{1, 0}";
type = Stem;
}
);
layerId = "DDDB0B36-051A-43AE-9F30-611505482296";
paths = (
{
closed = 1;
nodes = (
"296 0 LINE",
"296 650 LINE",
"556 650 LINE SMOOTH",
"676 650 OFFCURVE",
"756 570 OFFCURVE",
"756 450 CURVE SMOOTH",
"756 0 LINE",
"866 0 LINE",
"866 450 LINE SMOOTH",
"866 574 OFFCURVE",
"804 670 OFFCURVE",
"700 712 CURVE",
"702 682 LINE",
"806 734 OFFCURVE",
"866 842 OFFCURVE",
"866 980 CURVE SMOOTH",
"866 1170 LINE SMOOTH",
"866 1368 OFFCURVE",
"742 1500 OFFCURVE",
"556 1500 CURVE SMOOTH",
"186 1500 LINE",
"186 0 LINE"
);
},
{
closed = 1;
nodes = (
"296 1390 LINE",
"556 1390 LINE SMOOTH",
"676 1390 OFFCURVE",
"756 1302 OFFCURVE",
"756 1170 CURVE SMOOTH",
"756 980 LINE SMOOTH",
"756 848 OFFCURVE",
"676 760 OFFCURVE",
"556 760 CURVE SMOOTH",
"296 760 LINE"
);
}
);
width = 1028;
}
);
leftKerningGroup = I;
note = R;
rightKerningGroup = R;
unicode = 0052;
},
{
glyphname = S;
lastChange = "2019-11-13 16:16:32 +0000";
layers = (
{
anchors = (
{
name = bottom;
position = "{466, 0}";
},
{
name = top;
position = "{466, 1500}";
}
);
layerId = "60B18B06-8123-4D0C-85E3-2DE7B5C03586";
paths = (
{
closed = 1;
nodes = (
"694 -32 OFFCURVE",
"838 116 OFFCURVE",
"838 338 CURVE SMOOTH",
"838 492 LINE SMOOTH",
"838 738 OFFCURVE",
"838 749 OFFCURVE",
"468 862 CURVE SMOOTH",
"368 892 OFFCURVE",
"368 892 OFFCURVE",
"368 962 CURVE SMOOTH",
"368 1162 LINE SMOOTH",
"368 1222 OFFCURVE",
"404 1262 OFFCURVE",
"468 1262 CURVE SMOOTH",
"532 1262 OFFCURVE",
"568 1222 OFFCURVE",
"568 1162 CURVE SMOOTH",
"568 1082 LINE",
"838 1082 LINE",
"838 1162 LINE SMOOTH",
"838 1384 OFFCURVE",
"694 1532 OFFCURVE",
"468 1532 CURVE SMOOTH",
"242 1532 OFFCURVE",
"98 1384 OFFCURVE",
"98 1162 CURVE SMOOTH",
"98 962 LINE SMOOTH",
"98 716 OFFCURVE",
"98 705 OFFCURVE",
"468 592 CURVE SMOOTH",
"568 562 OFFCURVE",
"568 562 OFFCURVE",
"568 492 CURVE SMOOTH",
"568 338 LINE SMOOTH",
"568 278 OFFCURVE",
"532 238 OFFCURVE",
"468 238 CURVE SMOOTH",
"404 238 OFFCURVE",
"368 278 OFFCURVE",
"368 338 CURVE SMOOTH",
"368 418 LINE",
"98 418 LINE",
"98 338 LINE SMOOTH",
"98 116 OFFCURVE",
"242 -32 OFFCURVE",
"468 -32 CURVE SMOOTH"
);
}
);
width = 930;
},
{
anchors = (
{
name = bottom;
position = "{474, 0}";
},
{
name = top;
position = "{474, 1500}";
}
);
hints = (
{
horizontal = 1;
origin = "{0, 45}";
target = "{0, 36}";
type = Stem;
},
{
horizontal = 1;
origin = "{0, 29}";
target = "{0, 6}";
type = Stem;
},
{
horizontal = 1;
origin = "{0, 22}";
target = "{0, 13}";
type = Stem;
}
);
layerId = "DDDB0B36-051A-43AE-9F30-611505482296";
paths = (
{
closed = 1;
nodes = (
"684 -32 OFFCURVE",
"824 116 OFFCURVE",
"824 338 CURVE SMOOTH",
"824 436 LINE SMOOTH",
"824 688 OFFCURVE",
"824 688 OFFCURVE",
"474 806 CURVE SMOOTH",
"234 887 OFFCURVE",
"234 893 OFFCURVE",
"234 1066 CURVE SMOOTH",
"234 1162 LINE SMOOTH",
"234 1318 OFFCURVE",
"330 1422 OFFCURVE",
"474 1422 CURVE SMOOTH",
"618 1422 OFFCURVE",
"714 1318 OFFCURVE",
"714 1162 CURVE SMOOTH",
"714 1122 LINE",
"824 1122 LINE",
"824 1162 LINE SMOOTH",
"824 1384 OFFCURVE",
"684 1532 OFFCURVE",
"474 1532 CURVE SMOOTH",
"264 1532 OFFCURVE",
"124 1384 OFFCURVE",
"124 1162 CURVE SMOOTH",
"124 1066 LINE SMOOTH",
"124 814 OFFCURVE",
"124 814 OFFCURVE",
"474 696 CURVE SMOOTH",
"714 615 OFFCURVE",
"714 609 OFFCURVE",
"714 436 CURVE SMOOTH",
"714 338 LINE SMOOTH",
"714 182 OFFCURVE",
"618 78 OFFCURVE",
"474 78 CURVE SMOOTH",
"330 78 OFFCURVE",
"234 182 OFFCURVE",
"234 338 CURVE SMOOTH",
"234 378 LINE",
"124 378 LINE",
"124 338 LINE SMOOTH",
"124 116 OFFCURVE",
"264 -32 OFFCURVE",
"474 -32 CURVE SMOOTH"
);
}
);
width = 948;
}
);
leftKerningGroup = S;
note = S;
rightKerningGroup = S;
unicode = 0053;
},
{
glyphname = T;
lastChange = "2019-11-13 16:16:32 +0000";
layers = (
{
anchors = (
{
name = bottom;
position = "{362, 0}";
},
{
name = center;
position = "{376, 750}";
},
{
name = top;
position = "{376, 1500}";
}
);
layerId = "60B18B06-8123-4D0C-85E3-2DE7B5C03586";
paths = (
{
closed = 1;
nodes = (
"510 0 LINE",
"510 1230 LINE",
"730 1230 LINE",
"730 1500 LINE",
"20 1500 LINE",
"20 1230 LINE",
"240 1230 LINE",
"240 0 LINE"
);
}
);
width = 750;
},
{
anchors = (
{
name = bottom;
position = "{368, 0}";
},
{
name = center;
position = "{370, 750}";
},
{
name = top;
position = "{370, 1500}";
}
);
hints = (
{
horizontal = 1;
origin = "{0, 7}";
target = up;
type = BottomGhost;
},
{
horizontal = 1;
origin = "{0, 4}";
target = "{0, 5}";
type = Stem;
}
);
layerId = "DDDB0B36-051A-43AE-9F30-611505482296";
paths = (
{
closed = 1;
nodes = (
"424 0 LINE",
"424 1390 LINE",
"694 1390 LINE",
"694 1500 LINE",
"44 1500 LINE",
"44 1390 LINE",
"314 1390 LINE",
"314 0 LINE"
);
}
);
width = 738;
}
);
leftKerningGroup = T;
note = T;
rightKerningGroup = T;
unicode = 0054;
},
{
glyphname = U;
lastChange = "2019-11-13 16:16:32 +0000";
layers = (
{
anchors = (
{
name = bottom;
position = "{506, 0}";
},
{
name = ogonek;
position = "{506, 0}";
},
{
name = top;
position = "{506, 1500}";
}
);
layerId = "60B18B06-8123-4D0C-85E3-2DE7B5C03586";
paths = (
{
closed = 1;
nodes = (
"606 1500 LINE",
"606 338 LINE SMOOTH",
"606 278 OFFCURVE",
"570 238 OFFCURVE",
"506 238 CURVE SMOOTH",
"442 238 OFFCURVE",
"406 278 OFFCURVE",
"406 338 CURVE SMOOTH",
"406 1500 LINE",
"136 1500 LINE",
"136 338 LINE SMOOTH",
"136 116 OFFCURVE",
"280 -32 OFFCURVE",
"506 -32 CURVE SMOOTH",
"732 -32 OFFCURVE",
"876 116 OFFCURVE",
"876 338 CURVE SMOOTH",
"876 1500 LINE"
);
}
);
width = 1012;
},
{
anchors = (
{
name = bottom;
position = "{528, 0}";
},
{
name = ogonek;
position = "{526, 0}";
},
{
name = top;
position = "{528, 1500}";
}
);
hints = (
{
horizontal = 1;
origin = "{0, 13}";
target = "{0, 4}";
type = Stem;
},
{
horizontal = 1;
origin = "{0, 9}";
target = down;
type = TopGhost;
}
);
layerId = "DDDB0B36-051A-43AE-9F30-611505482296";
paths = (
{
closed = 1;
nodes = (
"766 1500 LINE",
"766 338 LINE SMOOTH",
"766 182 OFFCURVE",
"670 78 OFFCURVE",
"526 78 CURVE SMOOTH",
"382 78 OFFCURVE",
"286 182 OFFCURVE",
"286 338 CURVE SMOOTH",
"286 1500 LINE",
"176 1500 LINE",
"176 338 LINE SMOOTH",
"176 116 OFFCURVE",
"316 -32 OFFCURVE",
"526 -32 CURVE SMOOTH",
"736 -32 OFFCURVE",
"876 116 OFFCURVE",
"876 338 CURVE SMOOTH",
"876 1500 LINE"
);
}
);
width = 1052;
}
);
leftKerningGroup = U;
note = U;
rightKerningGroup = U;
unicode = 0055;
},
{
glyphname = V;
lastChange = "2019-11-13 16:16:32 +0000";
layers = (
{
layerId = "60B18B06-8123-4D0C-85E3-2DE7B5C03586";
paths = (
{
closed = 1;
nodes = (
"606 0 LINE",
"884 1500 LINE",
"608 1500 LINE",
"442 382 LINE",
"478 382 LINE",
"306 1500 LINE",
"30 1500 LINE",
"314 0 LINE"
);
}
);
width = 914;
},
{
hints = (
{
horizontal = 1;
origin = "{0, 7}";
target = up;
type = BottomGhost;
},
{
horizontal = 1;
origin = "{0, 6}";
target = down;
type = TopGhost;
}
);
layerId = "DDDB0B36-051A-43AE-9F30-611505482296";
paths = (
{
closed = 1;
nodes = (
"518 0 LINE",
"858 1500 LINE",
"744 1500 LINE",
"448 206 LINE",
"472 206 LINE",
"176 1500 LINE",
"62 1500 LINE",
"402 0 LINE"
);
}
);
width = 920;
}
);
note = V;
unicode = 0056;
},
{
glyphname = W;
lastChange = "2019-11-13 16:16:32 +0000";
layers = (
{
anchors = (
{
name = bottom;
position = "{682, 0}";
},
{
name = top;
position = "{682, 1500}";
}
);
layerId = "60B18B06-8123-4D0C-85E3-2DE7B5C03586";
paths = (
{
closed = 1;
nodes = (
"532 0 LINE",
"704 902 LINE",
"660 902 LINE",
"830 0 LINE",
"1122 0 LINE",
"1306 1500 LINE",
"1030 1500 LINE",
"924 462 LINE",
"956 462 LINE",
"790 1500 LINE",
"572 1500 LINE",
"406 462 LINE",
"438 462 LINE",
"332 1500 LINE",
"56 1500 LINE",
"240 0 LINE"
);
}
);
width = 1362;
},
{
associatedMasterId = "60B18B06-8123-4D0C-85E3-2DE7B5C03586";
layerId = "7AC04416-80C8-4AEE-BAA9-DA417D64F7BF";
name = "Apr 25 18, 16:40";
paths = (
{
closed = 1;
nodes = (
"672 990 LINE",
"824 0 LINE",
"1030 0 LINE",
"1272 1500 LINE",
"1076 1500 LINE",
"926 646 LINE",
"776 1500 LINE",
"570 1500 LINE",
"420 646 LINE",
"270 1500 LINE",
"74 1500 LINE",
"316 0 LINE",
"522 0 LINE"
);
}
);
width = 1346;
},
{
anchors = (
{
name = bottom;
position = "{640, 0}";
},
{
name = top;
position = "{640, 1500}";
}
);
hints = (
{
horizontal = 1;
origin = "{0, 15}";
target = up;
type = BottomGhost;
},
{
horizontal = 1;
origin = "{0, 14}";
target = down;
type = TopGhost;
}
);
layerId = "DDDB0B36-051A-43AE-9F30-611505482296";
paths = (
{
closed = 1;
nodes = (
"420 0 LINE",
"650 1232 LINE",
"632 1232 LINE",
"858 0 LINE",
"974 0 LINE",
"1194 1500 LINE",
"1080 1500 LINE",
"902 224 LINE",
"916 226 LINE",
"692 1500 LINE",
"586 1500 LINE",
"362 226 LINE",
"376 224 LINE",
"198 1500 LINE",
"84 1500 LINE",
"304 0 LINE"
);
}
);
width = 1278;
},
{
associatedMasterId = "DDDB0B36-051A-43AE-9F30-611505482296";
layerId = "F3D4BCD6-DEEE-4411-B041-4C3F669BA026";
name = "Apr 26 18, 11:00";
paths = (
{
closed = 1;
nodes = (
"422 0 LINE",
"674 1500 LINE",
"568 1500 LINE",
"372 274 LINE",
"200 1500 LINE",
"86 1500 LINE",
"306 0 LINE"
);
},
{
closed = 1;
nodes = (
"1156 1500 LINE",
"1042 1500 LINE",
"870 274 LINE",
"674 1500 LINE",
"568 1500 LINE",
"820 0 LINE",
"936 0 LINE"
);
}
);
width = 1200;
}
);
leftKerningGroup = W;
note = W;
rightKerningGroup = W;
unicode = 0057;
},
{
glyphname = X;
lastChange = "2019-11-13 16:16:32 +0000";
layers = (
{
layerId = "60B18B06-8123-4D0C-85E3-2DE7B5C03586";
paths = (
{
closed = 1;
nodes = (
"306 0 LINE",
"496 498 LINE",
"410 498 LINE",
"596 0 LINE",
"872 0 LINE",
"590 750 LINE",
"872 1500 LINE",
"596 1500 LINE",
"410 1002 LINE",
"496 1002 LINE",
"306 1500 LINE",
"30 1500 LINE",
"314 750 LINE",
"30 0 LINE"
);
}
);
width = 902;
},
{
hints = (
{
horizontal = 1;
origin = "{0, 13}";
target = up;
type = BottomGhost;
},
{
horizontal = 1;
origin = "{0, 11}";
target = down;
type = TopGhost;
}
);
layerId = "DDDB0B36-051A-43AE-9F30-611505482296";
paths = (
{
closed = 1;
nodes = (
"176 0 LINE",
"480 670 LINE",
"440 670 LINE",
"744 0 LINE",
"858 0 LINE",
"518 752 LINE",
"858 1500 LINE",
"742 1500 LINE",
"440 832 LINE",
"480 832 LINE",
"178 1500 LINE",
"62 1500 LINE",
"402 752 LINE",
"62 0 LINE"
);
}
);
width = 920;
},
{
associatedMasterId = "60B18B06-8123-4D0C-85E3-2DE7B5C03586";
layerId = "767CC648-F331-45EB-A0E3-CD7EA67E24E4";
name = "Apr 26 18, 11:01";
paths = (
{
closed = 1;
nodes = (
"596 1500 LINE",
"872 1500 LINE",
"306 0 LINE",
"30 0 LINE"
);
},
{
closed = 1;
nodes = (
"872 0 LINE",
"306 1500 LINE",
"30 1500 LINE",
"596 0 LINE"
);
}
);
width = 902;
},
{
associatedMasterId = "DDDB0B36-051A-43AE-9F30-611505482296";
layerId = "ACED6411-93E7-4B74-AFE3-083CFF28D3D2";
name = "Apr 26 18, 11:02";
paths = (
{
closed = 1;
nodes = (
"886 1500 LINE",
"1002 1500 LINE",
"320 0 LINE",
"206 0 LINE"
);
},
{
closed = 1;
nodes = (
"1002 0 LINE",
"322 1500 LINE",
"206 1500 LINE",
"888 0 LINE"
);
}
);
width = 1200;
}
);
note = X;
unicode = 0058;
},
{
glyphname = Y;
lastChange = "2019-11-13 16:16:32 +0000";
layers = (
{
anchors = (
{
name = bottom;
position = "{454, 0}";
},
{
name = top;
position = "{454, 1500}";
}
);
layerId = "60B18B06-8123-4D0C-85E3-2DE7B5C03586";
paths = (
{
closed = 1;
nodes = (
"590 0 LINE",
"590 680 LINE",
"900 1500 LINE",
"624 1500 LINE",
"418 866 LINE",
"494 866 LINE",
"282 1500 LINE",
"6 1500 LINE",
"320 680 LINE",
"320 0 LINE"
);
}
);
width = 906;
},
{
anchors = (
{
name = bottom;
position = "{478, 0}";
},
{
name = top;
position = "{478, 1500}";
}
);
hints = (
{
horizontal = 1;
origin = "{0, 9}";
target = up;
type = BottomGhost;
},
{
horizontal = 1;
origin = "{0, 7}";
target = down;
type = TopGhost;
}
);
layerId = "DDDB0B36-051A-43AE-9F30-611505482296";
paths = (
{
closed = 1;
nodes = (
"534 0 LINE",
"534 800 LINE",
"916 1500 LINE",
"802 1500 LINE",
"454 866 LINE",
"502 866 LINE",
"154 1500 LINE",
"40 1500 LINE",
"424 800 LINE",
"424 0 LINE"
);
}
);
width = 956;
}
);
leftKerningGroup = Y;
note = Y;
rightKerningGroup = Y;
unicode = 0059;
},
{
glyphname = Z;
lastChange = "2019-11-13 16:16:32 +0000";
layers = (
{
anchors = (
{
name = bottom;
position = "{438, 0}";
},
{
name = top;
position = "{438, 1500}";
}
);
layerId = "60B18B06-8123-4D0C-85E3-2DE7B5C03586";
paths = (
{
closed = 1;
nodes = (
"812 0 LINE",
"812 270 LINE",
"230 270 LINE",
"302 158 LINE",
"812 1304 LINE",
"812 1500 LINE",
"62 1500 LINE",
"62 1230 LINE",
"644 1230 LINE",
"572 1342 LINE",
"62 196 LINE",
"62 0 LINE"
);
}
);
width = 874;
},
{
anchors = (
{
name = bottom;
position = "{414, 0}";
},
{
name = top;
position = "{414, 1500}";
}
);
hints = (
{
horizontal = 1;
origin = "{0, 11}";
target = "{0, 2}";
type = Stem;
},
{
horizontal = 1;
origin = "{0, 6}";
target = "{0, 7}";
type = Stem;
}
);
layerId = "DDDB0B36-051A-43AE-9F30-611505482296";
paths = (
{
closed = 1;
nodes = (
"754 0 LINE",
"754 110 LINE",
"144 110 LINE",
"174 64 LINE",
"754 1410 LINE",
"754 1500 LINE",
"76 1500 LINE",
"76 1390 LINE",
"684 1390 LINE",
"654 1436 LINE",
"74 90 LINE",
"76 0 LINE"
);
}
);
width = 828;
}
);
leftKerningGroup = Z;
note = Z;
rightKerningGroup = Z;
unicode = 005A;
},
{
glyphname = G.ss03;
lastChange = "2019-11-13 16:16:32 +0000";
layers = (
{
anchors = (
{
name = bottom;
position = "{494, 0}";
},
{
name = top;
position = "{494, 1500}";
}
);
layerId = "60B18B06-8123-4D0C-85E3-2DE7B5C03586";
paths = (
{
closed = 1;
nodes = (
"720 -32 OFFCURVE",
"864 116 OFFCURVE",
"864 338 CURVE SMOOTH",
"864 950 LINE",
"468 950 LINE",
"468 680 LINE",
"594 680 LINE",
"594 338 LINE SMOOTH",
"594 278 OFFCURVE",
"558 238 OFFCURVE",
"494 238 CURVE SMOOTH",
"430 238 OFFCURVE",
"394 278 OFFCURVE",
"394 338 CURVE SMOOTH",
"394 1162 LINE SMOOTH",
"394 1222 OFFCURVE",
"430 1262 OFFCURVE",
"494 1262 CURVE SMOOTH",
"558 1262 OFFCURVE",
"594 1222 OFFCURVE",
"594 1162 CURVE SMOOTH",
"594 1082 LINE",
"864 1082 LINE",
"864 1162 LINE SMOOTH",
"864 1384 OFFCURVE",
"720 1532 OFFCURVE",
"494 1532 CURVE SMOOTH",
"268 1532 OFFCURVE",
"124 1384 OFFCURVE",
"124 1162 CURVE SMOOTH",
"124 338 LINE SMOOTH",
"124 116 OFFCURVE",
"268 -32 OFFCURVE",
"494 -32 CURVE SMOOTH"
);
}
);
width = 968;
},
{
anchors = (
{
name = bottom;
position = "{514, 0}";
},
{
name = top;
position = "{514, 1500}";
}
);
hints = (
{
horizontal = 1;
origin = "{0, 33}";
target = "{0, 10}";
type = Stem;
},
{
horizontal = 1;
origin = "{0, 5}";
target = "{0, 4}";
type = Stem;
},
{
horizontal = 1;
origin = "{0, 26}";
target = "{0, 17}";
type = Stem;
}
);
layerId = "DDDB0B36-051A-43AE-9F30-611505482296";
paths = (
{
closed = 1;
nodes = (
"724 -32 OFFCURVE",
"864 116 OFFCURVE",
"864 338 CURVE SMOOTH",
"864 910 LINE",
"528 910 LINE",
"528 800 LINE",
"754 800 LINE",
"754 338 LINE SMOOTH",
"754 182 OFFCURVE",
"658 78 OFFCURVE",
"514 78 CURVE SMOOTH",
"370 78 OFFCURVE",
"274 182 OFFCURVE",
"274 338 CURVE SMOOTH",
"274 1162 LINE SMOOTH",
"274 1318 OFFCURVE",
"370 1422 OFFCURVE",
"514 1422 CURVE SMOOTH",
"658 1422 OFFCURVE",
"754 1318 OFFCURVE",
"754 1162 CURVE SMOOTH",
"754 1122 LINE",
"864 1122 LINE",
"864 1162 LINE SMOOTH",
"864 1384 OFFCURVE",
"724 1532 OFFCURVE",
"514 1532 CURVE SMOOTH",
"304 1532 OFFCURVE",
"164 1384 OFFCURVE",
"164 1162 CURVE SMOOTH",
"164 338 LINE SMOOTH",
"164 116 OFFCURVE",
"304 -32 OFFCURVE",
"514 -32 CURVE SMOOTH"
);
}
);
width = 1000;
}
);
leftKerningGroup = O;
note = G;
rightKerningGroup = G;
},
{
glyphname = J.ss04;
lastChange = "2019-11-13 16:16:32 +0000";
layers = (
{
anchors = (
{
name = bottom;
position = "{600, 0}";
},
{
name = top;
position = "{638, 1500}";
}
);
layerId = "60B18B06-8123-4D0C-85E3-2DE7B5C03586";
paths = (
{
closed = 1;
nodes = (
"632 -14 OFFCURVE",
"776 134 OFFCURVE",
"776 356 CURVE SMOOTH",
"776 1500 LINE",
"506 1500 LINE",
"506 356 LINE SMOOTH",
"506 296 OFFCURVE",
"470 256 OFFCURVE",
"406 256 CURVE SMOOTH",
"342 256 OFFCURVE",
"306 296 OFFCURVE",
"306 356 CURVE SMOOTH",
"306 376 LINE",
"36 376 LINE",
"36 356 LINE SMOOTH",
"36 134 OFFCURVE",
"180 -14 OFFCURVE",
"406 -14 CURVE SMOOTH"
);
}
);
width = 910;
},
{
anchors = (
{
name = bottom;
position = "{606, 0}";
},
{
name = top;
position = "{680, 1500}";
}
);
hints = (
{
horizontal = 1;
origin = "{0, 17}";
target = "{0, 8}";
type = Stem;
},
{
horizontal = 1;
origin = "{0, 4}";
target = down;
type = TopGhost;
}
);
layerId = "DDDB0B36-051A-43AE-9F30-611505482296";
paths = (
{
closed = 1;
nodes = (
"596 -12 OFFCURVE",
"736 136 OFFCURVE",
"736 358 CURVE SMOOTH",
"736 1500 LINE",
"626 1500 LINE",
"626 358 LINE SMOOTH",
"626 202 OFFCURVE",
"530 98 OFFCURVE",
"386 98 CURVE SMOOTH",
"242 98 OFFCURVE",
"146 202 OFFCURVE",
"146 358 CURVE SMOOTH",
"146 378 LINE",
"36 378 LINE",
"36 358 LINE SMOOTH",
"36 136 OFFCURVE",
"176 -12 OFFCURVE",
"386 -12 CURVE SMOOTH"
);
}
);
width = 910;
}
);
leftKerningGroup = J.ss04;
note = J;
rightKerningGroup = J;
},
{
glyphname = a;
lastChange = "2019-11-13 16:16:32 +0000";
layers = (
{
anchors = (
{
name = bottom;
position = "{336, 0}";
},
{
name = ogonek;
position = "{636, 0}";
},
{
name = top;
position = "{428, 1100}";
}
);
layerId = "60B18B06-8123-4D0C-85E3-2DE7B5C03586";
paths = (
{
closed = 1;
nodes = (
"446 -26 OFFCURVE",
"530 24 OFFCURVE",
"572 116 CURVE",
"528 172 LINE",
"528 0 LINE",
"778 0 LINE",
"778 756 LINE SMOOTH",
"778 978 OFFCURVE",
"642 1126 OFFCURVE",
"428 1126 CURVE SMOOTH",
"214 1126 OFFCURVE",
"78 978 OFFCURVE",
"78 756 CURVE SMOOTH",
"78 716 LINE",
"328 716 LINE",
"328 776 LINE SMOOTH",
"328 836 OFFCURVE",
"364 876 OFFCURVE",
"428 876 CURVE SMOOTH",
"492 876 OFFCURVE",
"528 836 OFFCURVE",
"528 776 CURVE SMOOTH",
"528 756 LINE SMOOTH",
"528 636 OFFCURVE",
"356 624 OFFCURVE",
"220 548 CURVE SMOOTH",
"130 498 OFFCURVE",
"58 423 OFFCURVE",
"58 273 CURVE SMOOTH",
"58 100 OFFCURVE",
"154 -26 OFFCURVE",
"334 -26 CURVE SMOOTH"
);
},
{
closed = 1;
nodes = (
"344 204 OFFCURVE",
"308 252 OFFCURVE",
"308 304 CURVE SMOOTH",
"308 349 OFFCURVE",
"333 378 OFFCURVE",
"386 404 CURVE SMOOTH",
"439 430 OFFCURVE",
"493 441 OFFCURVE",
"528 472 CURVE",
"528 318 LINE SMOOTH",
"528 232 OFFCURVE",
"472 204 OFFCURVE",
"416 204 CURVE SMOOTH"
);
}
);
width = 880;
},
{
anchors = (
{
name = bottom;
position = "{432, 0}";
},
{
name = ogonek;
position = "{698, 0}";
},
{
name = top;
position = "{442, 1080}";
}
);
hints = (
{
horizontal = 1;
origin = "{0, 31}";
target = "{1, 12}";
type = Stem;
},
{
horizontal = 1;
origin = "{0, 9}";
target = "{0, 18}";
type = Stem;
},
{
horizontal = 1;
origin = "{0, 4}";
target = up;
type = BottomGhost;
}
);
layerId = "DDDB0B36-051A-43AE-9F30-611505482296";
paths = (
{
closed = 1;
nodes = (
"542 -24 OFFCURVE",
"638 28 OFFCURVE",
"692 118 CURVE",
"674 142 LINE",
"674 0 LINE",
"784 0 LINE",
"784 758 LINE SMOOTH",
"784 964 OFFCURVE",
"642 1104 OFFCURVE",
"442 1104 CURVE SMOOTH",
"242 1104 OFFCURVE",
"104 964 OFFCURVE",
"104 758 CURVE SMOOTH",
"104 738 LINE",
"214 738 LINE",
"214 758 LINE SMOOTH",
"214 900 OFFCURVE",
"302 994 OFFCURVE",
"442 994 CURVE SMOOTH",
"582 994 OFFCURVE",
"674 900 OFFCURVE",
"674 758 CURVE SMOOTH",
"674 730 LINE SMOOTH",
"674 583 OFFCURVE",
"466 597 OFFCURVE",
"294 536 CURVE SMOOTH",
"188 498 OFFCURVE",
"82 428 OFFCURVE",
"82 268 CURVE SMOOTH",
"82 98 OFFCURVE",
"202 -24 OFFCURVE",
"408 -24 CURVE SMOOTH"
);
},
{
closed = 1;
nodes = (
"276 84 OFFCURVE",
"192 160 OFFCURVE",
"192 272 CURVE SMOOTH",
"192 376 OFFCURVE",
"260 424 OFFCURVE",
"350 452 CURVE SMOOTH",
"453 484 OFFCURVE",
"578 488 OFFCURVE",
"674 546 CURVE",
"674 342 LINE SMOOTH",
"674 179 OFFCURVE",
"583 84 OFFCURVE",
"421 84 CURVE SMOOTH"
);
}
);
width = 918;
}
);
leftKerningGroup = a;
note = a;
rightKerningGroup = a;
unicode = 0061;
},
{
glyphname = ae;
lastChange = "2019-11-13 16:16:32 +0000";
layers = (
{
hints = (
{
horizontal = 1;
origin = "{0, 53}";
target = "{0, 15}";
type = Stem;
},
{
horizontal = 1;
origin = "{0, 19}";
target = "{2, 8}";
type = Stem;
},
{
horizontal = 1;
origin = "{0, 31}";
target = "{0, 40}";
type = Stem;
}
);
layerId = "DDDB0B36-051A-43AE-9F30-611505482296";
paths = (
{
closed = 1;
nodes = (
"545 -24 OFFCURVE",
"669 42 OFFCURVE",
"734 176 CURVE",
"702 174 LINE",
"752 52 OFFCURVE",
"870 -24 OFFCURVE",
"1016 -24 CURVE SMOOTH",
"1216 -24 OFFCURVE",
"1354 116 OFFCURVE",
"1354 324 CURVE SMOOTH",
"1354 344 LINE",
"1244 344 LINE",
"1244 324 LINE SMOOTH",
"1244 182 OFFCURVE",
"1156 86 OFFCURVE",
"1016 86 CURVE SMOOTH",
"876 86 OFFCURVE",
"784 182 OFFCURVE",
"784 324 CURVE SMOOTH",
"784 532 LINE",
"1354 532 LINE",
"1354 758 LINE SMOOTH",
"1354 964 OFFCURVE",
"1216 1104 OFFCURVE",
"1016 1104 CURVE SMOOTH",
"878 1104 OFFCURVE",
"768 1038 OFFCURVE",
"714 930 CURVE",
"746 930 LINE",
"690 1038 OFFCURVE",
"580 1104 OFFCURVE",
"442 1104 CURVE SMOOTH",
"242 1104 OFFCURVE",
"104 964 OFFCURVE",
"104 758 CURVE SMOOTH",
"104 738 LINE",
"214 738 LINE",
"214 758 LINE SMOOTH",
"214 900 OFFCURVE",
"302 994 OFFCURVE",
"442 994 CURVE SMOOTH",
"582 994 OFFCURVE",
"674 900 OFFCURVE",
"674 758 CURVE SMOOTH",
"674 730 LINE SMOOTH",
"674 583 OFFCURVE",
"466 597 OFFCURVE",
"294 536 CURVE SMOOTH",
"188 498 OFFCURVE",
"82 428 OFFCURVE",
"82 269 CURVE SMOOTH",
"82 97 OFFCURVE",
"205 -24 OFFCURVE",
"401 -24 CURVE SMOOTH"
);
},
{
closed = 1;
nodes = (
"276 84 OFFCURVE",
"192 160 OFFCURVE",
"192 272 CURVE SMOOTH",
"192 376 OFFCURVE",
"260 424 OFFCURVE",
"350 452 CURVE SMOOTH",
"453 484 OFFCURVE",
"578 488 OFFCURVE",
"674 546 CURVE",
"674 342 LINE SMOOTH",
"674 179 OFFCURVE",
"583 84 OFFCURVE",
"421 84 CURVE SMOOTH"
);
},
{
closed = 1;
nodes = (
"784 758 LINE SMOOTH",
"784 900 OFFCURVE",
"876 994 OFFCURVE",
"1016 994 CURVE SMOOTH",
"1156 994 OFFCURVE",
"1244 900 OFFCURVE",
"1244 758 CURVE SMOOTH",
"1244 642 LINE",
"784 642 LINE"
);
}
);
width = 1464;
},
{
layerId = "60B18B06-8123-4D0C-85E3-2DE7B5C03586";
paths = (
{
closed = 1;
nodes = (
"462 -26 OFFCURVE",
"592 38 OFFCURVE",
"624 206 CURVE",
"556 184 LINE",
"604 54 OFFCURVE",
"722 -26 OFFCURVE",
"878 -26 CURVE SMOOTH",
"1092 -26 OFFCURVE",
"1228 122 OFFCURVE",
"1228 344 CURVE SMOOTH",
"1228 364 LINE",
"978 364 LINE",
"978 324 LINE SMOOTH",
"978 264 OFFCURVE",
"942 224 OFFCURVE",
"878 224 CURVE SMOOTH",
"814 224 OFFCURVE",
"778 264 OFFCURVE",
"778 324 CURVE SMOOTH",
"778 486 LINE",
"1228 486 LINE",
"1228 756 LINE SMOOTH",
"1228 978 OFFCURVE",
"1092 1126 OFFCURVE",
"878 1126 CURVE SMOOTH",
"758 1126 OFFCURVE",
"662 1080 OFFCURVE",
"602 996 CURVE",
"708 996 LINE",
"644 1080 OFFCURVE",
"548 1126 OFFCURVE",
"428 1126 CURVE SMOOTH",
"214 1126 OFFCURVE",
"78 978 OFFCURVE",
"78 756 CURVE SMOOTH",
"78 716 LINE",
"328 716 LINE",
"328 776 LINE SMOOTH",
"328 836 OFFCURVE",
"364 876 OFFCURVE",
"428 876 CURVE SMOOTH",
"492 876 OFFCURVE",
"528 836 OFFCURVE",
"528 776 CURVE SMOOTH",
"528 756 LINE SMOOTH",
"528 636 OFFCURVE",
"356 624 OFFCURVE",
"220 548 CURVE SMOOTH",
"130 498 OFFCURVE",
"58 423 OFFCURVE",
"58 273 CURVE SMOOTH",
"58 100 OFFCURVE",
"154 -26 OFFCURVE",
"334 -26 CURVE SMOOTH"
);
},
{
closed = 1;
nodes = (
"344 204 OFFCURVE",
"308 252 OFFCURVE",
"308 304 CURVE SMOOTH",
"308 349 OFFCURVE",
"333 378 OFFCURVE",
"386 404 CURVE SMOOTH",
"439 430 OFFCURVE",
"493 441 OFFCURVE",
"528 472 CURVE",
"528 318 LINE SMOOTH",
"528 232 OFFCURVE",
"472 204 OFFCURVE",
"416 204 CURVE SMOOTH"
);
},
{
closed = 1;
nodes = (
"778 776 LINE SMOOTH",
"778 836 OFFCURVE",
"814 876 OFFCURVE",
"878 876 CURVE SMOOTH",
"942 876 OFFCURVE",
"978 836 OFFCURVE",
"978 776 CURVE SMOOTH",
"978 716 LINE",
"778 716 LINE"
);
}
);
width = 1310;
}
);
leftKerningGroup = o;
rightKerningGroup = e;
unicode = 00E6;
},
{
glyphname = b;
lastChange = "2019-11-13 16:16:32 +0000";
layers = (
{
layerId = "60B18B06-8123-4D0C-85E3-2DE7B5C03586";
paths = (
{
closed = 1;
nodes = (
"684 -26 OFFCURVE",
"818 42 OFFCURVE",
"818 324 CURVE SMOOTH",
"818 776 LINE SMOOTH",
"818 1058 OFFCURVE",
"684 1126 OFFCURVE",
"554 1126 CURVE SMOOTH",
"442 1126 OFFCURVE",
"366 1076 OFFCURVE",
"324 990 CURVE",
"368 932 LINE",
"368 1500 LINE",
"118 1500 LINE",
"118 0 LINE",
"368 0 LINE",
"368 168 LINE",
"324 110 LINE",
"366 24 OFFCURVE",
"442 -26 OFFCURVE",
"554 -26 CURVE SMOOTH"
);
},
{
closed = 1;
nodes = (
"404 224 OFFCURVE",
"368 264 OFFCURVE",
"368 324 CURVE SMOOTH",
"368 776 LINE SMOOTH",
"368 836 OFFCURVE",
"404 876 OFFCURVE",
"468 876 CURVE SMOOTH",
"532 876 OFFCURVE",
"568 836 OFFCURVE",
"568 776 CURVE SMOOTH",
"568 324 LINE SMOOTH",
"568 264 OFFCURVE",
"532 224 OFFCURVE",
"468 224 CURVE SMOOTH"
);
}
);
width = 916;
},
{
hints = (
{
horizontal = 1;
origin = "{0, 19}";
target = "{1, 13}";
type = Stem;
},
{
horizontal = 1;
origin = "{0, 6}";
target = "{1, 6}";
type = Stem;
},
{
horizontal = 1;
origin = "{0, 12}";
target = down;
type = TopGhost;
},
{
horizontal = 1;
origin = "{1, 13}";
target = "{0, 13}";
type = Stem;
}
);
layerId = "DDDB0B36-051A-43AE-9F30-611505482296";
paths = (
{
closed = 1;
nodes = (
"687 -24 OFFCURVE",
"826 116 OFFCURVE",
"826 324 CURVE SMOOTH",
"826 758 LINE SMOOTH",
"826 964 OFFCURVE",
"687 1104 OFFCURVE",
"492 1104 CURVE SMOOTH",
"377 1104 OFFCURVE",
"293 1055 OFFCURVE",
"242 972 CURVE",
"260 948 LINE",
"260 1500 LINE",
"150 1500 LINE",
"150 0 LINE",
"260 0 LINE",
"260 132 LINE",
"242 108 LINE",
"293 25 OFFCURVE",
"377 -24 OFFCURVE",
"492 -24 CURVE SMOOTH"
);
},
{
closed = 1;
nodes = (
"343 86 OFFCURVE",
"260 180 OFFCURVE",
"260 322 CURVE SMOOTH",
"260 758 LINE SMOOTH",
"260 900 OFFCURVE",
"343 994 OFFCURVE",
"486 994 CURVE SMOOTH",
"629 994 OFFCURVE",
"716 900 OFFCURVE",
"716 758 CURVE SMOOTH",
"716 324 LINE SMOOTH",
"716 182 OFFCURVE",
"629 86 OFFCURVE",
"485 86 CURVE SMOOTH"
);
}
);
width = 946;
}
);
leftKerningGroup = h;
note = b;
rightKerningGroup = o;
unicode = 0062;
},
{
glyphname = c;
lastChange = "2019-11-13 16:16:32 +0000";
layers = (
{
anchors = (
{
name = bottom;
position = "{436, 0}";
},
{
name = top;
position = "{436, 1100}";
}
);
layerId = "60B18B06-8123-4D0C-85E3-2DE7B5C03586";
paths = (
{
closed = 1;
nodes = (
"650 -26 OFFCURVE",
"786 122 OFFCURVE",
"786 344 CURVE SMOOTH",
"786 364 LINE",
"536 364 LINE",
"536 324 LINE SMOOTH",
"536 264 OFFCURVE",
"500 224 OFFCURVE",
"436 224 CURVE SMOOTH",
"372 224 OFFCURVE",
"336 264 OFFCURVE",
"336 324 CURVE SMOOTH",
"336 776 LINE SMOOTH",
"336 836 OFFCURVE",
"372 876 OFFCURVE",
"436 876 CURVE SMOOTH",
"500 876 OFFCURVE",
"536 836 OFFCURVE",
"536 776 CURVE SMOOTH",
"536 736 LINE",
"786 736 LINE",
"786 756 LINE SMOOTH",
"786 978 OFFCURVE",
"650 1126 OFFCURVE",
"436 1126 CURVE SMOOTH",
"222 1126 OFFCURVE",
"86 978 OFFCURVE",
"86 756 CURVE SMOOTH",
"86 344 LINE SMOOTH",
"86 122 OFFCURVE",
"222 -26 OFFCURVE",
"436 -26 CURVE SMOOTH"
);
}
);
width = 840;
},
{
anchors = (
{
name = bottom;
position = "{460, 0}";
},
{
name = top;
position = "{460, 1080}";
}
);
hints = (
{
horizontal = 1;
origin = "{0, 31}";
target = "{0, 8}";
type = Stem;
},
{
horizontal = 1;
origin = "{0, 24}";
target = "{0, 15}";
type = Stem;
}
);
layerId = "DDDB0B36-051A-43AE-9F30-611505482296";
paths = (
{
closed = 1;
nodes = (
"660 -24 OFFCURVE",
"798 116 OFFCURVE",
"798 324 CURVE SMOOTH",
"798 344 LINE",
"688 344 LINE",
"688 324 LINE SMOOTH",
"688 182 OFFCURVE",
"600 86 OFFCURVE",
"460 86 CURVE SMOOTH",
"320 86 OFFCURVE",
"228 182 OFFCURVE",
"228 324 CURVE SMOOTH",
"228 758 LINE SMOOTH",
"228 900 OFFCURVE",
"320 994 OFFCURVE",
"460 994 CURVE SMOOTH",
"600 994 OFFCURVE",
"688 900 OFFCURVE",
"688 758 CURVE SMOOTH",
"688 738 LINE",
"798 738 LINE",
"798 758 LINE SMOOTH",
"798 964 OFFCURVE",
"660 1104 OFFCURVE",
"460 1104 CURVE SMOOTH",
"260 1104 OFFCURVE",
"118 964 OFFCURVE",
"118 758 CURVE SMOOTH",
"118 324 LINE SMOOTH",
"118 116 OFFCURVE",
"260 -24 OFFCURVE",
"460 -24 CURVE SMOOTH"
);
}
);
width = 880;
}
);
leftKerningGroup = o;
note = c;
rightKerningGroup = c;
unicode = 0063;
},
{
glyphname = d;
lastChange = "2019-11-13 16:16:32 +0000";
layers = (
{
anchors = (
{
name = bottom;
position = "{458, 0}";
},
{
name = center;
position = "{672, 1292}";
},
{
name = top;
position = "{458, 1100}";
}
);
layerId = "60B18B06-8123-4D0C-85E3-2DE7B5C03586";
paths = (
{
closed = 1;
nodes = (
"474 -26 OFFCURVE",
"550 24 OFFCURVE",
"592 110 CURVE",
"548 168 LINE",
"548 0 LINE",
"798 0 LINE",
"798 1500 LINE",
"548 1500 LINE",
"548 932 LINE",
"592 990 LINE",
"550 1076 OFFCURVE",
"474 1126 OFFCURVE",
"362 1126 CURVE SMOOTH",
"232 1126 OFFCURVE",
"98 1058 OFFCURVE",
"98 776 CURVE SMOOTH",
"98 324 LINE SMOOTH",
"98 42 OFFCURVE",
"232 -26 OFFCURVE",
"362 -26 CURVE SMOOTH"
);
},
{
closed = 1;
nodes = (
"384 224 OFFCURVE",
"348 264 OFFCURVE",
"348 324 CURVE SMOOTH",
"348 776 LINE SMOOTH",
"348 836 OFFCURVE",
"384 876 OFFCURVE",
"448 876 CURVE SMOOTH",
"512 876 OFFCURVE",
"548 836 OFFCURVE",
"548 776 CURVE SMOOTH",
"548 324 LINE SMOOTH",
"548 264 OFFCURVE",
"512 224 OFFCURVE",
"448 224 CURVE SMOOTH"
);
}
);
width = 916;
},
{
anchors = (
{
name = bottom;
position = "{478, 0}";
},
{
name = center;
position = "{742, 1284}";
},
{
name = top;
position = "{478, 1080}";
}
);
hints = (
{
horizontal = 1;
origin = "{0, 19}";
target = "{1, 13}";
type = Stem;
},
{
horizontal = 1;
origin = "{0, 12}";
target = "{1, 6}";
type = Stem;
},
{
horizontal = 1;
origin = "{0, 7}";
target = down;
type = TopGhost;
},
{
horizontal = 1;
origin = "{1, 13}";
target = "{0, 4}";
type = Stem;
}
);
layerId = "DDDB0B36-051A-43AE-9F30-611505482296";
paths = (
{
closed = 1;
nodes = (
"569 -24 OFFCURVE",
"653 25 OFFCURVE",
"704 108 CURVE",
"686 132 LINE",
"686 0 LINE",
"796 0 LINE",
"796 1500 LINE",
"686 1500 LINE",
"686 948 LINE",
"704 972 LINE",
"653 1055 OFFCURVE",
"569 1104 OFFCURVE",
"454 1104 CURVE SMOOTH",
"259 1104 OFFCURVE",
"120 964 OFFCURVE",
"120 758 CURVE SMOOTH",
"120 324 LINE SMOOTH",
"120 116 OFFCURVE",
"259 -24 OFFCURVE",
"454 -24 CURVE SMOOTH"
);
},
{
closed = 1;
nodes = (
"317 86 OFFCURVE",
"230 182 OFFCURVE",
"230 324 CURVE SMOOTH",
"230 758 LINE SMOOTH",
"230 900 OFFCURVE",
"317 994 OFFCURVE",
"460 994 CURVE SMOOTH",
"603 994 OFFCURVE",
"686 900 OFFCURVE",
"686 758 CURVE SMOOTH",
"686 322 LINE SMOOTH",
"686 180 OFFCURVE",
"603 86 OFFCURVE",
"461 86 CURVE SMOOTH"
);
}
);
width = 946;
}
);
leftKerningGroup = o;
note = d;
rightKerningGroup = d;
unicode = 0064;
},
{
glyphname = eth;
lastChange = "2019-11-13 16:16:32 +0000";
layers = (
{
hints = (
{
horizontal = 1;
origin = "{0, 17}";
target = "{1, 13}";
type = Stem;
},
{
horizontal = 1;
origin = "{0, 10}";
target = "{1, 6}";
type = Stem;
},
{
horizontal = 1;
origin = "{0, 0}";
target = "{0, 1}";
type = Stem;
},
{
horizontal = 1;
origin = "{1, 13}";
target = "{0, 22}";
type = Stem;
}
);
layerId = "DDDB0B36-051A-43AE-9F30-611505482296";
paths = (
{
closed = 1;
nodes = (
"418 1500 LINE",
"418 1390 LINE",
"458 1390 LINE SMOOTH",
"598 1390 OFFCURVE",
"686 1294 OFFCURVE",
"686 1152 CURVE SMOOTH",
"686 948 LINE",
"704 972 LINE",
"653 1055 OFFCURVE",
"569 1104 OFFCURVE",
"454 1104 CURVE SMOOTH",
"259 1104 OFFCURVE",
"120 964 OFFCURVE",
"120 758 CURVE SMOOTH",
"120 324 LINE SMOOTH",
"120 116 OFFCURVE",
"259 -24 OFFCURVE",
"454 -24 CURVE SMOOTH",
"569 -24 OFFCURVE",
"653 25 OFFCURVE",
"704 108 CURVE",
"686 132 LINE",
"686 0 LINE",
"796 0 LINE",
"796 1152 LINE SMOOTH",
"796 1360 OFFCURVE",
"658 1500 OFFCURVE",
"458 1500 CURVE SMOOTH"
);
},
{
closed = 1;
nodes = (
"317 86 OFFCURVE",
"230 182 OFFCURVE",
"230 324 CURVE SMOOTH",
"230 758 LINE SMOOTH",
"230 900 OFFCURVE",
"317 994 OFFCURVE",
"460 994 CURVE SMOOTH",
"603 994 OFFCURVE",
"686 900 OFFCURVE",
"686 758 CURVE SMOOTH",
"686 322 LINE SMOOTH",
"686 180 OFFCURVE",
"603 86 OFFCURVE",
"461 86 CURVE SMOOTH"
);
},
{
closed = 1;
nodes = (
"924 1278 LINE",
"924 1382 LINE",
"474 1258 LINE",
"474 1154 LINE"
);
}
);
width = 946;
},
{
layerId = "60B18B06-8123-4D0C-85E3-2DE7B5C03586";
paths = (
{
closed = 1;
nodes = (
"392 1500 LINE",
"392 1330 LINE",
"448 1330 LINE SMOOTH",
"508 1330 OFFCURVE",
"548 1290 OFFCURVE",
"548 1230 CURVE SMOOTH",
"548 932 LINE",
"592 990 LINE",
"550 1076 OFFCURVE",
"474 1126 OFFCURVE",
"362 1126 CURVE SMOOTH",
"232 1126 OFFCURVE",
"98 1058 OFFCURVE",
"98 776 CURVE SMOOTH",
"98 324 LINE SMOOTH",
"98 42 OFFCURVE",
"232 -26 OFFCURVE",
"362 -26 CURVE SMOOTH",
"474 -26 OFFCURVE",
"550 24 OFFCURVE",
"592 110 CURVE",
"548 168 LINE",
"548 0 LINE",
"798 0 LINE",
"798 1230 LINE SMOOTH",
"798 1392 OFFCURVE",
"698 1500 OFFCURVE",
"548 1500 CURVE SMOOTH"
);
},
{
closed = 1;
nodes = (
"384 224 OFFCURVE",
"348 264 OFFCURVE",
"348 324 CURVE SMOOTH",
"348 776 LINE SMOOTH",
"348 836 OFFCURVE",
"384 876 OFFCURVE",
"448 876 CURVE SMOOTH",
"512 876 OFFCURVE",
"548 836 OFFCURVE",
"548 776 CURVE SMOOTH",
"548 324 LINE SMOOTH",
"548 264 OFFCURVE",
"512 224 OFFCURVE",
"448 224 CURVE SMOOTH"
);
},
{
closed = 1;
nodes = (
"874 1234 LINE",
"874 1374 LINE",
"452 1264 LINE",
"452 1124 LINE"
);
}
);
width = 916;
}
);
leftKerningGroup = o;
rightKerningGroup = o;
unicode = 00F0;
},
{
glyphname = e;
lastChange = "2019-11-13 16:16:32 +0000";
layers = (
{
anchors = (
{
name = bottom;
position = "{436, 0}";
},
{
name = ogonek;
position = "{490, 0}";
},
{
name = top;
position = "{436, 1100}";
}
);
layerId = "60B18B06-8123-4D0C-85E3-2DE7B5C03586";
paths = (
{
closed = 1;
nodes = (
"650 -26 OFFCURVE",
"786 122 OFFCURVE",
"786 344 CURVE SMOOTH",
"786 364 LINE",
"536 364 LINE",
"536 324 LINE SMOOTH",
"536 264 OFFCURVE",
"500 224 OFFCURVE",
"436 224 CURVE SMOOTH",
"372 224 OFFCURVE",
"336 264 OFFCURVE",
"336 324 CURVE SMOOTH",
"336 776 LINE SMOOTH",
"336 836 OFFCURVE",
"372 876 OFFCURVE",
"436 876 CURVE SMOOTH",
"500 876 OFFCURVE",
"536 836 OFFCURVE",
"536 776 CURVE SMOOTH",
"536 716 LINE",
"304 716 LINE",
"304 486 LINE",
"786 486 LINE",
"786 756 LINE SMOOTH",
"786 978 OFFCURVE",
"650 1126 OFFCURVE",
"436 1126 CURVE SMOOTH",
"222 1126 OFFCURVE",
"86 978 OFFCURVE",
"86 756 CURVE SMOOTH",
"86 344 LINE SMOOTH",
"86 122 OFFCURVE",
"222 -26 OFFCURVE",
"436 -26 CURVE SMOOTH"
);
}
);
width = 868;
},
{
anchors = (
{
name = bottom;
position = "{460, 0}";
},
{
name = ogonek;
position = "{510, 0}";
},
{
name = top;
position = "{460, 1080}";
}
);
hints = (
{
horizontal = 1;
origin = "{0, 33}";
target = "{0, 8}";
type = Stem;
},
{
horizontal = 1;
origin = "{0, 21}";
target = "{0, 20}";
type = Stem;
},
{
horizontal = 1;
origin = "{0, 26}";
target = "{0, 15}";
type = Stem;
}
);
layerId = "DDDB0B36-051A-43AE-9F30-611505482296";
paths = (
{
closed = 1;
nodes = (
"660 -24 OFFCURVE",
"798 116 OFFCURVE",
"798 324 CURVE SMOOTH",
"798 344 LINE",
"688 344 LINE",
"688 324 LINE SMOOTH",
"688 182 OFFCURVE",
"600 86 OFFCURVE",
"460 86 CURVE SMOOTH",
"320 86 OFFCURVE",
"228 182 OFFCURVE",
"228 324 CURVE SMOOTH",
"228 758 LINE SMOOTH",
"228 900 OFFCURVE",
"320 994 OFFCURVE",
"460 994 CURVE SMOOTH",
"600 994 OFFCURVE",
"688 900 OFFCURVE",
"688 758 CURVE SMOOTH",
"688 642 LINE",
"200 642 LINE",
"200 532 LINE",
"798 532 LINE",
"798 758 LINE SMOOTH",
"798 964 OFFCURVE",
"660 1104 OFFCURVE",
"460 1104 CURVE SMOOTH",
"260 1104 OFFCURVE",
"118 964 OFFCURVE",
"118 758 CURVE SMOOTH",
"118 324 LINE SMOOTH",
"118 116 OFFCURVE",
"260 -24 OFFCURVE",
"460 -24 CURVE SMOOTH"
);
}
);
width = 908;
}
);
leftKerningGroup = o;
note = e;
rightKerningGroup = e;
unicode = 0065;
},
{
glyphname = f;
lastChange = "2019-11-13 16:16:32 +0000";
layers = (
{
layerId = "60B18B06-8123-4D0C-85E3-2DE7B5C03586";
paths = (
{
closed = 1;
nodes = (
"450 0 LINE",
"450 870 LINE",
"660 870 LINE",
"660 1100 LINE",
"450 1100 LINE",
"450 1170 LINE SMOOTH",
"450 1230 OFFCURVE",
"486 1270 OFFCURVE",
"550 1270 CURVE SMOOTH",
"660 1270 LINE",
"660 1520 LINE",
"550 1520 LINE SMOOTH",
"336 1520 OFFCURVE",
"200 1372 OFFCURVE",
"200 1170 CURVE SMOOTH",
"200 1100 LINE",
"0 1100 LINE",
"0 870 LINE",
"200 870 LINE",
"200 0 LINE"
);
}
);
width = 660;
},
{
hints = (
{
horizontal = 1;
origin = "{0, 19}";
target = up;
type = BottomGhost;
},
{
horizontal = 1;
origin = "{0, 16}";
target = "{0, 17}";
type = Stem;
},
{
horizontal = 1;
origin = "{0, 11}";
target = "{0, 8}";
type = Stem;
}
);
layerId = "DDDB0B36-051A-43AE-9F30-611505482296";
paths = (
{
closed = 1;
nodes = (
"326 0 LINE",
"326 974 LINE",
"622 974 LINE",
"622 1080 LINE",
"326 1080 LINE",
"326 1152 LINE SMOOTH",
"326 1306 OFFCURVE",
"418 1410 OFFCURVE",
"558 1410 CURVE SMOOTH",
"622 1410 LINE",
"622 1520 LINE",
"558 1520 LINE SMOOTH",
"352 1520 OFFCURVE",
"216 1370 OFFCURVE",
"216 1152 CURVE SMOOTH",
"216 1080 LINE",
"14 1080 LINE",
"14 974 LINE",
"216 974 LINE",
"216 0 LINE"
);
}
);
width = 636;
}
);
leftKerningGroup = f;
note = f;
rightKerningGroup = f;
unicode = 0066;
},
{
glyphname = g;
lastChange = "2019-11-13 16:16:32 +0000";
layers = (
{
anchors = (
{
name = bottom;
position = "{436, -366}";
},
{
name = top;
position = "{436, 1100}";
}
);
layerId = "60B18B06-8123-4D0C-85E3-2DE7B5C03586";
paths = (
{
closed = 1;
nodes = (
"648 -366 OFFCURVE",
"786 -220 OFFCURVE",
"786 0 CURVE SMOOTH",
"786 1100 LINE",
"536 1100 LINE",
"536 932 LINE",
"580 990 LINE",
"538 1076 OFFCURVE",
"462 1126 OFFCURVE",
"350 1126 CURVE SMOOTH",
"220 1126 OFFCURVE",
"86 1058 OFFCURVE",
"86 776 CURVE SMOOTH",
"86 464 LINE SMOOTH",
"86 182 OFFCURVE",
"220 114 OFFCURVE",
"350 114 CURVE SMOOTH",
"462 114 OFFCURVE",
"538 164 OFFCURVE",
"580 250 CURVE",
"536 308 LINE",
"536 -16 LINE SMOOTH",
"536 -76 OFFCURVE",
"500 -116 OFFCURVE",
"436 -116 CURVE SMOOTH",
"372 -116 OFFCURVE",
"336 -76 OFFCURVE",
"336 -16 CURVE SMOOTH",
"336 48 LINE",
"86 48 LINE",
"86 4 LINE SMOOTH",
"86 -218 OFFCURVE",
"222 -366 OFFCURVE",
"436 -366 CURVE SMOOTH"
);
},
{
closed = 1;
nodes = (
"372 364 OFFCURVE",
"336 404 OFFCURVE",
"336 464 CURVE SMOOTH",
"336 776 LINE SMOOTH",
"336 836 OFFCURVE",
"372 876 OFFCURVE",
"436 876 CURVE SMOOTH",
"500 876 OFFCURVE",
"536 836 OFFCURVE",
"536 776 CURVE SMOOTH",
"536 464 LINE SMOOTH",
"536 404 OFFCURVE",
"500 364 OFFCURVE",
"436 364 CURVE SMOOTH"
);
}
);
width = 904;
},
{
anchors = (
{
name = bottom;
position = "{432, -366}";
},
{
name = top;
position = "{436, 1080}";
}
);
hints = (
{
horizontal = 1;
origin = "{0, 33}";
target = "{0, 24}";
type = Stem;
},
{
horizontal = 1;
origin = "{0, 16}";
target = "{1, 13}";
type = Stem;
},
{
horizontal = 1;
origin = "{0, 4}";
target = "{1, 6}";
type = Stem;
},
{
horizontal = 1;
origin = "{0, 9}";
target = "{1, 6}";
type = Stem;
}
);
layerId = "DDDB0B36-051A-43AE-9F30-611505482296";
paths = (
{
closed = 1;
nodes = (
"632 -366 OFFCURVE",
"774 -226 OFFCURVE",
"774 -18 CURVE SMOOTH",
"774 1080 LINE",
"664 1080 LINE",
"664 948 LINE",
"682 972 LINE",
"631 1055 OFFCURVE",
"547 1104 OFFCURVE",
"432 1104 CURVE SMOOTH",
"237 1104 OFFCURVE",
"98 964 OFFCURVE",
"98 758 CURVE SMOOTH",
"98 464 LINE SMOOTH",
"98 256 OFFCURVE",
"237 116 OFFCURVE",
"432 116 CURVE SMOOTH",
"547 116 OFFCURVE",
"631 165 OFFCURVE",
"682 248 CURVE",
"664 272 LINE",
"664 -18 LINE SMOOTH",
"664 -160 OFFCURVE",
"572 -256 OFFCURVE",
"432 -256 CURVE SMOOTH",
"292 -256 OFFCURVE",
"204 -160 OFFCURVE",
"204 -18 CURVE SMOOTH",
"204 2 LINE",
"94 2 LINE",
"94 -18 LINE SMOOTH",
"94 -226 OFFCURVE",
"232 -366 OFFCURVE",
"432 -366 CURVE SMOOTH"
);
},
{
closed = 1;
nodes = (
"295 226 OFFCURVE",
"208 322 OFFCURVE",
"208 464 CURVE SMOOTH",
"208 758 LINE SMOOTH",
"208 900 OFFCURVE",
"295 994 OFFCURVE",
"438 994 CURVE SMOOTH",
"581 994 OFFCURVE",
"664 900 OFFCURVE",
"664 758 CURVE SMOOTH",
"664 462 LINE SMOOTH",
"664 320 OFFCURVE",
"581 226 OFFCURVE",
"439 226 CURVE SMOOTH"
);
}
);
width = 924;
}
);
leftKerningGroup = o;
note = g;
rightKerningGroup = g;
rightMetricsKey = "=|n";
unicode = 0067;
},
{
glyphname = h;
lastChange = "2019-11-13 16:16:32 +0000";
layers = (
{
anchors = (
{
name = bottom;
position = "{464, 0}";
},
{
name = center;
position = "{240, 1306}";
},
{
name = top;
position = "{240, 1500}";
}
);
layerId = "60B18B06-8123-4D0C-85E3-2DE7B5C03586";
paths = (
{
closed = 1;
nodes = (
"368 0 LINE",
"368 776 LINE SMOOTH",
"368 836 OFFCURVE",
"404 876 OFFCURVE",
"468 876 CURVE SMOOTH",
"532 876 OFFCURVE",
"568 836 OFFCURVE",
"568 776 CURVE SMOOTH",
"568 0 LINE",
"818 0 LINE",
"818 836 LINE SMOOTH",
"818 1058 OFFCURVE",
"684 1126 OFFCURVE",
"554 1126 CURVE SMOOTH",
"442 1126 OFFCURVE",
"366 1076 OFFCURVE",
"324 990 CURVE",
"368 932 LINE",
"368 1500 LINE",
"118 1500 LINE",
"118 0 LINE"
);
}
);
width = 928;
},
{
anchors = (
{
name = bottom;
position = "{476, 0}";
},
{
name = center;
position = "{204, 1304}";
},
{
name = top;
position = "{204, 1500}";
}
);
hints = (
{
horizontal = 1;
origin = "{0, 20}";
target = up;
type = BottomGhost;
},
{
horizontal = 1;
origin = "{0, 4}";
target = "{0, 13}";
type = Stem;
},
{
horizontal = 1;
origin = "{0, 19}";
target = down;
type = TopGhost;
}
);
layerId = "DDDB0B36-051A-43AE-9F30-611505482296";
paths = (
{
closed = 1;
nodes = (
"260 0 LINE",
"260 760 LINE SMOOTH",
"260 902 OFFCURVE",
"348 996 OFFCURVE",
"482 996 CURVE SMOOTH",
"612 996 OFFCURVE",
"700 902 OFFCURVE",
"700 760 CURVE SMOOTH",
"700 0 LINE",
"810 0 LINE",
"810 760 LINE SMOOTH",
"810 971 OFFCURVE",
"681 1106 OFFCURVE",
"495 1106 CURVE SMOOTH",
"382 1106 OFFCURVE",
"294 1056 OFFCURVE",
"242 968 CURVE",
"260 946 LINE",
"260 1500 LINE",
"150 1500 LINE",
"150 0 LINE"
);
}
);
width = 946;
}
);
leftKerningGroup = h;
note = h;
rightKerningGroup = n;
unicode = 0068;
},
{
glyphname = i;
lastChange = "2019-11-13 16:16:32 +0000";
layers = (
{
layerId = "60B18B06-8123-4D0C-85E3-2DE7B5C03586";
paths = (
{
closed = 1;
nodes = (
"368 0 LINE",
"368 1100 LINE",
"118 1100 LINE",
"118 0 LINE"
);
},
{
closed = 1;
nodes = (
"368 1180 LINE",
"368 1440 LINE",
"118 1440 LINE",
"118 1180 LINE"
);
}
);
width = 486;
},
{
hints = (
{
horizontal = 1;
origin = "{0, 3}";
target = up;
type = BottomGhost;
},
{
horizontal = 1;
origin = "{0, 2}";
target = down;
type = TopGhost;
},
{
horizontal = 1;
origin = "{1, 3}";
target = "{1, 2}";
type = Stem;
}
);
layerId = "DDDB0B36-051A-43AE-9F30-611505482296";
paths = (
{
closed = 1;
nodes = (
"260 0 LINE",
"260 1080 LINE",
"150 1080 LINE",
"150 0 LINE"
);
},
{
closed = 1;
nodes = (
"260 1214 LINE",
"260 1440 LINE",
"150 1440 LINE",
"150 1214 LINE"
);
}
);
width = 410;
}
);
leftKerningGroup = i;
note = i;
rightKerningGroup = i;
unicode = 0069;
},
{
glyphname = idotless;
lastChange = "2019-11-13 16:16:32 +0000";
layers = (
{
anchors = (
{
name = bottom;
position = "{206, 0}";
},
{
name = ogonek;
position = "{168, 0}";
},
{
name = top;
position = "{206, 1080}";
}
);
hints = (
{
horizontal = 1;
origin = "{0, 3}";
target = up;
type = BottomGhost;
},
{
horizontal = 1;
origin = "{0, 2}";
target = down;
type = TopGhost;
}
);
layerId = "DDDB0B36-051A-43AE-9F30-611505482296";
paths = (
{
closed = 1;
nodes = (
"260 0 LINE",
"260 1080 LINE",
"150 1080 LINE",
"150 0 LINE"
);
}
);
width = 410;
},
{
anchors = (
{
name = bottom;
position = "{244, 0}";
},
{
name = ogonek;
position = "{204, 0}";
},
{
name = top;
position = "{244, 1100}";
}
);
layerId = "60B18B06-8123-4D0C-85E3-2DE7B5C03586";
paths = (
{
closed = 1;
nodes = (
"368 0 LINE",
"368 1100 LINE",
"118 1100 LINE",
"118 0 LINE"
);
}
);
width = 486;
}
);
leftKerningGroup = i;
rightKerningGroup = i;
unicode = 0131;
},
{
glyphname = j;
lastChange = "2019-11-13 16:16:32 +0000";
layers = (
{
layerId = "60B18B06-8123-4D0C-85E3-2DE7B5C03586";
paths = (
{
closed = 1;
nodes = (
"18 -366 LINE SMOOTH",
"232 -366 OFFCURVE",
"368 -218 OFFCURVE",
"368 4 CURVE SMOOTH",
"368 1100 LINE",
"118 1100 LINE",
"118 -16 LINE SMOOTH",
"118 -76 OFFCURVE",
"82 -116 OFFCURVE",
"18 -116 CURVE SMOOTH",
"-52 -116 LINE",
"-52 -366 LINE"
);
},
{
closed = 1;
nodes = (
"368 1180 LINE",
"368 1440 LINE",
"118 1440 LINE",
"118 1180 LINE"
);
}
);
width = 486;
},
{
hints = (
{
horizontal = 1;
origin = "{0, 11}";
target = "{0, 10}";
type = Stem;
},
{
horizontal = 1;
origin = "{0, 5}";
target = down;
type = TopGhost;
},
{
horizontal = 1;
origin = "{1, 3}";
target = "{1, 2}";
type = Stem;
}
);
layerId = "DDDB0B36-051A-43AE-9F30-611505482296";
paths = (
{
closed = 1;
nodes = (
"-80 -366 LINE SMOOTH",
"124 -366 OFFCURVE",
"260 -218 OFFCURVE",
"260 4 CURVE SMOOTH",
"260 1080 LINE",
"150 1080 LINE",
"150 2 LINE SMOOTH",
"150 -152 OFFCURVE",
"58 -256 OFFCURVE",
"-80 -256 CURVE SMOOTH",
"-140 -256 LINE",
"-140 -366 LINE"
);
},
{
closed = 1;
nodes = (
"260 1214 LINE",
"260 1440 LINE",
"150 1440 LINE",
"150 1214 LINE"
);
}
);
width = 410;
}
);
leftKerningGroup = j;
note = j;
rightKerningGroup = j;
unicode = 006A;
},
{
glyphname = jdotless;
lastChange = "2019-11-13 16:16:32 +0000";
layers = (
{
anchors = (
{
name = bottom;
position = "{206, 0}";
},
{
name = top;
position = "{206, 1080}";
}
);
hints = (
{
horizontal = 1;
origin = "{0, 11}";
target = "{0, 10}";
type = Stem;
},
{
horizontal = 1;
origin = "{0, 5}";
target = down;
type = TopGhost;
}
);
layerId = "DDDB0B36-051A-43AE-9F30-611505482296";
paths = (
{
closed = 1;
nodes = (
"-80 -366 LINE SMOOTH",
"124 -366 OFFCURVE",
"260 -218 OFFCURVE",
"260 4 CURVE SMOOTH",
"260 1080 LINE",
"150 1080 LINE",
"150 2 LINE SMOOTH",
"150 -152 OFFCURVE",
"58 -256 OFFCURVE",
"-80 -256 CURVE SMOOTH",
"-140 -256 LINE",
"-140 -366 LINE"
);
}
);
width = 410;
},
{
anchors = (
{
name = bottom;
position = "{244, 0}";
},
{
name = top;
position = "{244, 1100}";
}
);
layerId = "60B18B06-8123-4D0C-85E3-2DE7B5C03586";
paths = (
{
closed = 1;
nodes = (
"18 -366 LINE SMOOTH",
"232 -366 OFFCURVE",
"368 -218 OFFCURVE",
"368 4 CURVE SMOOTH",
"368 1100 LINE",
"118 1100 LINE",
"118 -16 LINE SMOOTH",
"118 -76 OFFCURVE",
"82 -116 OFFCURVE",
"18 -116 CURVE SMOOTH",
"-52 -116 LINE",
"-52 -366 LINE"
);
}
);
width = 486;
}
);
leftKerningGroup = j;
leftMetricsKey = j;
rightKerningGroup = j;
rightMetricsKey = j;
unicode = 0237;
},
{
glyphname = k;
lastChange = "2019-11-13 16:16:32 +0000";
layers = (
{
anchors = (
{
name = bottom;
position = "{436, 0}";
},
{
name = top;
position = "{436, 1100}";
}
);
layerId = "60B18B06-8123-4D0C-85E3-2DE7B5C03586";
paths = (
{
closed = 1;
nodes = (
"900 0 LINE",
"604 768 LINE",
"842 1100 LINE",
"582 1100 LINE",
"350 778 LINE",
"350 416 LINE",
"440 540 LINE",
"640 0 LINE"
);
},
{
closed = 1;
nodes = (
"368 0 LINE",
"368 1500 LINE",
"118 1500 LINE",
"118 0 LINE"
);
}
);
width = 892;
},
{
anchors = (
{
name = bottom;
position = "{406, 0}";
},
{
name = top;
position = "{406, 1080}";
}
);
hints = (
{
horizontal = 1;
origin = "{1, 3}";
target = up;
type = BottomGhost;
},
{
horizontal = 1;
origin = "{0, 3}";
target = down;
type = TopGhost;
},
{
horizontal = 1;
origin = "{1, 2}";
target = down;
type = TopGhost;
}
);
layerId = "DDDB0B36-051A-43AE-9F30-611505482296";
paths = (
{
closed = 1;
nodes = (
"826 0 LINE",
"446 686 LINE",
"762 1082 LINE",
"642 1082 LINE",
"240 600 LINE",
"240 426 LINE",
"374 596 LINE",
"706 0 LINE"
);
},
{
closed = 1;
nodes = (
"260 0 LINE",
"260 1500 LINE",
"150 1500 LINE",
"150 0 LINE"
);
}
);
width = 840;
}
);
leftKerningGroup = h;
note = k;
rightKerningGroup = k;
unicode = 006B;
},
{
glyphname = kgreenlandic;
lastChange = "2019-11-13 16:16:32 +0000";
layers = (
{
hints = (
{
horizontal = 1;
origin = "{1, 3}";
target = up;
type = BottomGhost;
},
{
horizontal = 1;
origin = "{0, 3}";
target = down;
type = TopGhost;
},
{
horizontal = 1;
origin = "{1, 2}";
target = down;
type = TopGhost;
}
);
layerId = "DDDB0B36-051A-43AE-9F30-611505482296";
paths = (
{
closed = 1;
nodes = (
"826 0 LINE",
"376 626 LINE",
"762 1082 LINE",
"642 1082 LINE",
"258 634 LINE",
"706 0 LINE"
);
},
{
closed = 1;
nodes = (
"260 0 LINE",
"260 1080 LINE",
"150 1080 LINE",
"150 0 LINE"
);
}
);
width = 836;
},
{
layerId = "60B18B06-8123-4D0C-85E3-2DE7B5C03586";
paths = (
{
closed = 1;
nodes = (
"900 0 LINE",
"604 768 LINE",
"842 1100 LINE",
"582 1100 LINE",
"350 778 LINE",
"640 0 LINE"
);
},
{
closed = 1;
nodes = (
"368 0 LINE",
"368 1100 LINE",
"118 1100 LINE",
"118 0 LINE"
);
}
);
width = 892;
}
);
leftKerningGroup = n;
rightKerningGroup = k;
unicode = 0138;
},
{
glyphname = l;
lastChange = "2019-11-13 16:16:32 +0000";
layers = (
{
anchors = (
{
name = bottom;
position = "{244, 0}";
},
{
name = center;
position = "{244, 752}";
},
{
name = top;
position = "{244, 1500}";
}
);
layerId = "60B18B06-8123-4D0C-85E3-2DE7B5C03586";
paths = (
{
closed = 1;
nodes = (
"368 0 LINE",
"368 1500 LINE",
"118 1500 LINE",
"118 0 LINE"
);
}
);
width = 486;
},
{
anchors = (
{
name = bottom;
position = "{206, 0}";
},
{
name = center;
position = "{206, 750}";
},
{
name = top;
position = "{206, 1500}";
}
);
hints = (
{
horizontal = 1;
origin = "{0, 3}";
target = up;
type = BottomGhost;
},
{
horizontal = 1;
origin = "{0, 2}";
target = down;
type = TopGhost;
}
);
layerId = "DDDB0B36-051A-43AE-9F30-611505482296";
paths = (
{
closed = 1;
nodes = (
"260 0 LINE",
"260 1500 LINE",
"150 1500 LINE",
"150 0 LINE"
);
}
);
width = 410;
}
);
leftKerningGroup = l;
note = l;
rightKerningGroup = l;
unicode = 006C;
},
{
glyphname = m;
lastChange = "2019-11-13 16:16:32 +0000";
layers = (
{
layerId = "60B18B06-8123-4D0C-85E3-2DE7B5C03586";
paths = (
{
closed = 1;
nodes = (
"368 0 LINE",
"368 776 LINE SMOOTH",
"368 836 OFFCURVE",
"404 876 OFFCURVE",
"468 876 CURVE SMOOTH",
"532 876 OFFCURVE",
"568 836 OFFCURVE",
"568 776 CURVE SMOOTH",
"568 0 LINE",
"818 0 LINE",
"818 776 LINE SMOOTH",
"818 836 OFFCURVE",
"854 876 OFFCURVE",
"918 876 CURVE SMOOTH",
"982 876 OFFCURVE",
"1018 836 OFFCURVE",
"1018 776 CURVE SMOOTH",
"1018 0 LINE",
"1268 0 LINE",
"1268 836 LINE SMOOTH",
"1268 1058 OFFCURVE",
"1134 1126 OFFCURVE",
"1004 1126 CURVE SMOOTH",
"866 1126 OFFCURVE",
"786 1052 OFFCURVE",
"750 928 CURVE",
"816 912 LINE",
"786 1072 OFFCURVE",
"668 1126 OFFCURVE",
"554 1126 CURVE SMOOTH",
"442 1126 OFFCURVE",
"366 1076 OFFCURVE",
"324 990 CURVE",
"368 932 LINE",
"368 1100 LINE",
"118 1100 LINE",
"118 0 LINE"
);
}
);
width = 1378;
},
{
hints = (
{
horizontal = 1;
origin = "{0, 36}";
target = up;
type = BottomGhost;
},
{
horizontal = 1;
origin = "{0, 29}";
target = "{0, 4}";
type = Stem;
},
{
horizontal = 1;
origin = "{0, 35}";
target = "{0, 4}";
type = Stem;
}
);
layerId = "DDDB0B36-051A-43AE-9F30-611505482296";
paths = (
{
closed = 1;
nodes = (
"260 0 LINE",
"260 758 LINE SMOOTH",
"260 900 OFFCURVE",
"348 994 OFFCURVE",
"482 994 CURVE SMOOTH",
"612 994 OFFCURVE",
"700 900 OFFCURVE",
"700 758 CURVE SMOOTH",
"700 0 LINE",
"810 0 LINE",
"810 758 LINE SMOOTH",
"810 900 OFFCURVE",
"898 994 OFFCURVE",
"1032 994 CURVE SMOOTH",
"1162 994 OFFCURVE",
"1250 900 OFFCURVE",
"1250 758 CURVE SMOOTH",
"1250 0 LINE",
"1360 0 LINE",
"1360 758 LINE SMOOTH",
"1360 966 OFFCURVE",
"1234 1104 OFFCURVE",
"1044 1104 CURVE SMOOTH",
"906 1104 OFFCURVE",
"804 1026 OFFCURVE",
"762 902 CURVE",
"786 902 LINE",
"742 1028 OFFCURVE",
"636 1104 OFFCURVE",
"494 1104 CURVE SMOOTH",
"382 1104 OFFCURVE",
"294 1054 OFFCURVE",
"242 966 CURVE",
"260 944 LINE",
"260 1080 LINE",
"150 1080 LINE",
"150 0 LINE"
);
}
);
width = 1496;
}
);
leftKerningGroup = n;
note = m;
rightKerningGroup = n;
unicode = 006D;
},
{
glyphname = n;
lastChange = "2019-11-13 16:16:32 +0000";
layers = (
{
anchors = (
{
name = bottom;
position = "{468, 0}";
},
{
name = top;
position = "{468, 1100}";
}
);
layerId = "60B18B06-8123-4D0C-85E3-2DE7B5C03586";
paths = (
{
closed = 1;
nodes = (
"368 0 LINE",
"368 776 LINE SMOOTH",
"368 836 OFFCURVE",
"404 876 OFFCURVE",
"468 876 CURVE SMOOTH",
"532 876 OFFCURVE",
"568 836 OFFCURVE",
"568 776 CURVE SMOOTH",
"568 0 LINE",
"818 0 LINE",
"818 776 LINE SMOOTH",
"818 996 OFFCURVE",
"720 1126 OFFCURVE",
"554 1126 CURVE SMOOTH",
"448 1126 OFFCURVE",
"366 1076 OFFCURVE",
"322 976 CURVE",
"368 926 LINE",
"368 1100 LINE",
"118 1100 LINE",
"118 0 LINE"
);
}
);
width = 924;
},
{
anchors = (
{
name = bottom;
position = "{480, 0}";
},
{
name = top;
position = "{480, 1080}";
}
);
hints = (
{
horizontal = 1;
origin = "{0, 20}";
target = up;
type = BottomGhost;
},
{
horizontal = 1;
origin = "{0, 13}";
target = "{0, 4}";
type = Stem;
},
{
horizontal = 1;
origin = "{0, 19}";
target = "{0, 4}";
type = Stem;
}
);
layerId = "DDDB0B36-051A-43AE-9F30-611505482296";
paths = (
{
closed = 1;
nodes = (
"260 0 LINE",
"260 758 LINE SMOOTH",
"260 900 OFFCURVE",
"348 994 OFFCURVE",
"482 994 CURVE SMOOTH",
"612 994 OFFCURVE",
"700 900 OFFCURVE",
"700 758 CURVE SMOOTH",
"700 0 LINE",
"810 0 LINE",
"810 758 LINE SMOOTH",
"810 969 OFFCURVE",
"681 1104 OFFCURVE",
"495 1104 CURVE SMOOTH",
"382 1104 OFFCURVE",
"294 1054 OFFCURVE",
"242 966 CURVE",
"260 944 LINE",
"260 1080 LINE",
"150 1080 LINE",
"150 0 LINE"
);
}
);
width = 946;
}
);
leftKerningGroup = n;
note = n;
rightKerningGroup = n;
unicode = 006E;
},
{
glyphname = o;
lastChange = "2019-11-13 16:16:32 +0000";
layers = (
{
anchors = (
{
name = bottom;
position = "{436, 0}";
},
{
name = center;
position = "{436, 550}";
},
{
name = ogonek;
position = "{500, 0}";
},
{
name = top;
position = "{436, 1100}";
}
);
layerId = "60B18B06-8123-4D0C-85E3-2DE7B5C03586";
paths = (
{
closed = 1;
nodes = (
"650 -26 OFFCURVE",
"786 122 OFFCURVE",
"786 344 CURVE SMOOTH",
"786 756 LINE SMOOTH",
"786 978 OFFCURVE",
"650 1126 OFFCURVE",
"436 1126 CURVE SMOOTH",
"222 1126 OFFCURVE",
"86 978 OFFCURVE",
"86 756 CURVE SMOOTH",
"86 344 LINE SMOOTH",
"86 122 OFFCURVE",
"222 -26 OFFCURVE",
"436 -26 CURVE SMOOTH"
);
},
{
closed = 1;
nodes = (
"372 224 OFFCURVE",
"336 264 OFFCURVE",
"336 324 CURVE SMOOTH",
"336 776 LINE SMOOTH",
"336 836 OFFCURVE",
"372 876 OFFCURVE",
"436 876 CURVE SMOOTH",
"500 876 OFFCURVE",
"536 836 OFFCURVE",
"536 776 CURVE SMOOTH",
"536 324 LINE SMOOTH",
"536 264 OFFCURVE",
"500 224 OFFCURVE",
"436 224 CURVE SMOOTH"
);
}
);
width = 872;
},
{
anchors = (
{
name = bottom;
position = "{460, 0}";
},
{
name = center;
position = "{460, 540}";
},
{
name = ogonek;
position = "{536, 0}";
},
{
name = top;
position = "{460, 1080}";
}
);
hints = (
{
horizontal = 1;
origin = "{0, 13}";
target = "{1, 13}";
type = Stem;
},
{
horizontal = 1;
origin = "{0, 6}";
target = "{1, 6}";
type = Stem;
}
);
layerId = "DDDB0B36-051A-43AE-9F30-611505482296";
paths = (
{
closed = 1;
nodes = (
"660 -24 OFFCURVE",
"798 116 OFFCURVE",
"798 324 CURVE SMOOTH",
"798 758 LINE SMOOTH",
"798 964 OFFCURVE",
"660 1104 OFFCURVE",
"460 1104 CURVE SMOOTH",
"260 1104 OFFCURVE",
"118 964 OFFCURVE",
"118 758 CURVE SMOOTH",
"118 324 LINE SMOOTH",
"118 116 OFFCURVE",
"260 -24 OFFCURVE",
"460 -24 CURVE SMOOTH"
);
},
{
closed = 1;
nodes = (
"320 86 OFFCURVE",
"228 182 OFFCURVE",
"228 324 CURVE SMOOTH",
"228 758 LINE SMOOTH",
"228 900 OFFCURVE",
"320 994 OFFCURVE",
"460 994 CURVE SMOOTH",
"600 994 OFFCURVE",
"688 900 OFFCURVE",
"688 758 CURVE SMOOTH",
"688 324 LINE SMOOTH",
"688 182 OFFCURVE",
"600 86 OFFCURVE",
"460 86 CURVE SMOOTH"
);
}
);
width = 918;
}
);
leftKerningGroup = o;
note = o;
rightKerningGroup = o;
unicode = 006F;
},
{
glyphname = oe;
lastChange = "2019-11-13 16:16:32 +0000";
layers = (
{
hints = (
{
horizontal = 1;
origin = "{0, 38}";
target = "{1, 13}";
type = Stem;
},
{
horizontal = 1;
origin = "{0, 19}";
target = "{2, 8}";
type = Stem;
},
{
horizontal = 1;
origin = "{0, 31}";
target = "{1, 6}";
type = Stem;
}
);
layerId = "DDDB0B36-051A-43AE-9F30-611505482296";
paths = (
{
closed = 1;
nodes = (
"596 -24 OFFCURVE",
"706 42 OFFCURVE",
"760 150 CURVE",
"728 150 LINE",
"782 42 OFFCURVE",
"894 -24 OFFCURVE",
"1030 -24 CURVE SMOOTH",
"1230 -24 OFFCURVE",
"1368 116 OFFCURVE",
"1368 324 CURVE SMOOTH",
"1368 344 LINE",
"1258 344 LINE",
"1258 324 LINE SMOOTH",
"1258 182 OFFCURVE",
"1170 86 OFFCURVE",
"1030 86 CURVE SMOOTH",
"890 86 OFFCURVE",
"798 182 OFFCURVE",
"798 324 CURVE SMOOTH",
"798 532 LINE",
"1368 532 LINE",
"1368 758 LINE SMOOTH",
"1368 964 OFFCURVE",
"1230 1104 OFFCURVE",
"1030 1104 CURVE SMOOTH",
"894 1104 OFFCURVE",
"782 1038 OFFCURVE",
"728 930 CURVE",
"760 930 LINE",
"706 1038 OFFCURVE",
"596 1104 OFFCURVE",
"460 1104 CURVE SMOOTH",
"260 1104 OFFCURVE",
"118 964 OFFCURVE",
"118 758 CURVE SMOOTH",
"118 324 LINE SMOOTH",
"118 116 OFFCURVE",
"260 -24 OFFCURVE",
"460 -24 CURVE SMOOTH"
);
},
{
closed = 1;
nodes = (
"320 86 OFFCURVE",
"228 182 OFFCURVE",
"228 324 CURVE SMOOTH",
"228 758 LINE SMOOTH",
"228 900 OFFCURVE",
"320 994 OFFCURVE",
"460 994 CURVE SMOOTH",
"600 994 OFFCURVE",
"688 900 OFFCURVE",
"688 758 CURVE SMOOTH",
"688 324 LINE SMOOTH",
"688 182 OFFCURVE",
"600 86 OFFCURVE",
"460 86 CURVE SMOOTH"
);
},
{
closed = 1;
nodes = (
"798 758 LINE SMOOTH",
"798 900 OFFCURVE",
"890 994 OFFCURVE",
"1030 994 CURVE SMOOTH",
"1170 994 OFFCURVE",
"1258 900 OFFCURVE",
"1258 758 CURVE SMOOTH",
"1258 642 LINE",
"798 642 LINE"
);
}
);
width = 1478;
},
{
layerId = "60B18B06-8123-4D0C-85E3-2DE7B5C03586";
paths = (
{
closed = 1;
nodes = (
"556 -26 OFFCURVE",
"652 20 OFFCURVE",
"716 104 CURVE",
"610 104 LINE",
"670 20 OFFCURVE",
"766 -26 OFFCURVE",
"886 -26 CURVE SMOOTH",
"1100 -26 OFFCURVE",
"1236 122 OFFCURVE",
"1236 344 CURVE SMOOTH",
"1236 364 LINE",
"986 364 LINE",
"986 324 LINE SMOOTH",
"986 264 OFFCURVE",
"950 224 OFFCURVE",
"886 224 CURVE SMOOTH",
"822 224 OFFCURVE",
"786 264 OFFCURVE",
"786 324 CURVE SMOOTH",
"786 486 LINE",
"1236 486 LINE",
"1236 756 LINE SMOOTH",
"1236 978 OFFCURVE",
"1100 1126 OFFCURVE",
"886 1126 CURVE SMOOTH",
"766 1126 OFFCURVE",
"670 1080 OFFCURVE",
"610 996 CURVE",
"716 996 LINE",
"652 1080 OFFCURVE",
"556 1126 OFFCURVE",
"436 1126 CURVE SMOOTH",
"222 1126 OFFCURVE",
"86 978 OFFCURVE",
"86 756 CURVE SMOOTH",
"86 344 LINE SMOOTH",
"86 122 OFFCURVE",
"222 -26 OFFCURVE",
"436 -26 CURVE SMOOTH"
);
},
{
closed = 1;
nodes = (
"372 224 OFFCURVE",
"336 264 OFFCURVE",
"336 324 CURVE SMOOTH",
"336 776 LINE SMOOTH",
"336 836 OFFCURVE",
"372 876 OFFCURVE",
"436 876 CURVE SMOOTH",
"500 876 OFFCURVE",
"536 836 OFFCURVE",
"536 776 CURVE SMOOTH",
"536 324 LINE SMOOTH",
"536 264 OFFCURVE",
"500 224 OFFCURVE",
"436 224 CURVE SMOOTH"
);
},
{
closed = 1;
nodes = (
"786 776 LINE SMOOTH",
"786 836 OFFCURVE",
"822 876 OFFCURVE",
"886 876 CURVE SMOOTH",
"950 876 OFFCURVE",
"986 836 OFFCURVE",
"986 776 CURVE SMOOTH",
"986 716 LINE",
"786 716 LINE"
);
}
);
width = 1318;
}
);
leftKerningGroup = o;
leftMetricsKey = o;
rightKerningGroup = e;
rightMetricsKey = e;
unicode = 0153;
},
{
glyphname = p;
lastChange = "2019-11-13 16:16:32 +0000";
layers = (
{
anchors = (
{
name = bottom;
position = "{468, 0}";
},
{
name = top;
position = "{468, 1100}";
}
);
layerId = "60B18B06-8123-4D0C-85E3-2DE7B5C03586";
paths = (
{
closed = 1;
nodes = (
"368 -360 LINE",
"368 168 LINE",
"324 110 LINE",
"366 24 OFFCURVE",
"442 -26 OFFCURVE",
"554 -26 CURVE SMOOTH",
"684 -26 OFFCURVE",
"818 42 OFFCURVE",
"818 324 CURVE SMOOTH",
"818 776 LINE SMOOTH",
"818 1058 OFFCURVE",
"684 1126 OFFCURVE",
"554 1126 CURVE SMOOTH",
"442 1126 OFFCURVE",
"366 1076 OFFCURVE",
"324 990 CURVE",
"368 932 LINE",
"368 1100 LINE",
"118 1100 LINE",
"118 -360 LINE"
);
},
{
closed = 1;
nodes = (
"404 224 OFFCURVE",
"368 264 OFFCURVE",
"368 324 CURVE SMOOTH",
"368 776 LINE SMOOTH",
"368 836 OFFCURVE",
"404 876 OFFCURVE",
"468 876 CURVE SMOOTH",
"532 876 OFFCURVE",
"568 836 OFFCURVE",
"568 776 CURVE SMOOTH",
"568 324 LINE SMOOTH",
"568 264 OFFCURVE",
"532 224 OFFCURVE",
"468 224 CURVE SMOOTH"
);
}
);
width = 916;
},
{
anchors = (
{
name = bottom;
position = "{488, 0}";
},
{
name = top;
position = "{488, 1080}";
}
);
hints = (
{
horizontal = 1;
origin = "{0, 5}";
target = "{1, 13}";
type = Stem;
},
{
horizontal = 1;
origin = "{0, 12}";
target = "{1, 6}";
type = Stem;
},
{
horizontal = 1;
origin = "{0, 18}";
target = "{1, 6}";
type = Stem;
}
);
layerId = "DDDB0B36-051A-43AE-9F30-611505482296";
paths = (
{
closed = 1;
nodes = (
"260 -360 LINE",
"260 132 LINE",
"242 108 LINE",
"293 25 OFFCURVE",
"377 -24 OFFCURVE",
"492 -24 CURVE SMOOTH",
"687 -24 OFFCURVE",
"826 116 OFFCURVE",
"826 324 CURVE SMOOTH",
"826 758 LINE SMOOTH",
"826 964 OFFCURVE",
"687 1104 OFFCURVE",
"492 1104 CURVE SMOOTH",
"377 1104 OFFCURVE",
"293 1055 OFFCURVE",
"242 972 CURVE",
"260 948 LINE",
"260 1080 LINE",
"150 1080 LINE",
"150 -360 LINE"
);
},
{
closed = 1;
nodes = (
"343 86 OFFCURVE",
"260 180 OFFCURVE",
"260 322 CURVE SMOOTH",
"260 758 LINE SMOOTH",
"260 900 OFFCURVE",
"343 994 OFFCURVE",
"486 994 CURVE SMOOTH",
"629 994 OFFCURVE",
"716 900 OFFCURVE",
"716 758 CURVE SMOOTH",
"716 324 LINE SMOOTH",
"716 182 OFFCURVE",
"629 86 OFFCURVE",
"485 86 CURVE SMOOTH"
);
}
);
width = 944;
}
);
leftKerningGroup = n;
note = p;
rightKerningGroup = o;
unicode = 0070;
},
{
glyphname = thorn;
lastChange = "2019-11-13 16:16:32 +0000";
layers = (
{
anchors = (
{
name = bottom;
position = "{488, 0}";
},
{
name = top;
position = "{488, 1080}";
}
);
hints = (
{
horizontal = 1;
origin = "{0, 5}";
target = "{1, 13}";
type = Stem;
},
{
horizontal = 1;
origin = "{0, 12}";
target = "{1, 6}";
type = Stem;
},
{
horizontal = 1;
origin = "{0, 18}";
target = down;
type = TopGhost;
}
);
layerId = "DDDB0B36-051A-43AE-9F30-611505482296";
paths = (
{
closed = 1;
nodes = (
"260 -360 LINE",
"260 132 LINE",
"242 108 LINE",
"293 25 OFFCURVE",
"377 -24 OFFCURVE",
"492 -24 CURVE SMOOTH",
"687 -24 OFFCURVE",
"826 116 OFFCURVE",
"826 324 CURVE SMOOTH",
"826 758 LINE SMOOTH",
"826 964 OFFCURVE",
"687 1104 OFFCURVE",
"492 1104 CURVE SMOOTH",
"377 1104 OFFCURVE",
"293 1055 OFFCURVE",
"242 972 CURVE",
"260 948 LINE",
"260 1500 LINE",
"150 1500 LINE",
"150 -360 LINE"
);
},
{
closed = 1;
nodes = (
"343 86 OFFCURVE",
"260 180 OFFCURVE",
"260 322 CURVE SMOOTH",
"260 758 LINE SMOOTH",
"260 900 OFFCURVE",
"343 994 OFFCURVE",
"486 994 CURVE SMOOTH",
"629 994 OFFCURVE",
"716 900 OFFCURVE",
"716 758 CURVE SMOOTH",
"716 324 LINE SMOOTH",
"716 182 OFFCURVE",
"629 86 OFFCURVE",
"485 86 CURVE SMOOTH"
);
}
);
width = 944;
},
{
anchors = (
{
name = bottom;
position = "{468, 0}";
},
{
name = top;
position = "{468, 1100}";
}
);
layerId = "60B18B06-8123-4D0C-85E3-2DE7B5C03586";
paths = (
{
closed = 1;
nodes = (
"368 -360 LINE",
"368 168 LINE",
"324 110 LINE",
"366 24 OFFCURVE",
"442 -26 OFFCURVE",
"554 -26 CURVE SMOOTH",
"684 -26 OFFCURVE",
"818 42 OFFCURVE",
"818 324 CURVE SMOOTH",
"818 776 LINE SMOOTH",
"818 1058 OFFCURVE",
"684 1126 OFFCURVE",
"554 1126 CURVE SMOOTH",
"442 1126 OFFCURVE",
"366 1076 OFFCURVE",
"324 990 CURVE",
"368 932 LINE",
"368 1500 LINE",
"118 1500 LINE",
"118 -360 LINE"
);
},
{
closed = 1;
nodes = (
"404 224 OFFCURVE",
"368 264 OFFCURVE",
"368 324 CURVE SMOOTH",
"368 776 LINE SMOOTH",
"368 836 OFFCURVE",
"404 876 OFFCURVE",
"468 876 CURVE SMOOTH",
"532 876 OFFCURVE",
"568 836 OFFCURVE",
"568 776 CURVE SMOOTH",
"568 324 LINE SMOOTH",
"568 264 OFFCURVE",
"532 224 OFFCURVE",
"468 224 CURVE SMOOTH"
);
}
);
width = 916;
}
);
leftKerningGroup = h;
rightKerningGroup = o;
unicode = 00FE;
},
{
glyphname = q;
lastChange = "2019-11-13 16:16:32 +0000";
layers = (
{
layerId = "60B18B06-8123-4D0C-85E3-2DE7B5C03586";
paths = (
{
closed = 1;
nodes = (
"798 -340 LINE",
"798 1100 LINE",
"548 1100 LINE",
"548 932 LINE",
"592 990 LINE",
"550 1076 OFFCURVE",
"474 1126 OFFCURVE",
"362 1126 CURVE SMOOTH",
"232 1126 OFFCURVE",
"98 1058 OFFCURVE",
"98 776 CURVE SMOOTH",
"98 324 LINE SMOOTH",
"98 42 OFFCURVE",
"232 -26 OFFCURVE",
"362 -26 CURVE SMOOTH",
"474 -26 OFFCURVE",
"550 24 OFFCURVE",
"592 110 CURVE",
"548 168 LINE",
"548 -340 LINE"
);
},
{
closed = 1;
nodes = (
"384 224 OFFCURVE",
"348 264 OFFCURVE",
"348 324 CURVE SMOOTH",
"348 776 LINE SMOOTH",
"348 836 OFFCURVE",
"384 876 OFFCURVE",
"448 876 CURVE SMOOTH",
"512 876 OFFCURVE",
"548 836 OFFCURVE",
"548 776 CURVE SMOOTH",
"548 324 LINE SMOOTH",
"548 264 OFFCURVE",
"512 224 OFFCURVE",
"448 224 CURVE SMOOTH"
);
}
);
width = 916;
},
{
hints = (
{
horizontal = 1;
origin = "{0, 14}";
target = "{1, 13}";
type = Stem;
},
{
horizontal = 1;
origin = "{0, 2}";
target = "{1, 6}";
type = Stem;
},
{
horizontal = 1;
origin = "{0, 7}";
target = "{1, 6}";
type = Stem;
}
);
layerId = "DDDB0B36-051A-43AE-9F30-611505482296";
paths = (
{
closed = 1;
nodes = (
"794 -360 LINE",
"794 1080 LINE",
"684 1080 LINE",
"684 948 LINE",
"702 972 LINE",
"651 1055 OFFCURVE",
"567 1104 OFFCURVE",
"452 1104 CURVE SMOOTH",
"257 1104 OFFCURVE",
"118 964 OFFCURVE",
"118 758 CURVE SMOOTH",
"118 324 LINE SMOOTH",
"118 116 OFFCURVE",
"257 -24 OFFCURVE",
"452 -24 CURVE SMOOTH",
"567 -24 OFFCURVE",
"651 25 OFFCURVE",
"702 108 CURVE",
"684 132 LINE",
"684 -360 LINE"
);
},
{
closed = 1;
nodes = (
"315 86 OFFCURVE",
"228 182 OFFCURVE",
"228 324 CURVE SMOOTH",
"228 758 LINE SMOOTH",
"228 900 OFFCURVE",
"315 994 OFFCURVE",
"458 994 CURVE SMOOTH",
"601 994 OFFCURVE",
"684 900 OFFCURVE",
"684 758 CURVE SMOOTH",
"684 322 LINE SMOOTH",
"684 180 OFFCURVE",
"601 86 OFFCURVE",
"459 86 CURVE SMOOTH"
);
}
);
width = 944;
}
);
leftKerningGroup = o;
note = q;
rightKerningGroup = u;
unicode = 0071;
},
{
glyphname = r;
lastChange = "2019-11-13 16:16:32 +0000";
layers = (
{
anchors = (
{
name = bottom;
position = "{242, 0}";
},
{
name = top;
position = "{368, 1100}";
}
);
layerId = "60B18B06-8123-4D0C-85E3-2DE7B5C03586";
paths = (
{
closed = 1;
nodes = (
"368 0 LINE",
"368 776 LINE SMOOTH",
"368 836 OFFCURVE",
"404 864 OFFCURVE",
"468 864 CURVE SMOOTH",
"604 864 LINE",
"604 1114 LINE",
"554 1114 LINE SMOOTH",
"448 1114 OFFCURVE",
"366 1068 OFFCURVE",
"322 974 CURVE",
"368 920 LINE",
"368 1100 LINE",
"118 1100 LINE",
"118 0 LINE"
);
}
);
width = 604;
},
{
anchors = (
{
name = bottom;
position = "{204, 0}";
},
{
name = top;
position = "{346, 1080}";
}
);
hints = (
{
horizontal = 1;
origin = "{0, 14}";
target = up;
type = BottomGhost;
},
{
horizontal = 1;
origin = "{0, 7}";
target = "{0, 4}";
type = Stem;
},
{
horizontal = 1;
origin = "{0, 13}";
target = down;
type = TopGhost;
}
);
layerId = "DDDB0B36-051A-43AE-9F30-611505482296";
paths = (
{
closed = 1;
nodes = (
"260 0 LINE",
"260 746 LINE SMOOTH",
"260 888 OFFCURVE",
"348 982 OFFCURVE",
"482 982 CURVE SMOOTH",
"540 982 LINE",
"540 1092 LINE",
"494 1092 LINE SMOOTH",
"382 1092 OFFCURVE",
"294 1042 OFFCURVE",
"242 954 CURVE",
"260 932 LINE",
"260 1080 LINE",
"150 1080 LINE",
"150 0 LINE"
);
}
);
width = 552;
}
);
leftKerningGroup = n;
note = r;
rightKerningGroup = r;
unicode = 0072;
},
{
glyphname = s;
lastChange = "2019-11-13 16:16:32 +0000";
layers = (
{
anchors = (
{
name = bottom;
position = "{420, 0}";
},
{
name = top;
position = "{420, 1100}";
}
);
layerId = "60B18B06-8123-4D0C-85E3-2DE7B5C03586";
paths = (
{
closed = 1;
nodes = (
"634 -26 OFFCURVE",
"770 110 OFFCURVE",
"770 347 CURVE SMOOTH",
"770 591 OFFCURVE",
"625 620 OFFCURVE",
"420 666 CURVE SMOOTH",
"341 684 OFFCURVE",
"320 711 OFFCURVE",
"320 766 CURVE SMOOTH",
"320 837 OFFCURVE",
"356 876 OFFCURVE",
"420 876 CURVE SMOOTH",
"484 876 OFFCURVE",
"520 836 OFFCURVE",
"520 776 CURVE SMOOTH",
"520 736 LINE",
"770 736 LINE",
"770 756 LINE SMOOTH",
"770 978 OFFCURVE",
"636 1126 OFFCURVE",
"416 1126 CURVE SMOOTH",
"206 1126 OFFCURVE",
"70 992 OFFCURVE",
"70 755 CURVE SMOOTH",
"70 517 OFFCURVE",
"206 483 OFFCURVE",
"420 436 CURVE SMOOTH",
"499 418 OFFCURVE",
"520 391 OFFCURVE",
"520 336 CURVE SMOOTH",
"520 265 OFFCURVE",
"484 224 OFFCURVE",
"420 224 CURVE SMOOTH",
"356 224 OFFCURVE",
"320 264 OFFCURVE",
"320 324 CURVE SMOOTH",
"320 364 LINE",
"70 364 LINE",
"70 344 LINE SMOOTH",
"70 123 OFFCURVE",
"204 -26 OFFCURVE",
"424 -26 CURVE SMOOTH"
);
}
);
width = 838;
},
{
anchors = (
{
name = bottom;
position = "{426, 0}";
},
{
name = top;
position = "{426, 1080}";
}
);
hints = (
{
horizontal = 1;
origin = "{0, 41}";
target = "{0, 32}";
type = Stem;
},
{
horizontal = 1;
origin = "{0, 26}";
target = "{0, 5}";
type = Stem;
},
{
horizontal = 1;
origin = "{0, 20}";
target = "{0, 11}";
type = Stem;
}
);
layerId = "DDDB0B36-051A-43AE-9F30-611505482296";
paths = (
{
closed = 1;
nodes = (
"628 -24 OFFCURVE",
"756 92 OFFCURVE",
"756 303 CURVE SMOOTH",
"756 521 OFFCURVE",
"619 555 OFFCURVE",
"428 594 CURVE SMOOTH",
"293 621 OFFCURVE",
"206 641 OFFCURVE",
"206 780 CURVE SMOOTH",
"206 919 OFFCURVE",
"294 994 OFFCURVE",
"425 994 CURVE SMOOTH",
"559 994 OFFCURVE",
"646 916 OFFCURVE",
"646 794 CURVE SMOOTH",
"646 756 LINE",
"756 756 LINE",
"756 794 LINE SMOOTH",
"756 980 OFFCURVE",
"626 1104 OFFCURVE",
"424 1104 CURVE SMOOTH",
"228 1104 OFFCURVE",
"96 988 OFFCURVE",
"96 774 CURVE SMOOTH",
"96 555 OFFCURVE",
"234 527 OFFCURVE",
"428 486 CURVE SMOOTH",
"559 459 OFFCURVE",
"646 438 OFFCURVE",
"646 298 CURVE SMOOTH",
"646 160 OFFCURVE",
"562 86 OFFCURVE",
"433 86 CURVE SMOOTH",
"298 86 OFFCURVE",
"206 166 OFFCURVE",
"206 286 CURVE SMOOTH",
"206 328 LINE",
"96 328 LINE",
"96 288 LINE SMOOTH",
"96 100 OFFCURVE",
"232 -24 OFFCURVE",
"434 -24 CURVE SMOOTH"
);
}
);
width = 852;
}
);
leftKerningGroup = s;
note = s;
rightKerningGroup = s;
unicode = 0073;
},
{
glyphname = germandbls;
lastChange = "2019-11-13 16:16:32 +0000";
layers = (
{
hints = (
{
horizontal = 1;
origin = "{0, 23}";
target = "{0, 22}";
type = Stem;
},
{
horizontal = 1;
origin = "{0, 13}";
target = "{0, 12}";
type = Stem;
},
{
horizontal = 1;
origin = "{0, 39}";
target = "{0, 4}";
type = Stem;
}
);
layerId = "DDDB0B36-051A-43AE-9F30-611505482296";
paths = (
{
closed = 1;
nodes = (
"260 -240 LINE",
"260 1162 LINE SMOOTH",
"260 1318 OFFCURVE",
"356 1422 OFFCURVE",
"500 1422 CURVE SMOOTH",
"644 1422 OFFCURVE",
"740 1318 OFFCURVE",
"740 1162 CURVE SMOOTH",
"740 1060 LINE SMOOTH",
"740 928 OFFCURVE",
"660 840 OFFCURVE",
"540 840 CURVE SMOOTH",
"436 840 LINE",
"436 730 LINE",
"560 730 LINE SMOOTH",
"680 730 OFFCURVE",
"760 642 OFFCURVE",
"760 510 CURVE SMOOTH",
"760 330 LINE SMOOTH",
"760 198 OFFCURVE",
"680 110 OFFCURVE",
"560 110 CURVE SMOOTH",
"436 110 LINE",
"436 0 LINE",
"560 0 LINE SMOOTH",
"746 0 OFFCURVE",
"870 132 OFFCURVE",
"870 330 CURVE SMOOTH",
"870 510 LINE SMOOTH",
"870 648 OFFCURVE",
"806 756 OFFCURVE",
"708 808 CURVE",
"710 774 LINE",
"796 830 OFFCURVE",
"850 932 OFFCURVE",
"850 1060 CURVE SMOOTH",
"850 1162 LINE SMOOTH",
"850 1384 OFFCURVE",
"710 1532 OFFCURVE",
"500 1532 CURVE SMOOTH",
"290 1532 OFFCURVE",
"150 1384 OFFCURVE",
"150 1162 CURVE SMOOTH",
"150 -240 LINE"
);
}
);
width = 980;
},
{
layerId = "60B18B06-8123-4D0C-85E3-2DE7B5C03586";
paths = (
{
closed = 1;
nodes = (
"388 -240 LINE",
"388 1142 LINE SMOOTH",
"388 1214 OFFCURVE",
"436 1262 OFFCURVE",
"508 1262 CURVE SMOOTH",
"580 1262 OFFCURVE",
"628 1214 OFFCURVE",
"628 1142 CURVE SMOOTH",
"628 970 LINE SMOOTH",
"628 910 OFFCURVE",
"592 870 OFFCURVE",
"528 870 CURVE SMOOTH",
"488 870 LINE",
"488 600 LINE",
"548 600 LINE SMOOTH",
"612 600 OFFCURVE",
"648 560 OFFCURVE",
"648 500 CURVE SMOOTH",
"648 340 LINE SMOOTH",
"648 280 OFFCURVE",
"612 240 OFFCURVE",
"548 240 CURVE SMOOTH",
"484 240 LINE",
"484 -30 LINE",
"548 -30 LINE SMOOTH",
"774 -30 OFFCURVE",
"918 118 OFFCURVE",
"918 340 CURVE SMOOTH",
"918 500 LINE SMOOTH",
"918 630 OFFCURVE",
"866 734 OFFCURVE",
"782 800 CURVE",
"788 692 LINE",
"858 756 OFFCURVE",
"898 854 OFFCURVE",
"898 970 CURVE SMOOTH",
"898 1142 LINE SMOOTH",
"898 1376 OFFCURVE",
"742 1532 OFFCURVE",
"508 1532 CURVE SMOOTH",
"274 1532 OFFCURVE",
"118 1376 OFFCURVE",
"118 1142 CURVE SMOOTH",
"118 -240 LINE"
);
}
);
width = 1004;
}
);
leftKerningGroup = I;
rightKerningGroup = B;
unicode = 00DF;
},
{
glyphname = longs;
lastChange = "2019-11-13 16:16:32 +0000";
layers = (
{
hints = (
{
horizontal = 1;
origin = "{0, 15}";
target = up;
type = BottomGhost;
},
{
horizontal = 1;
origin = "{0, 12}";
target = "{0, 13}";
type = Stem;
},
{
horizontal = 1;
origin = "{0, 7}";
target = "{0, 4}";
type = Stem;
}
);
layerId = "DDDB0B36-051A-43AE-9F30-611505482296";
paths = (
{
closed = 1;
nodes = (
"326 0 LINE",
"326 1152 LINE SMOOTH",
"326 1306 OFFCURVE",
"418 1410 OFFCURVE",
"558 1410 CURVE SMOOTH",
"622 1410 LINE",
"622 1520 LINE",
"558 1520 LINE SMOOTH",
"352 1520 OFFCURVE",
"216 1370 OFFCURVE",
"216 1152 CURVE SMOOTH",
"216 1080 LINE",
"14 1080 LINE",
"14 974 LINE",
"216 974 LINE",
"216 0 LINE"
);
}
);
width = 536;
},
{
layerId = "60B18B06-8123-4D0C-85E3-2DE7B5C03586";
paths = (
{
closed = 1;
nodes = (
"450 0 LINE",
"450 1170 LINE SMOOTH",
"450 1230 OFFCURVE",
"486 1270 OFFCURVE",
"550 1270 CURVE SMOOTH",
"660 1270 LINE",
"660 1520 LINE",
"550 1520 LINE SMOOTH",
"336 1520 OFFCURVE",
"200 1372 OFFCURVE",
"200 1170 CURVE SMOOTH",
"200 1100 LINE",
"0 1100 LINE",
"0 870 LINE",
"200 870 LINE",
"200 0 LINE"
);
}
);
width = 608;
}
);
leftKerningGroup = f;
rightKerningGroup = f;
unicode = 017F;
},
{
glyphname = t;
lastChange = "2019-11-13 16:16:32 +0000";
layers = (
{
anchors = (
{
name = bottom;
position = "{486, 0}";
},
{
name = center;
position = "{330, 550}";
},
{
name = top;
position = "{330, 1100}";
}
);
layerId = "60B18B06-8123-4D0C-85E3-2DE7B5C03586";
paths = (
{
closed = 1;
nodes = (
"638 -14 LINE",
"638 236 LINE",
"528 236 LINE SMOOTH",
"464 236 OFFCURVE",
"428 276 OFFCURVE",
"428 336 CURVE SMOOTH",
"428 870 LINE",
"638 870 LINE",
"638 1100 LINE",
"428 1100 LINE",
"428 1360 LINE",
"178 1360 LINE",
"178 1100 LINE",
"-2 1100 LINE",
"-2 870 LINE",
"178 870 LINE",
"178 336 LINE SMOOTH",
"178 114 OFFCURVE",
"314 -14 OFFCURVE",
"528 -14 CURVE SMOOTH"
);
}
);
width = 684;
},
{
anchors = (
{
name = bottom;
position = "{480, 0}";
},
{
name = center;
position = "{332, 540}";
},
{
name = top;
position = "{332, 1080}";
}
);
hints = (
{
horizontal = 1;
origin = "{0, 19}";
target = "{0, 2}";
type = Stem;
},
{
horizontal = 1;
origin = "{0, 13}";
target = "{0, 14}";
type = Stem;
}
);
layerId = "DDDB0B36-051A-43AE-9F30-611505482296";
paths = (
{
closed = 1;
nodes = (
"616 -12 LINE",
"616 98 LINE",
"556 98 LINE SMOOTH",
"418 98 OFFCURVE",
"326 200 OFFCURVE",
"326 356 CURVE SMOOTH",
"326 976 LINE",
"616 976 LINE",
"616 1082 LINE",
"326 1082 LINE",
"326 1360 LINE",
"216 1360 LINE",
"216 1082 LINE",
"16 1082 LINE",
"16 976 LINE",
"216 976 LINE",
"216 356 LINE SMOOTH",
"216 134 OFFCURVE",
"352 -12 OFFCURVE",
"556 -12 CURVE SMOOTH"
);
}
);
width = 658;
}
);
leftKerningGroup = t;
note = t;
rightKerningGroup = t;
unicode = 0074;
},
{
glyphname = u;
lastChange = "2019-11-13 16:16:32 +0000";
layers = (
{
anchors = (
{
name = bottom;
position = "{464, 0}";
},
{
name = ogonek;
position = "{646, 0}";
},
{
name = top;
position = "{464, 1100}";
}
);
layerId = "60B18B06-8123-4D0C-85E3-2DE7B5C03586";
paths = (
{
closed = 1;
nodes = (
"484 -26 OFFCURVE",
"560 24 OFFCURVE",
"602 110 CURVE",
"558 168 LINE",
"558 0 LINE",
"808 0 LINE",
"808 1100 LINE",
"558 1100 LINE",
"558 324 LINE SMOOTH",
"558 264 OFFCURVE",
"522 224 OFFCURVE",
"458 224 CURVE SMOOTH",
"394 224 OFFCURVE",
"358 264 OFFCURVE",
"358 324 CURVE SMOOTH",
"358 1100 LINE",
"108 1100 LINE",
"108 324 LINE SMOOTH",
"108 42 OFFCURVE",
"242 -26 OFFCURVE",
"372 -26 CURVE SMOOTH"
);
}
);
width = 926;
},
{
anchors = (
{
name = bottom;
position = "{462, 0}";
},
{
name = ogonek;
position = "{696, 0}";
},
{
name = top;
position = "{462, 1080}";
}
);
hints = (
{
horizontal = 1;
origin = "{0, 20}";
target = "{0, 11}";
type = Stem;
},
{
horizontal = 1;
origin = "{0, 16}";
target = down;
type = TopGhost;
},
{
horizontal = 1;
origin = "{0, 11}";
target = "{0, 4}";
type = Stem;
}
);
layerId = "DDDB0B36-051A-43AE-9F30-611505482296";
paths = (
{
closed = 1;
nodes = (
"564 -24 OFFCURVE",
"652 26 OFFCURVE",
"704 114 CURVE",
"686 136 LINE",
"686 0 LINE",
"796 0 LINE",
"796 1080 LINE",
"686 1080 LINE",
"686 322 LINE SMOOTH",
"686 180 OFFCURVE",
"598 86 OFFCURVE",
"464 86 CURVE SMOOTH",
"334 86 OFFCURVE",
"246 180 OFFCURVE",
"246 322 CURVE SMOOTH",
"246 1080 LINE",
"136 1080 LINE",
"136 322 LINE SMOOTH",
"136 111 OFFCURVE",
"265 -24 OFFCURVE",
"451 -24 CURVE SMOOTH"
);
}
);
width = 946;
}
);
leftKerningGroup = u;
note = u;
rightKerningGroup = u;
unicode = 0075;
},
{
glyphname = v;
lastChange = "2019-11-13 16:16:32 +0000";
layers = (
{
layerId = "60B18B06-8123-4D0C-85E3-2DE7B5C03586";
paths = (
{
closed = 1;
nodes = (
"576 0 LINE",
"854 1100 LINE",
"582 1100 LINE",
"404 290 LINE",
"458 290 LINE",
"272 1100 LINE",
"0 1100 LINE",
"284 0 LINE"
);
}
);
width = 856;
},
{
hints = (
{
horizontal = 1;
origin = "{0, 7}";
target = up;
type = BottomGhost;
},
{
horizontal = 1;
origin = "{0, 6}";
target = down;
type = TopGhost;
}
);
layerId = "DDDB0B36-051A-43AE-9F30-611505482296";
paths = (
{
closed = 1;
nodes = (
"484 0 LINE",
"800 1080 LINE",
"684 1080 LINE",
"400 110 LINE",
"428 110 LINE",
"144 1080 LINE",
"28 1080 LINE",
"346 0 LINE"
);
}
);
width = 828;
}
);
leftKerningGroup = v;
note = v;
rightKerningGroup = v;
unicode = 0076;
},
{
glyphname = w;
lastChange = "2019-11-13 16:16:32 +0000";
layers = (
{
anchors = (
{
name = bottom;
position = "{602, 0}";
},
{
name = top;
position = "{602, 1100}";
}
);
layerId = "60B18B06-8123-4D0C-85E3-2DE7B5C03586";
paths = (
{
closed = 1;
nodes = (
"472 0 LINE",
"628 734 LINE",
"578 734 LINE",
"730 0 LINE",
"986 0 LINE",
"1180 1100 LINE",
"920 1100 LINE",
"820 306 LINE",
"858 306 LINE",
"710 1100 LINE",
"492 1100 LINE",
"344 306 LINE",
"382 306 LINE",
"282 1100 LINE",
"22 1100 LINE",
"216 0 LINE"
);
}
);
width = 1202;
},
{
anchors = (
{
name = bottom;
position = "{536, 0}";
},
{
name = top;
position = "{536, 1080}";
}
);
hints = (
{
horizontal = 1;
origin = "{0, 14}";
target = down;
type = TopGhost;
}
);
layerId = "DDDB0B36-051A-43AE-9F30-611505482296";
paths = (
{
closed = 1;
nodes = (
"366 0 LINE",
"546 870 LINE",
"526 870 LINE",
"704 0 LINE",
"838 0 LINE",
"1004 1080 LINE",
"888 1080 LINE",
"762 110 LINE",
"778 112 LINE",
"590 1080 LINE",
"480 1080 LINE",
"292 112 LINE",
"308 110 LINE",
"180 1080 LINE",
"66 1080 LINE",
"232 0 LINE"
);
}
);
width = 1070;
}
);
leftKerningGroup = w;
note = w;
rightKerningGroup = w;
unicode = 0077;
},
{
glyphname = x;
lastChange = "2019-11-13 16:16:32 +0000";
layers = (
{
layerId = "60B18B06-8123-4D0C-85E3-2DE7B5C03586";
paths = (
{
closed = 1;
nodes = (
"256 0 LINE",
"468 404 LINE",
"356 404 LINE",
"568 0 LINE",
"824 0 LINE",
"536 550 LINE",
"824 1100 LINE",
"568 1100 LINE",
"356 696 LINE",
"468 696 LINE",
"256 1100 LINE",
"0 1100 LINE",
"290 550 LINE",
"0 0 LINE"
);
}
);
width = 824;
},
{
hints = (
{
horizontal = 1;
origin = "{0, 13}";
target = up;
type = BottomGhost;
},
{
horizontal = 1;
origin = "{0, 11}";
target = down;
type = TopGhost;
}
);
layerId = "DDDB0B36-051A-43AE-9F30-611505482296";
paths = (
{
closed = 1;
nodes = (
"154 0 LINE",
"412 464 LINE",
"364 464 LINE",
"620 0 LINE",
"744 0 LINE",
"444 542 LINE",
"744 1080 LINE",
"620 1080 LINE",
"364 620 LINE",
"412 620 LINE",
"154 1080 LINE",
"30 1080 LINE",
"330 542 LINE",
"30 0 LINE"
);
}
);
width = 774;
}
);
note = x;
unicode = 0078;
},
{
glyphname = y;
lastChange = "2019-11-13 16:16:32 +0000";
layers = (
{
anchors = (
{
name = bottom;
position = "{426, 0}";
},
{
name = top;
position = "{426, 1100}";
}
);
layerId = "60B18B06-8123-4D0C-85E3-2DE7B5C03586";
paths = (
{
closed = 1;
nodes = (
"456 -360 LINE",
"852 1100 LINE",
"580 1100 LINE",
"402 310 LINE",
"456 310 LINE",
"270 1100 LINE",
"-2 1100 LINE",
"300 0 LINE",
"204 -360 LINE"
);
}
);
width = 850;
},
{
anchors = (
{
name = bottom;
position = "{416, 0}";
},
{
name = top;
position = "{416, 1080}";
}
);
hints = (
{
horizontal = 1;
origin = "{0, 6}";
target = down;
type = TopGhost;
}
);
layerId = "DDDB0B36-051A-43AE-9F30-611505482296";
paths = (
{
closed = 1;
nodes = (
"376 -360 LINE",
"802 1080 LINE",
"680 1080 LINE",
"402 122 LINE",
"430 122 LINE",
"150 1080 LINE",
"30 1080 LINE",
"350 -30 LINE",
"252 -360 LINE"
);
}
);
width = 830;
}
);
leftKerningGroup = y;
note = y;
rightKerningGroup = v;
unicode = 0079;
},
{
glyphname = z;
lastChange = "2019-11-13 16:16:32 +0000";
layers = (
{
anchors = (
{
name = bottom;
position = "{404, 0}";
},
{
name = top;
position = "{404, 1100}";
}
);
layerId = "60B18B06-8123-4D0C-85E3-2DE7B5C03586";
paths = (
{
closed = 1;
nodes = (
"752 0 LINE",
"752 250 LINE",
"240 250 LINE",
"300 146 LINE",
"752 904 LINE",
"752 1100 LINE",
"52 1100 LINE",
"52 850 LINE",
"582 850 LINE",
"524 954 LINE",
"52 196 LINE",
"52 0 LINE"
);
}
);
width = 804;
},
{
anchors = (
{
name = bottom;
position = "{372, 0}";
},
{
name = top;
position = "{372, 1080}";
}
);
hints = (
{
horizontal = 1;
origin = "{0, 11}";
target = "{0, 2}";
type = Stem;
},
{
horizontal = 1;
origin = "{0, 6}";
target = "{0, 7}";
type = Stem;
}
);
layerId = "DDDB0B36-051A-43AE-9F30-611505482296";
paths = (
{
closed = 1;
nodes = (
"678 0 LINE",
"678 110 LINE",
"140 110 LINE",
"166 66 LINE",
"694 994 LINE",
"694 1080 LINE",
"62 1080 LINE",
"62 970 LINE",
"602 970 LINE",
"576 1012 LINE",
"46 86 LINE",
"46 0 LINE"
);
}
);
width = 740;
}
);
leftKerningGroup = z;
note = z;
rightKerningGroup = z;
unicode = 007A;
},
{
glyphname = a.ss01;
lastChange = "2019-11-13 16:16:32 +0000";
layers = (
{
anchors = (
{
name = bottom;
position = "{458, 0}";
},
{
name = top;
position = "{458, 1100}";
}
);
layerId = "60B18B06-8123-4D0C-85E3-2DE7B5C03586";
paths = (
{
closed = 1;
nodes = (
"474 -26 OFFCURVE",
"550 24 OFFCURVE",
"592 110 CURVE",
"548 168 LINE",
"548 0 LINE",
"798 0 LINE",
"798 1100 LINE",
"548 1100 LINE",
"548 932 LINE",
"592 990 LINE",
"550 1076 OFFCURVE",
"474 1126 OFFCURVE",
"362 1126 CURVE SMOOTH",
"232 1126 OFFCURVE",
"98 1058 OFFCURVE",
"98 776 CURVE SMOOTH",
"98 324 LINE SMOOTH",
"98 42 OFFCURVE",
"232 -26 OFFCURVE",
"362 -26 CURVE SMOOTH"
);
},
{
closed = 1;
nodes = (
"384 224 OFFCURVE",
"348 264 OFFCURVE",
"348 324 CURVE SMOOTH",
"348 776 LINE SMOOTH",
"348 836 OFFCURVE",
"384 876 OFFCURVE",
"448 876 CURVE SMOOTH",
"512 876 OFFCURVE",
"548 836 OFFCURVE",
"548 776 CURVE SMOOTH",
"548 324 LINE SMOOTH",
"548 264 OFFCURVE",
"512 224 OFFCURVE",
"448 224 CURVE SMOOTH"
);
}
);
width = 916;
},
{
anchors = (
{
name = bottom;
position = "{478, 0}";
},
{
name = top;
position = "{478, 1080}";
}
);
hints = (
{
horizontal = 1;
origin = "{0, 19}";
target = "{1, 13}";
type = Stem;
},
{
horizontal = 1;
origin = "{0, 7}";
target = "{1, 6}";
type = Stem;
},
{
horizontal = 1;
origin = "{0, 12}";
target = "{1, 6}";
type = Stem;
},
{
horizontal = 1;
origin = "{1, 13}";
target = "{0, 4}";
type = Stem;
}
);
layerId = "DDDB0B36-051A-43AE-9F30-611505482296";
paths = (
{
closed = 1;
nodes = (
"569 -24 OFFCURVE",
"653 25 OFFCURVE",
"704 108 CURVE",
"686 132 LINE",
"686 0 LINE",
"796 0 LINE",
"796 1080 LINE",
"686 1080 LINE",
"686 948 LINE",
"704 972 LINE",
"653 1055 OFFCURVE",
"569 1104 OFFCURVE",
"454 1104 CURVE SMOOTH",
"259 1104 OFFCURVE",
"120 964 OFFCURVE",
"120 758 CURVE SMOOTH",
"120 324 LINE SMOOTH",
"120 116 OFFCURVE",
"259 -24 OFFCURVE",
"454 -24 CURVE SMOOTH"
);
},
{
closed = 1;
nodes = (
"317 86 OFFCURVE",
"230 182 OFFCURVE",
"230 324 CURVE SMOOTH",
"230 758 LINE SMOOTH",
"230 900 OFFCURVE",
"317 994 OFFCURVE",
"460 994 CURVE SMOOTH",
"603 994 OFFCURVE",
"686 900 OFFCURVE",
"686 758 CURVE SMOOTH",
"686 322 LINE SMOOTH",
"686 180 OFFCURVE",
"603 86 OFFCURVE",
"461 86 CURVE SMOOTH"
);
}
);
width = 946;
}
);
leftKerningGroup = o;
note = a;
rightKerningGroup = d;
},
{
glyphname = y.ss02;
lastChange = "2019-11-13 16:16:32 +0000";
layers = (
{
anchors = (
{
name = bottom;
position = "{436, -366}";
},
{
name = top;
position = "{436, 1100}";
}
);
layerId = "60B18B06-8123-4D0C-85E3-2DE7B5C03586";
paths = (
{
closed = 1;
nodes = (
"648 -366 OFFCURVE",
"786 -220 OFFCURVE",
"786 0 CURVE SMOOTH",
"786 1100 LINE",
"536 1100 LINE",
"536 464 LINE SMOOTH",
"536 404 OFFCURVE",
"500 364 OFFCURVE",
"436 364 CURVE SMOOTH",
"372 364 OFFCURVE",
"336 404 OFFCURVE",
"336 464 CURVE SMOOTH",
"336 1100 LINE",
"86 1100 LINE",
"86 464 LINE SMOOTH",
"86 182 OFFCURVE",
"220 114 OFFCURVE",
"350 114 CURVE SMOOTH",
"462 114 OFFCURVE",
"538 164 OFFCURVE",
"580 250 CURVE",
"536 308 LINE",
"536 -16 LINE SMOOTH",
"536 -76 OFFCURVE",
"500 -116 OFFCURVE",
"436 -116 CURVE SMOOTH",
"372 -116 OFFCURVE",
"336 -76 OFFCURVE",
"336 -16 CURVE SMOOTH",
"336 48 LINE",
"86 48 LINE",
"86 4 LINE SMOOTH",
"86 -218 OFFCURVE",
"222 -366 OFFCURVE",
"436 -366 CURVE SMOOTH"
);
}
);
width = 904;
},
{
anchors = (
{
name = bottom;
position = "{446, -366}";
},
{
name = top;
position = "{450, 1080}";
}
);
hints = (
{
horizontal = 1;
origin = "{0, 34}";
target = "{0, 25}";
type = Stem;
},
{
horizontal = 1;
origin = "{0, 17}";
target = "{0, 8}";
type = Stem;
},
{
horizontal = 1;
origin = "{0, 13}";
target = down;
type = TopGhost;
}
);
layerId = "DDDB0B36-051A-43AE-9F30-611505482296";
paths = (
{
closed = 1;
nodes = (
"646 -366 OFFCURVE",
"788 -226 OFFCURVE",
"788 -18 CURVE SMOOTH",
"788 1080 LINE",
"678 1080 LINE",
"678 462 LINE SMOOTH",
"678 320 OFFCURVE",
"595 226 OFFCURVE",
"453 226 CURVE SMOOTH",
"309 226 OFFCURVE",
"222 322 OFFCURVE",
"222 464 CURVE SMOOTH",
"222 1080 LINE",
"112 1080 LINE",
"112 464 LINE SMOOTH",
"112 256 OFFCURVE",
"251 116 OFFCURVE",
"446 116 CURVE SMOOTH",
"561 116 OFFCURVE",
"645 165 OFFCURVE",
"696 248 CURVE",
"678 272 LINE",
"678 -18 LINE SMOOTH",
"678 -160 OFFCURVE",
"586 -256 OFFCURVE",
"446 -256 CURVE SMOOTH",
"306 -256 OFFCURVE",
"218 -160 OFFCURVE",
"218 -18 CURVE SMOOTH",
"218 2 LINE",
"108 2 LINE",
"108 -18 LINE SMOOTH",
"108 -226 OFFCURVE",
"246 -366 OFFCURVE",
"446 -366 CURVE SMOOTH"
);
}
);
width = 938;
}
);
leftKerningGroup = u;
note = u;
rightKerningGroup = u;
rightMetricsKey = j;
},
{
glyphname = ordfeminine;
lastChange = "2019-11-13 16:16:32 +0000";
layers = (
{
hints = (
{
horizontal = 1;
origin = "{0, 31}";
target = "{1, 12}";
type = Stem;
},
{
horizontal = 1;
origin = "{0, 9}";
target = "{0, 18}";
type = Stem;
}
);
layerId = "DDDB0B36-051A-43AE-9F30-611505482296";
paths = (
{
closed = 1;
nodes = (
"428 840 OFFCURVE",
"486 868 OFFCURVE",
"518 924 CURVE",
"502 944 LINE",
"502 854 LINE",
"590 854 LINE",
"590 1308 LINE SMOOTH",
"590 1434 OFFCURVE",
"506 1520 OFFCURVE",
"384 1520 CURVE SMOOTH",
"262 1520 OFFCURVE",
"178 1434 OFFCURVE",
"178 1308 CURVE SMOOTH",
"178 1294 LINE",
"266 1294 LINE",
"266 1312 LINE SMOOTH",
"266 1384 OFFCURVE",
"312 1432 OFFCURVE",
"384 1432 CURVE SMOOTH",
"456 1432 OFFCURVE",
"502 1384 OFFCURVE",
"502 1312 CURVE SMOOTH",
"502 1296 LINE SMOOTH",
"502 1212 OFFCURVE",
"390 1218 OFFCURVE",
"288 1178 CURVE SMOOTH",
"227 1154 OFFCURVE",
"166 1113 OFFCURVE",
"166 1016 CURVE SMOOTH",
"166 914 OFFCURVE",
"234 840 OFFCURVE",
"354 840 CURVE SMOOTH"
);
},
{
closed = 1;
nodes = (
"296 922 OFFCURVE",
"254 964 OFFCURVE",
"254 1022 CURVE SMOOTH",
"254 1076 OFFCURVE",
"288 1102 OFFCURVE",
"336 1118 CURVE SMOOTH",
"390 1137 OFFCURVE",
"454 1140 OFFCURVE",
"502 1170 CURVE",
"502 1056 LINE SMOOTH",
"502 972 OFFCURVE",
"456 922 OFFCURVE",
"372 922 CURVE SMOOTH"
);
}
);
width = 786;
},
{
layerId = "60B18B06-8123-4D0C-85E3-2DE7B5C03586";
paths = (
{
closed = 1;
nodes = (
"306 828 OFFCURVE",
"358 856 OFFCURVE",
"384 914 CURVE",
"356 948 LINE",
"356 844 LINE",
"512 844 LINE",
"512 1298 LINE SMOOTH",
"512 1430 OFFCURVE",
"432 1520 OFFCURVE",
"302 1520 CURVE SMOOTH",
"174 1520 OFFCURVE",
"92 1432 OFFCURVE",
"92 1298 CURVE SMOOTH",
"92 1272 LINE",
"248 1272 LINE",
"248 1310 LINE SMOOTH",
"248 1342 OFFCURVE",
"268 1364 OFFCURVE",
"302 1364 CURVE SMOOTH",
"336 1364 OFFCURVE",
"356 1342 OFFCURVE",
"356 1310 CURVE SMOOTH",
"356 1298 LINE SMOOTH",
"356 1229 OFFCURVE",
"256 1220 OFFCURVE",
"176 1174 CURVE SMOOTH",
"124 1144 OFFCURVE",
"80 1101 OFFCURVE",
"80 1010 CURVE SMOOTH",
"80 904 OFFCURVE",
"139 828 OFFCURVE",
"243 828 CURVE SMOOTH"
);
},
{
closed = 1;
nodes = (
"256 972 OFFCURVE",
"238 1002 OFFCURVE",
"238 1028 CURVE SMOOTH",
"238 1056 OFFCURVE",
"254 1070 OFFCURVE",
"280 1084 CURVE SMOOTH",
"309 1099 OFFCURVE",
"338 1106 OFFCURVE",
"356 1124 CURVE",
"356 1034 LINE SMOOTH",
"356 986 OFFCURVE",
"324 972 OFFCURVE",
"296 972 CURVE SMOOTH"
);
}
);
width = 618;
}
);
unicode = 00AA;
},
{
glyphname = ordmasculine;
lastChange = "2019-11-13 16:16:32 +0000";
layers = (
{
hints = (
{
horizontal = 1;
origin = "{0, 13}";
target = "{1, 13}";
type = Stem;
},
{
horizontal = 1;
origin = "{0, 6}";
target = "{1, 6}";
type = Stem;
}
);
layerId = "DDDB0B36-051A-43AE-9F30-611505482296";
paths = (
{
closed = 1;
nodes = (
"492 840 OFFCURVE",
"574 924 OFFCURVE",
"574 1052 CURVE SMOOTH",
"574 1308 LINE SMOOTH",
"574 1434 OFFCURVE",
"492 1520 OFFCURVE",
"370 1520 CURVE SMOOTH",
"248 1520 OFFCURVE",
"164 1434 OFFCURVE",
"164 1308 CURVE SMOOTH",
"164 1052 LINE SMOOTH",
"164 926 OFFCURVE",
"248 840 OFFCURVE",
"370 840 CURVE SMOOTH"
);
},
{
closed = 1;
nodes = (
"298 926 OFFCURVE",
"252 976 OFFCURVE",
"252 1048 CURVE SMOOTH",
"252 1312 LINE SMOOTH",
"252 1384 OFFCURVE",
"298 1432 OFFCURVE",
"370 1432 CURVE SMOOTH",
"442 1432 OFFCURVE",
"488 1384 OFFCURVE",
"488 1312 CURVE SMOOTH",
"488 1048 LINE SMOOTH",
"488 976 OFFCURVE",
"442 926 OFFCURVE",
"370 926 CURVE SMOOTH"
);
}
);
width = 738;
},
{
layerId = "60B18B06-8123-4D0C-85E3-2DE7B5C03586";
paths = (
{
closed = 1;
nodes = (
"434 828 OFFCURVE",
"516 920 OFFCURVE",
"516 1052 CURVE SMOOTH",
"516 1298 LINE SMOOTH",
"516 1432 OFFCURVE",
"432 1520 OFFCURVE",
"304 1520 CURVE SMOOTH",
"176 1520 OFFCURVE",
"94 1432 OFFCURVE",
"94 1298 CURVE SMOOTH",
"94 1052 LINE SMOOTH",
"94 918 OFFCURVE",
"176 828 OFFCURVE",
"304 828 CURVE SMOOTH"
);
},
{
closed = 1;
nodes = (
"270 986 OFFCURVE",
"252 1008 OFFCURVE",
"252 1038 CURVE SMOOTH",
"252 1310 LINE SMOOTH",
"252 1342 OFFCURVE",
"270 1364 OFFCURVE",
"304 1364 CURVE SMOOTH",
"338 1364 OFFCURVE",
"358 1342 OFFCURVE",
"358 1310 CURVE SMOOTH",
"358 1038 LINE SMOOTH",
"358 1006 OFFCURVE",
"338 986 OFFCURVE",
"304 986 CURVE SMOOTH"
);
}
);
width = 610;
}
);
unicode = 00BA;
},
{
glyphname = Delta;
lastChange = "2019-11-13 16:16:32 +0000";
layers = (
{
hints = (
{
horizontal = 1;
origin = "{0, 3}";
target = "{1, 2}";
type = Stem;
},
{
horizontal = 1;
origin = "{0, 2}";
target = down;
type = TopGhost;
}
);
layerId = "DDDB0B36-051A-43AE-9F30-611505482296";
paths = (
{
closed = 1;
nodes = (
"858 0 LINE",
"518 1500 LINE",
"402 1500 LINE",
"62 0 LINE"
);
},
{
closed = 1;
nodes = (
"460 1288 LINE",
"720 110 LINE",
"200 110 LINE"
);
}
);
width = 920;
},
{
layerId = "60B18B06-8123-4D0C-85E3-2DE7B5C03586";
paths = (
{
closed = 1;
nodes = (
"884 0 LINE",
"606 1500 LINE",
"314 1500 LINE",
"30 0 LINE"
);
},
{
closed = 1;
nodes = (
"460 998 LINE",
"568 270 LINE",
"348 270 LINE"
);
}
);
width = 914;
}
);
leftKerningGroup = A;
rightKerningGroup = A;
unicode = 0394;
},
{
glyphname = Omega;
lastChange = "2019-11-13 16:16:32 +0000";
layers = (
{
hints = (
{
horizontal = 1;
origin = "{0, 37}";
target = "{0, 36}";
type = Stem;
},
{
horizontal = 1;
origin = "{0, 27}";
target = "{0, 8}";
type = Stem;
}
);
layerId = "DDDB0B36-051A-43AE-9F30-611505482296";
paths = (
{
closed = 1;
nodes = (
"542 0 LINE",
"542 110 LINE",
"398 110 OFFCURVE",
"302 214 OFFCURVE",
"302 370 CURVE SMOOTH",
"302 1102 LINE SMOOTH",
"302 1294 OFFCURVE",
"422 1422 OFFCURVE",
"602 1422 CURVE SMOOTH",
"782 1422 OFFCURVE",
"902 1294 OFFCURVE",
"902 1102 CURVE SMOOTH",
"902 370 LINE SMOOTH",
"902 214 OFFCURVE",
"806 110 OFFCURVE",
"662 110 CURVE",
"662 0 LINE",
"1132 0 LINE",
"1132 110 LINE",
"874 110 LINE",
"904 88 LINE",
"972 154 OFFCURVE",
"1012 252 OFFCURVE",
"1012 370 CURVE SMOOTH",
"1012 1102 LINE SMOOTH",
"1012 1360 OFFCURVE",
"848 1532 OFFCURVE",
"602 1532 CURVE SMOOTH",
"356 1532 OFFCURVE",
"192 1360 OFFCURVE",
"192 1102 CURVE SMOOTH",
"192 370 LINE SMOOTH",
"192 252 OFFCURVE",
"232 154 OFFCURVE",
"300 88 CURVE",
"330 110 LINE",
"72 110 LINE",
"72 0 LINE"
);
}
);
width = 1204;
},
{
layerId = "60B18B06-8123-4D0C-85E3-2DE7B5C03586";
paths = (
{
closed = 1;
nodes = (
"528 0 LINE",
"528 270 LINE",
"464 270 OFFCURVE",
"428 310 OFFCURVE",
"428 370 CURVE SMOOTH",
"428 1102 LINE SMOOTH",
"428 1198 OFFCURVE",
"492 1262 OFFCURVE",
"588 1262 CURVE SMOOTH",
"684 1262 OFFCURVE",
"748 1198 OFFCURVE",
"748 1102 CURVE SMOOTH",
"748 370 LINE SMOOTH",
"748 310 OFFCURVE",
"712 270 OFFCURVE",
"648 270 CURVE",
"648 0 LINE",
"1118 0 LINE",
"1118 270 LINE",
"886 270 LINE",
"990 190 LINE",
"1004 254 OFFCURVE",
"1018 306 OFFCURVE",
"1018 370 CURVE SMOOTH",
"1018 1102 LINE SMOOTH",
"1018 1360 OFFCURVE",
"846 1532 OFFCURVE",
"588 1532 CURVE SMOOTH",
"330 1532 OFFCURVE",
"158 1360 OFFCURVE",
"158 1102 CURVE SMOOTH",
"158 370 LINE SMOOTH",
"158 306 OFFCURVE",
"172 254 OFFCURVE",
"186 190 CURVE",
"290 270 LINE",
"58 270 LINE",
"58 0 LINE"
);
}
);
width = 1176;
}
);
leftKerningGroup = O;
rightKerningGroup = O;
unicode = 03A9;
},
{
glyphname = pi;
lastChange = "2019-11-13 16:16:32 +0000";
layers = (
{
hints = (
{
horizontal = 1;
origin = "{0, 19}";
target = "{0, 2}";
type = Stem;
},
{
horizontal = 1;
origin = "{0, 9}";
target = "{0, 10}";
type = Stem;
},
{
horizontal = 1;
origin = "{0, 12}";
target = up;
type = BottomGhost;
}
);
layerId = "DDDB0B36-051A-43AE-9F30-611505482296";
paths = (
{
closed = 1;
nodes = (
"1016 -12 LINE",
"1016 98 LINE",
"956 98 LINE SMOOTH",
"818 98 OFFCURVE",
"726 200 OFFCURVE",
"726 356 CURVE SMOOTH",
"726 976 LINE",
"1016 976 LINE",
"1016 1082 LINE",
"16 1082 LINE",
"16 976 LINE",
"216 976 LINE",
"216 0 LINE",
"326 0 LINE",
"326 976 LINE",
"616 976 LINE",
"616 356 LINE SMOOTH",
"616 134 OFFCURVE",
"752 -12 OFFCURVE",
"956 -12 CURVE SMOOTH"
);
}
);
width = 1058;
},
{
layerId = "60B18B06-8123-4D0C-85E3-2DE7B5C03586";
paths = (
{
closed = 1;
nodes = (
"1018 -14 LINE",
"1018 236 LINE",
"948 236 LINE SMOOTH",
"884 236 OFFCURVE",
"848 276 OFFCURVE",
"848 336 CURVE SMOOTH",
"848 870 LINE",
"1018 870 LINE",
"1018 1100 LINE",
"-2 1100 LINE",
"-2 870 LINE",
"178 870 LINE",
"178 0 LINE",
"428 0 LINE",
"428 870 LINE",
"598 870 LINE",
"598 336 LINE SMOOTH",
"598 114 OFFCURVE",
"734 -14 OFFCURVE",
"948 -14 CURVE SMOOTH"
);
}
);
width = 1064;
}
);
leftKerningGroup = eta;
rightKerningGroup = iota;
unicode = 03C0;
},
{
glyphname = zero;
lastChange = "2019-11-13 16:16:32 +0000";
layers = (
{
layerId = "60B18B06-8123-4D0C-85E3-2DE7B5C03586";
paths = (
{
closed = 1;
nodes = (
"714 -32 OFFCURVE",
"858 116 OFFCURVE",
"858 338 CURVE SMOOTH",
"858 1162 LINE SMOOTH",
"858 1384 OFFCURVE",
"714 1532 OFFCURVE",
"488 1532 CURVE SMOOTH",
"262 1532 OFFCURVE",
"118 1384 OFFCURVE",
"118 1162 CURVE SMOOTH",
"118 338 LINE SMOOTH",
"118 116 OFFCURVE",
"262 -32 OFFCURVE",
"488 -32 CURVE SMOOTH"
);
},
{
closed = 1;
nodes = (
"424 238 OFFCURVE",
"388 278 OFFCURVE",
"388 338 CURVE SMOOTH",
"388 1162 LINE SMOOTH",
"388 1222 OFFCURVE",
"424 1262 OFFCURVE",
"488 1262 CURVE SMOOTH",
"552 1262 OFFCURVE",
"588 1222 OFFCURVE",
"588 1162 CURVE SMOOTH",
"588 338 LINE SMOOTH",
"588 278 OFFCURVE",
"552 238 OFFCURVE",
"488 238 CURVE SMOOTH"
);
},
{
closed = 1;
nodes = (
"274 238 LINE",
"424 238 LINE",
"704 1262 LINE",
"552 1262 LINE"
);
}
);
width = 976;
},
{
hints = (
{
horizontal = 1;
origin = "{0, 13}";
target = "{2, 0}";
type = Stem;
},
{
horizontal = 1;
origin = "{0, 6}";
target = "{1, 6}";
type = Stem;
}
);
layerId = "DDDB0B36-051A-43AE-9F30-611505482296";
paths = (
{
closed = 1;
nodes = (
"716 -32 OFFCURVE",
"856 116 OFFCURVE",
"856 338 CURVE SMOOTH",
"856 1162 LINE SMOOTH",
"856 1384 OFFCURVE",
"716 1532 OFFCURVE",
"506 1532 CURVE SMOOTH",
"296 1532 OFFCURVE",
"156 1384 OFFCURVE",
"156 1162 CURVE SMOOTH",
"156 338 LINE SMOOTH",
"156 116 OFFCURVE",
"296 -32 OFFCURVE",
"506 -32 CURVE SMOOTH"
);
},
{
closed = 1;
nodes = (
"362 78 OFFCURVE",
"266 182 OFFCURVE",
"266 338 CURVE SMOOTH",
"266 1162 LINE SMOOTH",
"266 1318 OFFCURVE",
"362 1422 OFFCURVE",
"506 1422 CURVE SMOOTH",
"650 1422 OFFCURVE",
"746 1318 OFFCURVE",
"746 1162 CURVE SMOOTH",
"746 338 LINE SMOOTH",
"746 182 OFFCURVE",
"650 78 OFFCURVE",
"506 78 CURVE SMOOTH"
);
},
{
closed = 1;
nodes = (
"282 78 LINE",
"362 78 LINE",
"730 1422 LINE",
"650 1422 LINE"
);
}
);
width = 1012;
}
);
note = zero;
unicode = 0030;
},
{
glyphname = one;
lastChange = "2019-11-13 16:16:32 +0000";
layers = (
{
layerId = "60B18B06-8123-4D0C-85E3-2DE7B5C03586";
paths = (
{
closed = 1;
nodes = (
"526 0 LINE",
"526 1500 LINE",
"256 1500 LINE",
"256 1478 LINE SMOOTH",
"256 1384 OFFCURVE",
"194 1328 OFFCURVE",
"88 1328 CURVE SMOOTH",
"22 1328 LINE",
"22 1058 LINE",
"256 1058 LINE",
"256 0 LINE"
);
}
);
width = 666;
},
{
hints = (
{
horizontal = 1;
origin = "{0, 10}";
target = up;
type = BottomGhost;
},
{
horizontal = 1;
origin = "{0, 8}";
target = "{0, 7}";
type = Stem;
}
);
layerId = "DDDB0B36-051A-43AE-9F30-611505482296";
paths = (
{
closed = 1;
nodes = (
"350 0 LINE",
"350 1500 LINE",
"240 1500 LINE",
"240 1478 LINE SMOOTH",
"240 1384 OFFCURVE",
"178 1328 OFFCURVE",
"72 1328 CURVE SMOOTH",
"46 1328 LINE",
"46 1218 LINE",
"240 1218 LINE",
"240 0 LINE"
);
}
);
width = 528;
}
);
note = one;
unicode = 0031;
},
{
glyphname = two;
lastChange = "2019-11-13 16:16:32 +0000";
layers = (
{
layerId = "60B18B06-8123-4D0C-85E3-2DE7B5C03586";
paths = (
{
closed = 1;
nodes = (
"816 0 LINE",
"816 270 LINE",
"240 270 LINE",
"362 148 LINE",
"362 300 LINE SMOOTH",
"362 576 OFFCURVE",
"816 590 OFFCURVE",
"816 962 CURVE SMOOTH",
"816 1162 LINE SMOOTH",
"816 1384 OFFCURVE",
"672 1532 OFFCURVE",
"446 1532 CURVE SMOOTH",
"220 1532 OFFCURVE",
"76 1384 OFFCURVE",
"76 1162 CURVE SMOOTH",
"76 1082 LINE",
"346 1082 LINE",
"346 1162 LINE SMOOTH",
"346 1222 OFFCURVE",
"382 1262 OFFCURVE",
"446 1262 CURVE SMOOTH",
"510 1262 OFFCURVE",
"546 1222 OFFCURVE",
"546 1162 CURVE SMOOTH",
"546 962 LINE SMOOTH",
"546 730 OFFCURVE",
"76 730 OFFCURVE",
"76 250 CURVE SMOOTH",
"76 0 LINE"
);
}
);
width = 902;
},
{
associatedMasterId = "60B18B06-8123-4D0C-85E3-2DE7B5C03586";
layerId = "F92B29A1-039B-46AC-99A0-1FE44ADB51CB";
name = "Apr 25 18, 17:35";
paths = (
{
closed = 1;
nodes = (
"300 1164 LINE SMOOTH",
"300 1242 OFFCURVE",
"372 1310 OFFCURVE",
"452 1310 CURVE SMOOTH",
"530 1310 OFFCURVE",
"602 1246 OFFCURVE",
"604 1164 CURVE SMOOTH",
"608 1000 LINE SMOOTH",
"618 644 OFFCURVE",
"82 588 OFFCURVE",
"82 142 CURVE SMOOTH",
"82 0 LINE",
"828 0 LINE",
"828 190 LINE",
"284 190 LINE",
"284 568 OFFCURVE",
"798 550 OFFCURVE",
"798 1006 CURVE",
"796 1164 LINE SMOOTH",
"794 1344 OFFCURVE",
"640 1500 OFFCURVE",
"452 1500 CURVE SMOOTH",
"268 1500 OFFCURVE",
"108 1352 OFFCURVE",
"108 1164 CURVE SMOOTH",
"108 1040 LINE",
"300 1040 LINE"
);
}
);
width = 912;
},
{
hints = (
{
horizontal = 1;
origin = "{0, 28}";
target = "{0, 2}";
type = Stem;
},
{
horizontal = 1;
origin = "{0, 11}";
target = "{0, 20}";
type = Stem;
}
);
layerId = "DDDB0B36-051A-43AE-9F30-611505482296";
paths = (
{
closed = 1;
nodes = (
"792 0 LINE",
"792 110 LINE",
"156 110 LINE",
"206 60 LINE",
"206 124 LINE SMOOTH",
"206 454 OFFCURVE",
"792 698 OFFCURVE",
"792 1044 CURVE SMOOTH",
"792 1162 LINE SMOOTH",
"792 1382 OFFCURVE",
"652 1532 OFFCURVE",
"442 1532 CURVE SMOOTH",
"232 1532 OFFCURVE",
"92 1384 OFFCURVE",
"92 1162 CURVE SMOOTH",
"92 1122 LINE",
"202 1122 LINE",
"202 1162 LINE SMOOTH",
"202 1318 OFFCURVE",
"298 1422 OFFCURVE",
"442 1422 CURVE SMOOTH",
"586 1422 OFFCURVE",
"682 1318 OFFCURVE",
"682 1162 CURVE SMOOTH",
"682 1044 LINE SMOOTH",
"682 722 OFFCURVE",
"92 522 OFFCURVE",
"92 84 CURVE SMOOTH",
"92 0 LINE"
);
}
);
width = 890;
}
);
note = two;
unicode = 0032;
},
{
glyphname = three;
lastChange = "2019-11-13 16:16:32 +0000";
layers = (
{
layerId = "60B18B06-8123-4D0C-85E3-2DE7B5C03586";
paths = (
{
closed = 1;
nodes = (
"658 -32 OFFCURVE",
"802 116 OFFCURVE",
"802 338 CURVE SMOOTH",
"802 538 LINE SMOOTH",
"802 662 OFFCURVE",
"756 762 OFFCURVE",
"680 828 CURVE",
"680 722 LINE",
"756 784 OFFCURVE",
"802 884 OFFCURVE",
"802 1008 CURVE SMOOTH",
"802 1162 LINE SMOOTH",
"802 1384 OFFCURVE",
"658 1532 OFFCURVE",
"432 1532 CURVE SMOOTH",
"206 1532 OFFCURVE",
"62 1384 OFFCURVE",
"62 1162 CURVE SMOOTH",
"62 1082 LINE",
"332 1082 LINE",
"332 1162 LINE SMOOTH",
"332 1222 OFFCURVE",
"368 1262 OFFCURVE",
"432 1262 CURVE SMOOTH",
"496 1262 OFFCURVE",
"532 1222 OFFCURVE",
"532 1162 CURVE SMOOTH",
"532 1008 LINE SMOOTH",
"532 948 OFFCURVE",
"496 908 OFFCURVE",
"432 908 CURVE SMOOTH",
"276 908 LINE",
"276 638 LINE",
"432 638 LINE SMOOTH",
"496 638 OFFCURVE",
"532 598 OFFCURVE",
"532 538 CURVE SMOOTH",
"532 338 LINE SMOOTH",
"532 278 OFFCURVE",
"496 238 OFFCURVE",
"432 238 CURVE SMOOTH",
"368 238 OFFCURVE",
"332 278 OFFCURVE",
"332 338 CURVE SMOOTH",
"332 418 LINE",
"62 418 LINE",
"62 338 LINE SMOOTH",
"62 116 OFFCURVE",
"206 -32 OFFCURVE",
"432 -32 CURVE SMOOTH"
);
}
);
width = 914;
},
{
hints = (
{
horizontal = 1;
origin = "{0, 49}";
target = "{0, 40}";
type = Stem;
},
{
horizontal = 1;
origin = "{0, 32}";
target = "{0, 31}";
type = Stem;
},
{
horizontal = 1;
origin = "{0, 14}";
target = "{0, 23}";
type = Stem;
}
);
layerId = "DDDB0B36-051A-43AE-9F30-611505482296";
paths = (
{
closed = 1;
nodes = (
"654 -32 OFFCURVE",
"794 116 OFFCURVE",
"794 338 CURVE SMOOTH",
"794 450 LINE SMOOTH",
"794 604 OFFCURVE",
"728 722 OFFCURVE",
"616 782 CURVE",
"614 750 LINE",
"728 808 OFFCURVE",
"794 926 OFFCURVE",
"794 1080 CURVE SMOOTH",
"794 1162 LINE SMOOTH",
"794 1384 OFFCURVE",
"654 1532 OFFCURVE",
"444 1532 CURVE SMOOTH",
"234 1532 OFFCURVE",
"94 1384 OFFCURVE",
"94 1162 CURVE SMOOTH",
"94 1122 LINE",
"204 1122 LINE",
"204 1162 LINE SMOOTH",
"204 1318 OFFCURVE",
"300 1422 OFFCURVE",
"444 1422 CURVE SMOOTH",
"588 1422 OFFCURVE",
"684 1318 OFFCURVE",
"684 1162 CURVE SMOOTH",
"684 1080 LINE SMOOTH",
"684 924 OFFCURVE",
"588 820 OFFCURVE",
"444 820 CURVE SMOOTH",
"340 820 LINE",
"340 710 LINE",
"444 710 LINE SMOOTH",
"588 710 OFFCURVE",
"684 606 OFFCURVE",
"684 450 CURVE SMOOTH",
"684 338 LINE SMOOTH",
"684 182 OFFCURVE",
"588 78 OFFCURVE",
"444 78 CURVE SMOOTH",
"300 78 OFFCURVE",
"204 182 OFFCURVE",
"204 338 CURVE SMOOTH",
"204 378 LINE",
"94 378 LINE",
"94 338 LINE SMOOTH",
"94 116 OFFCURVE",
"234 -32 OFFCURVE",
"444 -32 CURVE SMOOTH"
);
}
);
width = 934;
}
);
note = three;
unicode = 0033;
},
{
glyphname = four;
lastChange = "2019-11-13 16:16:32 +0000";
layers = (
{
layerId = "60B18B06-8123-4D0C-85E3-2DE7B5C03586";
paths = (
{
closed = 1;
nodes = (
"794 0 LINE",
"794 256 LINE",
"908 256 LINE",
"908 526 LINE",
"794 526 LINE",
"794 1500 LINE",
"558 1500 LINE",
"28 488 LINE",
"28 256 LINE",
"524 256 LINE",
"524 0 LINE"
);
},
{
closed = 1;
nodes = (
"524 962 LINE",
"524 526 LINE",
"188 526 LINE",
"256 416 LINE"
);
}
);
width = 964;
},
{
hints = (
{
horizontal = 1;
origin = "{0, 10}";
target = up;
type = BottomGhost;
},
{
horizontal = 1;
origin = "{0, 8}";
target = "{0, 7}";
type = Stem;
},
{
horizontal = 1;
origin = "{0, 6}";
target = down;
type = TopGhost;
}
);
layerId = "DDDB0B36-051A-43AE-9F30-611505482296";
paths = (
{
closed = 1;
nodes = (
"746 0 LINE",
"746 350 LINE",
"894 350 LINE",
"894 458 LINE",
"746 458 LINE",
"746 1500 LINE",
"626 1500 LINE",
"54 458 LINE",
"54 350 LINE",
"636 350 LINE",
"636 0 LINE"
);
},
{
closed = 1;
nodes = (
"636 1322 LINE",
"636 458 LINE",
"118 458 LINE",
"144 414 LINE"
);
}
);
width = 950;
}
);
note = four;
unicode = 0034;
},
{
glyphname = five;
lastChange = "2019-11-13 16:16:32 +0000";
layers = (
{
layerId = "60B18B06-8123-4D0C-85E3-2DE7B5C03586";
paths = (
{
closed = 1;
nodes = (
"720 -32 OFFCURVE",
"864 116 OFFCURVE",
"864 338 CURVE SMOOTH",
"864 618 LINE SMOOTH",
"864 840 OFFCURVE",
"718 988 OFFCURVE",
"518 988 CURVE SMOOTH",
"434 988 OFFCURVE",
"380 962 OFFCURVE",
"342 906 CURVE",
"394 836 LINE",
"394 1352 LINE",
"272 1230 LINE",
"804 1230 LINE",
"804 1500 LINE",
"124 1500 LINE",
"124 604 LINE",
"394 604 LINE",
"394 618 LINE SMOOTH",
"394 678 OFFCURVE",
"430 718 OFFCURVE",
"494 718 CURVE SMOOTH",
"558 718 OFFCURVE",
"594 678 OFFCURVE",
"594 618 CURVE SMOOTH",
"594 338 LINE SMOOTH",
"594 278 OFFCURVE",
"558 238 OFFCURVE",
"494 238 CURVE SMOOTH",
"430 238 OFFCURVE",
"394 278 OFFCURVE",
"394 338 CURVE SMOOTH",
"394 418 LINE",
"124 418 LINE",
"124 338 LINE SMOOTH",
"124 116 OFFCURVE",
"268 -32 OFFCURVE",
"494 -32 CURVE SMOOTH"
);
}
);
width = 944;
},
{
hints = (
{
horizontal = 1;
origin = "{0, 37}";
target = "{0, 28}";
type = Stem;
},
{
horizontal = 1;
origin = "{0, 21}";
target = "{0, 6}";
type = Stem;
},
{
horizontal = 1;
origin = "{0, 15}";
target = "{0, 12}";
type = Stem;
}
);
layerId = "DDDB0B36-051A-43AE-9F30-611505482296";
paths = (
{
closed = 1;
nodes = (
"718 -32 OFFCURVE",
"858 116 OFFCURVE",
"858 338 CURVE SMOOTH",
"858 636 LINE SMOOTH",
"858 858 OFFCURVE",
"716 1006 OFFCURVE",
"512 1006 CURVE SMOOTH",
"390 1006 OFFCURVE",
"302 953 OFFCURVE",
"250 862 CURVE",
"268 840 LINE",
"268 1440 LINE",
"218 1390 LINE",
"858 1390 LINE",
"858 1500 LINE",
"158 1500 LINE",
"158 614 LINE",
"268 614 LINE",
"268 638 LINE SMOOTH",
"268 794 OFFCURVE",
"356 896 OFFCURVE",
"502 896 CURVE SMOOTH",
"650 896 OFFCURVE",
"748 792 OFFCURVE",
"748 636 CURVE SMOOTH",
"748 338 LINE SMOOTH",
"748 182 OFFCURVE",
"652 78 OFFCURVE",
"508 78 CURVE SMOOTH",
"364 78 OFFCURVE",
"268 182 OFFCURVE",
"268 338 CURVE SMOOTH",
"268 378 LINE",
"158 378 LINE",
"158 338 LINE SMOOTH",
"158 116 OFFCURVE",
"298 -32 OFFCURVE",
"508 -32 CURVE SMOOTH"
);
}
);
width = 978;
},
{
associatedMasterId = "DDDB0B36-051A-43AE-9F30-611505482296";
layerId = "2F00CE1A-B26B-4236-88BB-68A23E01396B";
name = "Apr 26 18, 16:09";
paths = (
{
closed = 1;
nodes = (
"722 -24 OFFCURVE",
"862 124 OFFCURVE",
"862 346 CURVE SMOOTH",
"862 450 LINE SMOOTH",
"862 672 OFFCURVE",
"722 820 OFFCURVE",
"512 820 CURVE SMOOTH",
"512 820 LINE",
"500 710 LINE",
"656 710 OFFCURVE",
"752 606 OFFCURVE",
"752 450 CURVE SMOOTH",
"752 346 LINE SMOOTH",
"752 190 OFFCURVE",
"656 86 OFFCURVE",
"512 86 CURVE SMOOTH",
"368 86 OFFCURVE",
"272 190 OFFCURVE",
"272 346 CURVE SMOOTH",
"272 386 LINE",
"162 386 LINE",
"162 346 LINE SMOOTH",
"162 124 OFFCURVE",
"302 -24 OFFCURVE",
"512 -24 CURVE SMOOTH"
);
},
{
closed = 1;
nodes = (
"512 820 LINE",
"322 820 OFFCURVE",
"206 674 OFFCURVE",
"206 452 CURVE SMOOTH",
"206 428 LINE",
"278 428 LINE",
"278 452 LINE SMOOTH",
"278 608 OFFCURVE",
"362 710 OFFCURVE",
"500 710 CURVE"
);
}
);
width = 1200;
}
);
note = five;
unicode = 0035;
},
{
glyphname = six;
lastChange = "2019-11-13 16:16:32 +0000";
layers = (
{
layerId = "60B18B06-8123-4D0C-85E3-2DE7B5C03586";
paths = (
{
closed = 1;
nodes = (
"714 -32 OFFCURVE",
"858 116 OFFCURVE",
"858 338 CURVE SMOOTH",
"858 618 LINE SMOOTH",
"858 840 OFFCURVE",
"712 988 OFFCURVE",
"512 988 CURVE SMOOTH",
"428 988 OFFCURVE",
"374 962 OFFCURVE",
"336 906 CURVE",
"388 836 LINE",
"388 1162 LINE SMOOTH",
"388 1222 OFFCURVE",
"424 1262 OFFCURVE",
"488 1262 CURVE SMOOTH",
"552 1262 OFFCURVE",
"588 1222 OFFCURVE",
"588 1162 CURVE SMOOTH",
"588 1082 LINE",
"858 1082 LINE",
"858 1162 LINE SMOOTH",
"858 1384 OFFCURVE",
"714 1532 OFFCURVE",
"488 1532 CURVE SMOOTH",
"262 1532 OFFCURVE",
"118 1384 OFFCURVE",
"118 1162 CURVE SMOOTH",
"118 338 LINE SMOOTH",
"118 116 OFFCURVE",
"262 -32 OFFCURVE",
"488 -32 CURVE SMOOTH"
);
},
{
closed = 1;
nodes = (
"424 238 OFFCURVE",
"388 278 OFFCURVE",
"388 338 CURVE SMOOTH",
"388 618 LINE SMOOTH",
"388 678 OFFCURVE",
"424 718 OFFCURVE",
"488 718 CURVE SMOOTH",
"552 718 OFFCURVE",
"588 678 OFFCURVE",
"588 618 CURVE SMOOTH",
"588 338 LINE SMOOTH",
"588 278 OFFCURVE",
"552 238 OFFCURVE",
"488 238 CURVE SMOOTH"
);
}
);
width = 958;
},
{
hints = (
{
horizontal = 1;
origin = "{0, 30}";
target = "{1, 13}";
type = Stem;
},
{
horizontal = 1;
origin = "{1, 6}";
target = "{0, 6}";
type = Stem;
},
{
horizontal = 1;
origin = "{0, 23}";
target = "{0, 14}";
type = Stem;
}
);
layerId = "DDDB0B36-051A-43AE-9F30-611505482296";
paths = (
{
closed = 1;
nodes = (
"716 -32 OFFCURVE",
"856 116 OFFCURVE",
"856 338 CURVE SMOOTH",
"856 636 LINE SMOOTH",
"856 858 OFFCURVE",
"714 1006 OFFCURVE",
"510 1006 CURVE SMOOTH",
"388 1006 OFFCURVE",
"300 953 OFFCURVE",
"248 862 CURVE",
"266 840 LINE",
"266 1162 LINE SMOOTH",
"266 1318 OFFCURVE",
"362 1422 OFFCURVE",
"506 1422 CURVE SMOOTH",
"650 1422 OFFCURVE",
"746 1318 OFFCURVE",
"746 1162 CURVE SMOOTH",
"746 1122 LINE",
"856 1122 LINE",
"856 1162 LINE SMOOTH",
"856 1384 OFFCURVE",
"716 1532 OFFCURVE",
"506 1532 CURVE SMOOTH",
"296 1532 OFFCURVE",
"156 1384 OFFCURVE",
"156 1162 CURVE SMOOTH",
"156 338 LINE SMOOTH",
"156 116 OFFCURVE",
"296 -32 OFFCURVE",
"506 -32 CURVE SMOOTH"
);
},
{
closed = 1;
nodes = (
"362 78 OFFCURVE",
"266 182 OFFCURVE",
"266 338 CURVE SMOOTH",
"266 638 LINE SMOOTH",
"266 794 OFFCURVE",
"354 896 OFFCURVE",
"500 896 CURVE SMOOTH",
"648 896 OFFCURVE",
"746 792 OFFCURVE",
"746 636 CURVE SMOOTH",
"746 338 LINE SMOOTH",
"746 182 OFFCURVE",
"650 78 OFFCURVE",
"506 78 CURVE SMOOTH"
);
}
);
width = 994;
}
);
note = six;
unicode = 0036;
},
{
glyphname = seven;
lastChange = "2019-11-13 16:16:32 +0000";
layers = (
{
layerId = "60B18B06-8123-4D0C-85E3-2DE7B5C03586";
paths = (
{
closed = 1;
nodes = (
"388 0 LINE",
"752 1248 LINE",
"752 1500 LINE",
"22 1500 LINE",
"22 1230 LINE",
"608 1230 LINE",
"522 1346 LINE",
"108 0 LINE"
);
}
);
width = 786;
},
{
hints = (
{
horizontal = 1;
origin = "{0, 7}";
target = up;
type = BottomGhost;
},
{
horizontal = 1;
origin = "{0, 3}";
target = "{0, 4}";
type = Stem;
}
);
layerId = "DDDB0B36-051A-43AE-9F30-611505482296";
paths = (
{
closed = 1;
nodes = (
"334 0 LINE",
"718 1408 LINE",
"718 1500 LINE",
"38 1500 LINE",
"38 1390 LINE",
"644 1390 LINE",
"608 1438 LINE",
"214 0 LINE"
);
}
);
width = 776;
}
);
note = seven;
unicode = 0037;
},
{
glyphname = eight;
lastChange = "2019-11-13 16:16:32 +0000";
layers = (
{
layerId = "60B18B06-8123-4D0C-85E3-2DE7B5C03586";
paths = (
{
closed = 1;
nodes = (
"706 -32 OFFCURVE",
"850 116 OFFCURVE",
"850 338 CURVE SMOOTH",
"850 532 LINE SMOOTH",
"850 656 OFFCURVE",
"804 756 OFFCURVE",
"728 822 CURVE",
"728 716 LINE",
"804 778 OFFCURVE",
"850 878 OFFCURVE",
"850 1002 CURVE SMOOTH",
"850 1162 LINE SMOOTH",
"850 1384 OFFCURVE",
"706 1532 OFFCURVE",
"480 1532 CURVE SMOOTH",
"254 1532 OFFCURVE",
"110 1384 OFFCURVE",
"110 1162 CURVE SMOOTH",
"110 1002 LINE SMOOTH",
"110 878 OFFCURVE",
"156 778 OFFCURVE",
"232 716 CURVE",
"232 822 LINE",
"156 756 OFFCURVE",
"110 656 OFFCURVE",
"110 532 CURVE SMOOTH",
"110 338 LINE SMOOTH",
"110 116 OFFCURVE",
"254 -32 OFFCURVE",
"480 -32 CURVE SMOOTH"
);
},
{
closed = 1;
nodes = (
"416 238 OFFCURVE",
"380 278 OFFCURVE",
"380 338 CURVE SMOOTH",
"380 532 LINE SMOOTH",
"380 592 OFFCURVE",
"416 632 OFFCURVE",
"480 632 CURVE SMOOTH",
"544 632 OFFCURVE",
"580 592 OFFCURVE",
"580 532 CURVE SMOOTH",
"580 338 LINE SMOOTH",
"580 278 OFFCURVE",
"544 238 OFFCURVE",
"480 238 CURVE SMOOTH"
);
},
{
closed = 1;
nodes = (
"416 902 OFFCURVE",
"380 942 OFFCURVE",
"380 1002 CURVE SMOOTH",
"380 1162 LINE SMOOTH",
"380 1222 OFFCURVE",
"416 1262 OFFCURVE",
"480 1262 CURVE SMOOTH",
"544 1262 OFFCURVE",
"580 1222 OFFCURVE",
"580 1162 CURVE SMOOTH",
"580 1002 LINE SMOOTH",
"580 942 OFFCURVE",
"544 902 OFFCURVE",
"480 902 CURVE SMOOTH"
);
}
);
width = 960;
},
{
hints = (
{
horizontal = 1;
origin = "{0, 29}";
target = "{1, 13}";
type = Stem;
},
{
horizontal = 1;
origin = "{1, 6}";
target = "{2, 13}";
type = Stem;
},
{
horizontal = 1;
origin = "{0, 14}";
target = "{2, 6}";
type = Stem;
}
);
layerId = "DDDB0B36-051A-43AE-9F30-611505482296";
paths = (
{
closed = 1;
nodes = (
"700 -32 OFFCURVE",
"840 116 OFFCURVE",
"840 338 CURVE SMOOTH",
"840 450 LINE SMOOTH",
"840 604 OFFCURVE",
"774 722 OFFCURVE",
"662 782 CURVE",
"660 750 LINE",
"774 808 OFFCURVE",
"840 926 OFFCURVE",
"840 1080 CURVE SMOOTH",
"840 1162 LINE SMOOTH",
"840 1384 OFFCURVE",
"700 1532 OFFCURVE",
"490 1532 CURVE SMOOTH",
"280 1532 OFFCURVE",
"140 1384 OFFCURVE",
"140 1162 CURVE SMOOTH",
"140 1080 LINE SMOOTH",
"140 926 OFFCURVE",
"206 808 OFFCURVE",
"320 750 CURVE",
"318 782 LINE",
"206 722 OFFCURVE",
"140 604 OFFCURVE",
"140 450 CURVE SMOOTH",
"140 338 LINE SMOOTH",
"140 116 OFFCURVE",
"280 -32 OFFCURVE",
"490 -32 CURVE SMOOTH"
);
},
{
closed = 1;
nodes = (
"346 78 OFFCURVE",
"250 182 OFFCURVE",
"250 338 CURVE SMOOTH",
"250 450 LINE SMOOTH",
"250 606 OFFCURVE",
"346 710 OFFCURVE",
"490 710 CURVE SMOOTH",
"634 710 OFFCURVE",
"730 606 OFFCURVE",
"730 450 CURVE SMOOTH",
"730 338 LINE SMOOTH",
"730 182 OFFCURVE",
"634 78 OFFCURVE",
"490 78 CURVE SMOOTH"
);
},
{
closed = 1;
nodes = (
"346 820 OFFCURVE",
"250 924 OFFCURVE",
"250 1080 CURVE SMOOTH",
"250 1162 LINE SMOOTH",
"250 1318 OFFCURVE",
"346 1422 OFFCURVE",
"490 1422 CURVE SMOOTH",
"634 1422 OFFCURVE",
"730 1318 OFFCURVE",
"730 1162 CURVE SMOOTH",
"730 1080 LINE SMOOTH",
"730 924 OFFCURVE",
"634 820 OFFCURVE",
"490 820 CURVE SMOOTH"
);
}
);
width = 980;
}
);
note = eight;
unicode = 0038;
},
{
glyphname = nine;
lastChange = "2019-11-13 16:16:32 +0000";
layers = (
{
layerId = "60B18B06-8123-4D0C-85E3-2DE7B5C03586";
paths = (
{
closed = 1;
nodes = (
"698 -32 OFFCURVE",
"842 116 OFFCURVE",
"842 338 CURVE SMOOTH",
"842 1162 LINE SMOOTH",
"842 1384 OFFCURVE",
"698 1532 OFFCURVE",
"472 1532 CURVE SMOOTH",
"246 1532 OFFCURVE",
"102 1384 OFFCURVE",
"102 1162 CURVE SMOOTH",
"102 882 LINE SMOOTH",
"102 660 OFFCURVE",
"248 512 OFFCURVE",
"448 512 CURVE SMOOTH",
"532 512 OFFCURVE",
"586 538 OFFCURVE",
"624 594 CURVE",
"572 664 LINE",
"572 338 LINE SMOOTH",
"572 278 OFFCURVE",
"536 238 OFFCURVE",
"472 238 CURVE SMOOTH",
"408 238 OFFCURVE",
"372 278 OFFCURVE",
"372 338 CURVE SMOOTH",
"372 418 LINE",
"102 418 LINE",
"102 338 LINE SMOOTH",
"102 116 OFFCURVE",
"246 -32 OFFCURVE",
"472 -32 CURVE SMOOTH"
);
},
{
closed = 1;
nodes = (
"408 782 OFFCURVE",
"372 822 OFFCURVE",
"372 882 CURVE SMOOTH",
"372 1162 LINE SMOOTH",
"372 1222 OFFCURVE",
"408 1262 OFFCURVE",
"472 1262 CURVE SMOOTH",
"536 1262 OFFCURVE",
"572 1222 OFFCURVE",
"572 1162 CURVE SMOOTH",
"572 882 LINE SMOOTH",
"572 822 OFFCURVE",
"536 782 OFFCURVE",
"472 782 CURVE SMOOTH"
);
}
);
width = 960;
},
{
hints = (
{
horizontal = 1;
origin = "{0, 30}";
target = "{0, 21}";
type = Stem;
},
{
horizontal = 1;
origin = "{0, 13}";
target = "{1, 13}";
type = Stem;
},
{
horizontal = 1;
origin = "{0, 6}";
target = "{1, 6}";
type = Stem;
}
);
layerId = "DDDB0B36-051A-43AE-9F30-611505482296";
paths = (
{
closed = 1;
nodes = (
"698 -32 OFFCURVE",
"838 116 OFFCURVE",
"838 338 CURVE SMOOTH",
"838 1162 LINE SMOOTH",
"838 1384 OFFCURVE",
"698 1532 OFFCURVE",
"488 1532 CURVE SMOOTH",
"278 1532 OFFCURVE",
"138 1384 OFFCURVE",
"138 1162 CURVE SMOOTH",
"138 864 LINE SMOOTH",
"138 642 OFFCURVE",
"280 494 OFFCURVE",
"484 494 CURVE SMOOTH",
"606 494 OFFCURVE",
"694 547 OFFCURVE",
"746 638 CURVE",
"728 660 LINE",
"728 338 LINE SMOOTH",
"728 182 OFFCURVE",
"632 78 OFFCURVE",
"488 78 CURVE SMOOTH",
"344 78 OFFCURVE",
"248 182 OFFCURVE",
"248 338 CURVE SMOOTH",
"248 378 LINE",
"138 378 LINE",
"138 338 LINE SMOOTH",
"138 116 OFFCURVE",
"278 -32 OFFCURVE",
"488 -32 CURVE SMOOTH"
);
},
{
closed = 1;
nodes = (
"346 604 OFFCURVE",
"248 708 OFFCURVE",
"248 864 CURVE SMOOTH",
"248 1162 LINE SMOOTH",
"248 1318 OFFCURVE",
"344 1422 OFFCURVE",
"488 1422 CURVE SMOOTH",
"632 1422 OFFCURVE",
"728 1318 OFFCURVE",
"728 1162 CURVE SMOOTH",
"728 862 LINE SMOOTH",
"728 706 OFFCURVE",
"640 604 OFFCURVE",
"494 604 CURVE SMOOTH"
);
}
);
width = 994;
}
);
note = nine;
unicode = 0039;
},
{
glyphname = zero.tf;
lastChange = "2019-11-13 16:16:32 +0000";
layers = (
{
layerId = "60B18B06-8123-4D0C-85E3-2DE7B5C03586";
paths = (
{
closed = 1;
nodes = (
"702 -32 OFFCURVE",
"844 116 OFFCURVE",
"844 338 CURVE SMOOTH",
"844 1162 LINE SMOOTH",
"844 1384 OFFCURVE",
"702 1532 OFFCURVE",
"480 1532 CURVE SMOOTH",
"258 1532 OFFCURVE",
"114 1384 OFFCURVE",
"114 1162 CURVE SMOOTH",
"114 338 LINE SMOOTH",
"114 116 OFFCURVE",
"258 -32 OFFCURVE",
"480 -32 CURVE SMOOTH"
);
},
{
closed = 1;
nodes = (
"418 238 OFFCURVE",
"382 278 OFFCURVE",
"382 338 CURVE SMOOTH",
"382 1162 LINE SMOOTH",
"382 1222 OFFCURVE",
"418 1262 OFFCURVE",
"480 1262 CURVE SMOOTH",
"540 1262 OFFCURVE",
"576 1222 OFFCURVE",
"576 1162 CURVE SMOOTH",
"576 338 LINE SMOOTH",
"576 278 OFFCURVE",
"540 238 OFFCURVE",
"480 238 CURVE SMOOTH"
);
},
{
closed = 1;
nodes = (
"268 238 LINE",
"418 238 LINE",
"692 1262 LINE",
"542 1262 LINE"
);
}
);
width = 960;
},
{
hints = (
{
horizontal = 1;
origin = "{0, 13}";
target = "{2, 0}";
type = Stem;
},
{
horizontal = 1;
origin = "{0, 6}";
target = "{1, 6}";
type = Stem;
}
);
layerId = "DDDB0B36-051A-43AE-9F30-611505482296";
paths = (
{
closed = 1;
nodes = (
"682 -32 OFFCURVE",
"820 116 OFFCURVE",
"820 338 CURVE SMOOTH",
"820 1162 LINE SMOOTH",
"820 1384 OFFCURVE",
"682 1532 OFFCURVE",
"480 1532 CURVE SMOOTH",
"276 1532 OFFCURVE",
"140 1384 OFFCURVE",
"140 1162 CURVE SMOOTH",
"140 338 LINE SMOOTH",
"140 116 OFFCURVE",
"276 -32 OFFCURVE",
"480 -32 CURVE SMOOTH"
);
},
{
closed = 1;
nodes = (
"342 78 OFFCURVE",
"250 182 OFFCURVE",
"250 338 CURVE SMOOTH",
"250 1162 LINE SMOOTH",
"250 1318 OFFCURVE",
"342 1422 OFFCURVE",
"480 1422 CURVE SMOOTH",
"616 1422 OFFCURVE",
"710 1318 OFFCURVE",
"710 1162 CURVE SMOOTH",
"710 338 LINE SMOOTH",
"710 182 OFFCURVE",
"616 78 OFFCURVE",
"480 78 CURVE SMOOTH"
);
},
{
closed = 1;
nodes = (
"264 78 LINE",
"342 78 LINE",
"696 1422 LINE",
"618 1422 LINE"
);
}
);
width = 960;
}
);
note = zero;
},
{
glyphname = one.tf;
lastChange = "2019-11-13 16:16:32 +0000";
layers = (
{
layerId = "60B18B06-8123-4D0C-85E3-2DE7B5C03586";
paths = (
{
closed = 1;
nodes = (
"908 0 LINE",
"908 270 LINE",
"616 270 LINE",
"616 1500 LINE",
"346 1500 LINE",
"346 1478 LINE SMOOTH",
"346 1384 OFFCURVE",
"272 1328 OFFCURVE",
"150 1328 CURVE SMOOTH",
"84 1328 LINE",
"84 1058 LINE",
"346 1058 LINE",
"346 270 LINE",
"52 270 LINE",
"52 0 LINE"
);
}
);
width = 960;
},
{
hints = (
{
horizontal = 1;
origin = "{0, 14}";
target = "{0, 13}";
type = Stem;
},
{
horizontal = 1;
origin = "{0, 10}";
target = "{0, 9}";
type = Stem;
}
);
layerId = "DDDB0B36-051A-43AE-9F30-611505482296";
paths = (
{
closed = 1;
nodes = (
"874 0 LINE",
"874 110 LINE",
"534 110 LINE",
"534 1500 LINE",
"424 1500 LINE",
"424 1478 LINE SMOOTH",
"424 1384 OFFCURVE",
"352 1328 OFFCURVE",
"230 1328 CURVE SMOOTH",
"204 1328 LINE",
"204 1218 LINE",
"424 1218 LINE",
"424 110 LINE",
"84 110 LINE",
"84 0 LINE"
);
}
);
width = 960;
}
);
note = one;
},
{
glyphname = two.tf;
lastChange = "2019-11-13 16:16:32 +0000";
layers = (
{
layerId = "60B18B06-8123-4D0C-85E3-2DE7B5C03586";
paths = (
{
closed = 1;
nodes = (
"862 0 LINE",
"862 270 LINE",
"252 270 LINE",
"374 148 LINE",
"374 300 LINE SMOOTH",
"374 576 OFFCURVE",
"862 590 OFFCURVE",
"862 962 CURVE SMOOTH",
"862 1162 LINE SMOOTH",
"862 1384 OFFCURVE",
"708 1532 OFFCURVE",
"476 1532 CURVE SMOOTH",
"244 1532 OFFCURVE",
"88 1384 OFFCURVE",
"88 1162 CURVE SMOOTH",
"88 1082 LINE",
"358 1082 LINE",
"358 1162 LINE SMOOTH",
"358 1222 OFFCURVE",
"406 1262 OFFCURVE",
"476 1262 CURVE SMOOTH",
"546 1262 OFFCURVE",
"592 1222 OFFCURVE",
"592 1162 CURVE SMOOTH",
"592 962 LINE SMOOTH",
"592 730 OFFCURVE",
"88 730 OFFCURVE",
"88 250 CURVE SMOOTH",
"88 0 LINE"
);
}
);
width = 960;
},
{
associatedMasterId = "60B18B06-8123-4D0C-85E3-2DE7B5C03586";
layerId = "F92B29A1-039B-46AC-99A0-1FE44ADB51CB";
name = "Apr 25 18, 17:35";
paths = (
{
closed = 1;
nodes = (
"300 1164 LINE SMOOTH",
"300 1242 OFFCURVE",
"372 1310 OFFCURVE",
"452 1310 CURVE SMOOTH",
"530 1310 OFFCURVE",
"602 1246 OFFCURVE",
"604 1164 CURVE SMOOTH",
"608 1000 LINE SMOOTH",
"618 644 OFFCURVE",
"82 588 OFFCURVE",
"82 142 CURVE SMOOTH",
"82 0 LINE",
"828 0 LINE",
"828 190 LINE",
"284 190 LINE",
"284 568 OFFCURVE",
"798 550 OFFCURVE",
"798 1006 CURVE",
"796 1164 LINE SMOOTH",
"794 1344 OFFCURVE",
"640 1500 OFFCURVE",
"452 1500 CURVE SMOOTH",
"268 1500 OFFCURVE",
"108 1352 OFFCURVE",
"108 1164 CURVE SMOOTH",
"108 1040 LINE",
"300 1040 LINE"
);
}
);
width = 912;
},
{
hints = (
{
horizontal = 1;
origin = "{0, 28}";
target = "{0, 2}";
type = Stem;
},
{
horizontal = 1;
origin = "{0, 11}";
target = "{0, 20}";
type = Stem;
}
);
layerId = "DDDB0B36-051A-43AE-9F30-611505482296";
paths = (
{
closed = 1;
nodes = (
"840 0 LINE",
"840 110 LINE",
"176 110 LINE",
"226 60 LINE",
"226 124 LINE SMOOTH",
"226 454 OFFCURVE",
"840 698 OFFCURVE",
"840 1044 CURVE SMOOTH",
"840 1162 LINE SMOOTH",
"840 1382 OFFCURVE",
"694 1532 OFFCURVE",
"476 1532 CURVE SMOOTH",
"258 1532 OFFCURVE",
"112 1384 OFFCURVE",
"112 1162 CURVE SMOOTH",
"112 1122 LINE",
"222 1122 LINE",
"222 1162 LINE SMOOTH",
"222 1318 OFFCURVE",
"324 1422 OFFCURVE",
"476 1422 CURVE SMOOTH",
"628 1422 OFFCURVE",
"730 1318 OFFCURVE",
"730 1162 CURVE SMOOTH",
"730 1044 LINE SMOOTH",
"730 722 OFFCURVE",
"112 522 OFFCURVE",
"112 84 CURVE SMOOTH",
"112 0 LINE"
);
}
);
width = 960;
}
);
note = two;
},
{
glyphname = three.tf;
lastChange = "2019-11-13 16:16:32 +0000";
layers = (
{
layerId = "60B18B06-8123-4D0C-85E3-2DE7B5C03586";
paths = (
{
closed = 1;
nodes = (
"686 -32 OFFCURVE",
"838 116 OFFCURVE",
"838 338 CURVE SMOOTH",
"838 538 LINE SMOOTH",
"838 662 OFFCURVE",
"788 762 OFFCURVE",
"706 828 CURVE",
"706 722 LINE",
"788 784 OFFCURVE",
"838 884 OFFCURVE",
"838 1008 CURVE SMOOTH",
"838 1162 LINE SMOOTH",
"838 1384 OFFCURVE",
"686 1532 OFFCURVE",
"454 1532 CURVE SMOOTH",
"220 1532 OFFCURVE",
"70 1384 OFFCURVE",
"70 1162 CURVE SMOOTH",
"70 1082 LINE",
"340 1082 LINE",
"340 1162 LINE SMOOTH",
"340 1222 OFFCURVE",
"382 1262 OFFCURVE",
"454 1262 CURVE SMOOTH",
"524 1262 OFFCURVE",
"568 1222 OFFCURVE",
"568 1162 CURVE SMOOTH",
"568 1008 LINE SMOOTH",
"568 948 OFFCURVE",
"524 908 OFFCURVE",
"454 908 CURVE SMOOTH",
"294 908 LINE",
"294 638 LINE",
"454 638 LINE SMOOTH",
"524 638 OFFCURVE",
"568 598 OFFCURVE",
"568 538 CURVE SMOOTH",
"568 338 LINE SMOOTH",
"568 278 OFFCURVE",
"524 238 OFFCURVE",
"454 238 CURVE SMOOTH",
"382 238 OFFCURVE",
"340 278 OFFCURVE",
"340 338 CURVE SMOOTH",
"340 418 LINE",
"70 418 LINE",
"70 338 LINE SMOOTH",
"70 116 OFFCURVE",
"220 -32 OFFCURVE",
"454 -32 CURVE SMOOTH"
);
}
);
width = 960;
},
{
hints = (
{
horizontal = 1;
origin = "{0, 49}";
target = "{0, 40}";
type = Stem;
},
{
horizontal = 1;
origin = "{0, 32}";
target = "{0, 31}";
type = Stem;
},
{
horizontal = 1;
origin = "{0, 14}";
target = "{0, 23}";
type = Stem;
}
);
layerId = "DDDB0B36-051A-43AE-9F30-611505482296";
paths = (
{
closed = 1;
nodes = (
"670 -32 OFFCURVE",
"812 116 OFFCURVE",
"812 338 CURVE SMOOTH",
"812 450 LINE SMOOTH",
"812 602 OFFCURVE",
"746 722 OFFCURVE",
"632 782 CURVE",
"628 750 LINE",
"746 808 OFFCURVE",
"812 928 OFFCURVE",
"812 1080 CURVE SMOOTH",
"812 1162 LINE SMOOTH",
"812 1384 OFFCURVE",
"670 1532 OFFCURVE",
"458 1532 CURVE SMOOTH",
"246 1532 OFFCURVE",
"102 1384 OFFCURVE",
"102 1162 CURVE SMOOTH",
"102 1122 LINE",
"212 1122 LINE",
"212 1162 LINE SMOOTH",
"212 1318 OFFCURVE",
"312 1422 OFFCURVE",
"458 1422 CURVE SMOOTH",
"604 1422 OFFCURVE",
"702 1318 OFFCURVE",
"702 1162 CURVE SMOOTH",
"702 1080 LINE SMOOTH",
"702 924 OFFCURVE",
"604 820 OFFCURVE",
"458 820 CURVE SMOOTH",
"352 820 LINE",
"352 710 LINE",
"458 710 LINE SMOOTH",
"604 710 OFFCURVE",
"702 606 OFFCURVE",
"702 450 CURVE SMOOTH",
"702 338 LINE SMOOTH",
"702 182 OFFCURVE",
"604 78 OFFCURVE",
"458 78 CURVE SMOOTH",
"312 78 OFFCURVE",
"212 182 OFFCURVE",
"212 338 CURVE SMOOTH",
"212 378 LINE",
"102 378 LINE",
"102 338 LINE SMOOTH",
"102 116 OFFCURVE",
"246 -32 OFFCURVE",
"458 -32 CURVE SMOOTH"
);
}
);
width = 960;
}
);
note = three;
},
{
glyphname = four.tf;
lastChange = "2019-11-13 16:16:32 +0000";
layers = (
{
layerId = "60B18B06-8123-4D0C-85E3-2DE7B5C03586";
paths = (
{
closed = 1;
nodes = (
"792 0 LINE",
"792 256 LINE",
"906 256 LINE",
"906 526 LINE",
"792 526 LINE",
"792 1500 LINE",
"556 1500 LINE",
"28 488 LINE",
"28 256 LINE",
"522 256 LINE",
"522 0 LINE"
);
},
{
closed = 1;
nodes = (
"522 962 LINE",
"522 526 LINE",
"188 526 LINE",
"256 416 LINE"
);
}
);
width = 960;
},
{
hints = (
{
horizontal = 1;
origin = "{0, 10}";
target = up;
type = BottomGhost;
},
{
horizontal = 1;
origin = "{0, 8}";
target = "{0, 7}";
type = Stem;
},
{
horizontal = 1;
origin = "{0, 6}";
target = down;
type = TopGhost;
}
);
layerId = "DDDB0B36-051A-43AE-9F30-611505482296";
paths = (
{
closed = 1;
nodes = (
"754 0 LINE",
"754 350 LINE",
"902 350 LINE",
"902 458 LINE",
"754 458 LINE",
"754 1500 LINE",
"632 1500 LINE",
"58 458 LINE",
"58 350 LINE",
"644 350 LINE",
"644 0 LINE"
);
},
{
closed = 1;
nodes = (
"644 1322 LINE",
"644 458 LINE",
"122 458 LINE",
"148 414 LINE"
);
}
);
width = 960;
}
);
note = four;
},
{
glyphname = five.tf;
lastChange = "2019-11-13 16:16:32 +0000";
layers = (
{
layerId = "60B18B06-8123-4D0C-85E3-2DE7B5C03586";
paths = (
{
closed = 1;
nodes = (
"730 -32 OFFCURVE",
"878 116 OFFCURVE",
"878 338 CURVE SMOOTH",
"878 618 LINE SMOOTH",
"878 840 OFFCURVE",
"728 988 OFFCURVE",
"527 988 CURVE SMOOTH",
"436 988 OFFCURVE",
"382 958 OFFCURVE",
"346 906 CURVE",
"398 836 LINE",
"398 1352 LINE",
"276 1230 LINE",
"818 1230 LINE",
"818 1500 LINE",
"128 1500 LINE",
"128 604 LINE",
"398 604 LINE",
"398 618 LINE SMOOTH",
"398 678 OFFCURVE",
"436 718 OFFCURVE",
"502 718 CURVE SMOOTH",
"568 718 OFFCURVE",
"608 678 OFFCURVE",
"608 618 CURVE SMOOTH",
"608 338 LINE SMOOTH",
"608 278 OFFCURVE",
"568 238 OFFCURVE",
"502 238 CURVE SMOOTH",
"436 238 OFFCURVE",
"398 278 OFFCURVE",
"398 338 CURVE SMOOTH",
"398 418 LINE",
"128 418 LINE",
"128 338 LINE SMOOTH",
"128 116 OFFCURVE",
"274 -32 OFFCURVE",
"502 -32 CURVE SMOOTH"
);
}
);
width = 960;
},
{
hints = (
{
horizontal = 1;
origin = "{0, 37}";
target = "{0, 28}";
type = Stem;
},
{
horizontal = 1;
origin = "{0, 21}";
target = "{0, 6}";
type = Stem;
},
{
horizontal = 1;
origin = "{0, 15}";
target = "{0, 12}";
type = Stem;
}
);
layerId = "DDDB0B36-051A-43AE-9F30-611505482296";
paths = (
{
closed = 1;
nodes = (
"706 -32 OFFCURVE",
"844 116 OFFCURVE",
"844 338 CURVE SMOOTH",
"844 636 LINE SMOOTH",
"844 858 OFFCURVE",
"704 1006 OFFCURVE",
"502 1006 CURVE SMOOTH",
"385 1006 OFFCURVE",
"298 956 OFFCURVE",
"244 862 CURVE",
"262 840 LINE",
"262 1440 LINE",
"212 1390 LINE",
"844 1390 LINE",
"844 1500 LINE",
"152 1500 LINE",
"152 614 LINE",
"262 614 LINE",
"262 638 LINE SMOOTH",
"262 794 OFFCURVE",
"349 896 OFFCURVE",
"492 896 CURVE SMOOTH",
"637 896 OFFCURVE",
"734 792 OFFCURVE",
"734 636 CURVE SMOOTH",
"734 338 LINE SMOOTH",
"734 182 OFFCURVE",
"640 78 OFFCURVE",
"498 78 CURVE SMOOTH",
"358 78 OFFCURVE",
"262 182 OFFCURVE",
"262 338 CURVE SMOOTH",
"262 378 LINE",
"152 378 LINE",
"152 338 LINE SMOOTH",
"152 116 OFFCURVE",
"292 -32 OFFCURVE",
"498 -32 CURVE SMOOTH"
);
}
);
width = 960;
},
{
associatedMasterId = "DDDB0B36-051A-43AE-9F30-611505482296";
layerId = "2F00CE1A-B26B-4236-88BB-68A23E01396B";
name = "Apr 26 18, 16:09";
paths = (
{
closed = 1;
nodes = (
"722 -24 OFFCURVE",
"862 124 OFFCURVE",
"862 346 CURVE SMOOTH",
"862 450 LINE SMOOTH",
"862 672 OFFCURVE",
"722 820 OFFCURVE",
"512 820 CURVE SMOOTH",
"512 820 LINE",
"500 710 LINE",
"656 710 OFFCURVE",
"752 606 OFFCURVE",
"752 450 CURVE SMOOTH",
"752 346 LINE SMOOTH",
"752 190 OFFCURVE",
"656 86 OFFCURVE",
"512 86 CURVE SMOOTH",
"368 86 OFFCURVE",
"272 190 OFFCURVE",
"272 346 CURVE SMOOTH",
"272 386 LINE",
"162 386 LINE",
"162 346 LINE SMOOTH",
"162 124 OFFCURVE",
"302 -24 OFFCURVE",
"512 -24 CURVE SMOOTH"
);
},
{
closed = 1;
nodes = (
"512 820 LINE",
"322 820 OFFCURVE",
"206 674 OFFCURVE",
"206 452 CURVE SMOOTH",
"206 428 LINE",
"278 428 LINE",
"278 452 LINE SMOOTH",
"278 608 OFFCURVE",
"362 710 OFFCURVE",
"500 710 CURVE"
);
}
);
width = 1200;
}
);
note = five;
},
{
glyphname = six.tf;
lastChange = "2019-11-13 16:16:32 +0000";
layers = (
{
layerId = "60B18B06-8123-4D0C-85E3-2DE7B5C03586";
paths = (
{
closed = 1;
nodes = (
"714 -32 OFFCURVE",
"860 116 OFFCURVE",
"860 338 CURVE SMOOTH",
"860 618 LINE SMOOTH",
"860 840 OFFCURVE",
"712 988 OFFCURVE",
"513 988 CURVE SMOOTH",
"430 988 OFFCURVE",
"374 962 OFFCURVE",
"336 906 CURVE",
"388 836 LINE",
"388 1162 LINE SMOOTH",
"388 1222 OFFCURVE",
"426 1262 OFFCURVE",
"488 1262 CURVE SMOOTH",
"552 1262 OFFCURVE",
"590 1222 OFFCURVE",
"590 1162 CURVE SMOOTH",
"590 1082 LINE",
"860 1082 LINE",
"860 1162 LINE SMOOTH",
"860 1384 OFFCURVE",
"714 1532 OFFCURVE",
"488 1532 CURVE SMOOTH",
"264 1532 OFFCURVE",
"118 1384 OFFCURVE",
"118 1162 CURVE SMOOTH",
"118 338 LINE SMOOTH",
"118 116 OFFCURVE",
"264 -32 OFFCURVE",
"488 -32 CURVE SMOOTH"
);
},
{
closed = 1;
nodes = (
"426 238 OFFCURVE",
"388 278 OFFCURVE",
"388 338 CURVE SMOOTH",
"388 618 LINE SMOOTH",
"388 678 OFFCURVE",
"426 718 OFFCURVE",
"488 718 CURVE SMOOTH",
"552 718 OFFCURVE",
"590 678 OFFCURVE",
"590 618 CURVE SMOOTH",
"590 338 LINE SMOOTH",
"590 278 OFFCURVE",
"552 238 OFFCURVE",
"488 238 CURVE SMOOTH"
);
}
);
width = 960;
},
{
hints = (
{
horizontal = 1;
origin = "{0, 30}";
target = "{1, 13}";
type = Stem;
},
{
horizontal = 1;
origin = "{1, 6}";
target = "{0, 6}";
type = Stem;
},
{
horizontal = 1;
origin = "{0, 23}";
target = "{0, 14}";
type = Stem;
}
);
layerId = "DDDB0B36-051A-43AE-9F30-611505482296";
paths = (
{
closed = 1;
nodes = (
"694 -32 OFFCURVE",
"832 116 OFFCURVE",
"832 338 CURVE SMOOTH",
"832 636 LINE SMOOTH",
"832 858 OFFCURVE",
"693 1006 OFFCURVE",
"494 1006 CURVE SMOOTH",
"377 1006 OFFCURVE",
"289 955 OFFCURVE",
"238 862 CURVE",
"256 840 LINE",
"256 1162 LINE SMOOTH",
"256 1318 OFFCURVE",
"350 1422 OFFCURVE",
"490 1422 CURVE SMOOTH",
"628 1422 OFFCURVE",
"722 1318 OFFCURVE",
"722 1162 CURVE SMOOTH",
"722 1122 LINE",
"832 1122 LINE",
"832 1162 LINE SMOOTH",
"832 1384 OFFCURVE",
"694 1532 OFFCURVE",
"490 1532 CURVE SMOOTH",
"284 1532 OFFCURVE",
"146 1384 OFFCURVE",
"146 1162 CURVE SMOOTH",
"146 338 LINE SMOOTH",
"146 116 OFFCURVE",
"284 -32 OFFCURVE",
"490 -32 CURVE SMOOTH"
);
},
{
closed = 1;
nodes = (
"350 78 OFFCURVE",
"256 182 OFFCURVE",
"256 338 CURVE SMOOTH",
"256 638 LINE SMOOTH",
"256 794 OFFCURVE",
"342 896 OFFCURVE",
"483 896 CURVE SMOOTH",
"626 896 OFFCURVE",
"722 792 OFFCURVE",
"722 636 CURVE SMOOTH",
"722 338 LINE SMOOTH",
"722 182 OFFCURVE",
"628 78 OFFCURVE",
"490 78 CURVE SMOOTH"
);
}
);
width = 960;
}
);
note = six;
},
{
glyphname = seven.tf;
lastChange = "2019-11-13 16:16:32 +0000";
layers = (
{
layerId = "60B18B06-8123-4D0C-85E3-2DE7B5C03586";
paths = (
{
closed = 1;
nodes = (
"460 0 LINE",
"888 1248 LINE",
"888 1500 LINE",
"54 1500 LINE",
"54 1230 LINE",
"740 1230 LINE",
"658 1344 LINE",
"178 0 LINE"
);
}
);
width = 960;
},
{
hints = (
{
horizontal = 1;
origin = "{0, 7}";
target = up;
type = BottomGhost;
},
{
horizontal = 1;
origin = "{0, 3}";
target = "{0, 4}";
type = Stem;
}
);
layerId = "DDDB0B36-051A-43AE-9F30-611505482296";
paths = (
{
closed = 1;
nodes = (
"416 0 LINE",
"846 1408 LINE",
"846 1500 LINE",
"92 1500 LINE",
"92 1390 LINE",
"768 1390 LINE",
"732 1438 LINE",
"296 0 LINE"
);
}
);
width = 960;
}
);
note = seven;
},
{
glyphname = eight.tf;
lastChange = "2019-11-13 16:16:32 +0000";
layers = (
{
layerId = "60B18B06-8123-4D0C-85E3-2DE7B5C03586";
paths = (
{
closed = 1;
nodes = (
"706 -32 OFFCURVE",
"850 116 OFFCURVE",
"850 338 CURVE SMOOTH",
"850 532 LINE SMOOTH",
"850 656 OFFCURVE",
"804 756 OFFCURVE",
"728 822 CURVE",
"728 716 LINE",
"804 778 OFFCURVE",
"850 878 OFFCURVE",
"850 1002 CURVE SMOOTH",
"850 1162 LINE SMOOTH",
"850 1384 OFFCURVE",
"706 1532 OFFCURVE",
"480 1532 CURVE SMOOTH",
"254 1532 OFFCURVE",
"110 1384 OFFCURVE",
"110 1162 CURVE SMOOTH",
"110 1002 LINE SMOOTH",
"110 878 OFFCURVE",
"156 778 OFFCURVE",
"232 716 CURVE",
"232 822 LINE",
"156 756 OFFCURVE",
"110 656 OFFCURVE",
"110 532 CURVE SMOOTH",
"110 338 LINE SMOOTH",
"110 116 OFFCURVE",
"254 -32 OFFCURVE",
"480 -32 CURVE SMOOTH"
);
},
{
closed = 1;
nodes = (
"416 238 OFFCURVE",
"380 278 OFFCURVE",
"380 338 CURVE SMOOTH",
"380 532 LINE SMOOTH",
"380 592 OFFCURVE",
"416 632 OFFCURVE",
"480 632 CURVE SMOOTH",
"544 632 OFFCURVE",
"580 592 OFFCURVE",
"580 532 CURVE SMOOTH",
"580 338 LINE SMOOTH",
"580 278 OFFCURVE",
"544 238 OFFCURVE",
"480 238 CURVE SMOOTH"
);
},
{
closed = 1;
nodes = (
"416 902 OFFCURVE",
"380 942 OFFCURVE",
"380 1002 CURVE SMOOTH",
"380 1162 LINE SMOOTH",
"380 1222 OFFCURVE",
"416 1262 OFFCURVE",
"480 1262 CURVE SMOOTH",
"544 1262 OFFCURVE",
"580 1222 OFFCURVE",
"580 1162 CURVE SMOOTH",
"580 1002 LINE SMOOTH",
"580 942 OFFCURVE",
"544 902 OFFCURVE",
"480 902 CURVE SMOOTH"
);
}
);
width = 960;
},
{
hints = (
{
horizontal = 1;
origin = "{0, 29}";
target = "{1, 13}";
type = Stem;
},
{
horizontal = 1;
origin = "{1, 6}";
target = "{2, 13}";
type = Stem;
},
{
horizontal = 1;
origin = "{0, 14}";
target = "{2, 6}";
type = Stem;
}
);
layerId = "DDDB0B36-051A-43AE-9F30-611505482296";
paths = (
{
closed = 1;
nodes = (
"686 -32 OFFCURVE",
"826 116 OFFCURVE",
"826 338 CURVE SMOOTH",
"826 450 LINE SMOOTH",
"826 600 OFFCURVE",
"764 720 OFFCURVE",
"650 782 CURVE",
"648 750 LINE",
"754 804 OFFCURVE",
"826 918 OFFCURVE",
"826 1080 CURVE SMOOTH",
"826 1162 LINE SMOOTH",
"826 1384 OFFCURVE",
"686 1532 OFFCURVE",
"480 1532 CURVE SMOOTH",
"274 1532 OFFCURVE",
"134 1384 OFFCURVE",
"134 1162 CURVE SMOOTH",
"134 1080 LINE SMOOTH",
"134 918 OFFCURVE",
"206 804 OFFCURVE",
"312 750 CURVE",
"310 782 LINE",
"200 722 OFFCURVE",
"134 606 OFFCURVE",
"134 450 CURVE SMOOTH",
"134 338 LINE SMOOTH",
"134 116 OFFCURVE",
"274 -32 OFFCURVE",
"480 -32 CURVE SMOOTH"
);
},
{
closed = 1;
nodes = (
"340 78 OFFCURVE",
"244 182 OFFCURVE",
"244 338 CURVE SMOOTH",
"244 450 LINE SMOOTH",
"244 606 OFFCURVE",
"340 710 OFFCURVE",
"480 710 CURVE SMOOTH",
"620 710 OFFCURVE",
"716 606 OFFCURVE",
"716 450 CURVE SMOOTH",
"716 338 LINE SMOOTH",
"716 182 OFFCURVE",
"620 78 OFFCURVE",
"480 78 CURVE SMOOTH"
);
},
{
closed = 1;
nodes = (
"340 820 OFFCURVE",
"244 924 OFFCURVE",
"244 1080 CURVE SMOOTH",
"244 1162 LINE SMOOTH",
"244 1318 OFFCURVE",
"340 1422 OFFCURVE",
"480 1422 CURVE SMOOTH",
"620 1422 OFFCURVE",
"716 1318 OFFCURVE",
"716 1162 CURVE SMOOTH",
"716 1080 LINE SMOOTH",
"716 924 OFFCURVE",
"620 820 OFFCURVE",
"480 820 CURVE SMOOTH"
);
}
);
width = 960;
}
);
note = eight;
},
{
glyphname = nine.tf;
lastChange = "2019-11-13 16:16:32 +0000";
layers = (
{
layerId = "60B18B06-8123-4D0C-85E3-2DE7B5C03586";
paths = (
{
closed = 1;
nodes = (
"698 -32 OFFCURVE",
"842 116 OFFCURVE",
"842 338 CURVE SMOOTH",
"842 1162 LINE SMOOTH",
"842 1384 OFFCURVE",
"698 1532 OFFCURVE",
"472 1532 CURVE SMOOTH",
"246 1532 OFFCURVE",
"102 1384 OFFCURVE",
"102 1162 CURVE SMOOTH",
"102 882 LINE SMOOTH",
"102 660 OFFCURVE",
"248 512 OFFCURVE",
"448 512 CURVE SMOOTH",
"532 512 OFFCURVE",
"586 538 OFFCURVE",
"624 594 CURVE",
"572 664 LINE",
"572 338 LINE SMOOTH",
"572 278 OFFCURVE",
"536 238 OFFCURVE",
"472 238 CURVE SMOOTH",
"408 238 OFFCURVE",
"372 278 OFFCURVE",
"372 338 CURVE SMOOTH",
"372 418 LINE",
"102 418 LINE",
"102 338 LINE SMOOTH",
"102 116 OFFCURVE",
"246 -32 OFFCURVE",
"472 -32 CURVE SMOOTH"
);
},
{
closed = 1;
nodes = (
"408 782 OFFCURVE",
"372 822 OFFCURVE",
"372 882 CURVE SMOOTH",
"372 1162 LINE SMOOTH",
"372 1222 OFFCURVE",
"408 1262 OFFCURVE",
"472 1262 CURVE SMOOTH",
"536 1262 OFFCURVE",
"572 1222 OFFCURVE",
"572 1162 CURVE SMOOTH",
"572 882 LINE SMOOTH",
"572 822 OFFCURVE",
"536 782 OFFCURVE",
"472 782 CURVE SMOOTH"
);
}
);
width = 960;
},
{
hints = (
{
horizontal = 1;
origin = "{0, 30}";
target = "{0, 21}";
type = Stem;
},
{
horizontal = 1;
origin = "{0, 13}";
target = "{1, 13}";
type = Stem;
},
{
horizontal = 1;
origin = "{0, 6}";
target = "{1, 6}";
type = Stem;
}
);
layerId = "DDDB0B36-051A-43AE-9F30-611505482296";
paths = (
{
closed = 1;
nodes = (
"676 -32 OFFCURVE",
"814 116 OFFCURVE",
"814 338 CURVE SMOOTH",
"814 1162 LINE SMOOTH",
"814 1384 OFFCURVE",
"676 1532 OFFCURVE",
"472 1532 CURVE SMOOTH",
"266 1532 OFFCURVE",
"128 1384 OFFCURVE",
"128 1162 CURVE SMOOTH",
"128 864 LINE SMOOTH",
"128 642 OFFCURVE",
"268 494 OFFCURVE",
"466 494 CURVE SMOOTH",
"584 494 OFFCURVE",
"672 547 OFFCURVE",
"722 638 CURVE",
"704 660 LINE",
"704 338 LINE SMOOTH",
"704 182 OFFCURVE",
"610 78 OFFCURVE",
"472 78 CURVE SMOOTH",
"332 78 OFFCURVE",
"238 182 OFFCURVE",
"238 338 CURVE SMOOTH",
"238 378 LINE",
"128 378 LINE",
"128 338 LINE SMOOTH",
"128 116 OFFCURVE",
"266 -32 OFFCURVE",
"472 -32 CURVE SMOOTH"
);
},
{
closed = 1;
nodes = (
"334 604 OFFCURVE",
"238 708 OFFCURVE",
"238 864 CURVE SMOOTH",
"238 1162 LINE SMOOTH",
"238 1318 OFFCURVE",
"332 1422 OFFCURVE",
"472 1422 CURVE SMOOTH",
"610 1422 OFFCURVE",
"704 1318 OFFCURVE",
"704 1162 CURVE SMOOTH",
"704 862 LINE SMOOTH",
"704 706 OFFCURVE",
"618 604 OFFCURVE",
"477 604 CURVE SMOOTH"
);
}
);
width = 960;
}
);
note = nine;
},
{
glyphname = twoinferior;
lastChange = "2019-11-13 16:16:32 +0000";
layers = (
{
components = (
{
name = two.dnom;
transform = "{1, 0, 0, 1, 0, -60}";
}
);
layerId = "60B18B06-8123-4D0C-85E3-2DE7B5C03586";
width = 602;
},
{
associatedMasterId = "60B18B06-8123-4D0C-85E3-2DE7B5C03586";
layerId = "F92B29A1-039B-46AC-99A0-1FE44ADB51CB";
name = "Apr 25 18, 17:35";
paths = (
{
closed = 1;
nodes = (
"300 1164 LINE SMOOTH",
"300 1242 OFFCURVE",
"372 1310 OFFCURVE",
"452 1310 CURVE SMOOTH",
"530 1310 OFFCURVE",
"602 1246 OFFCURVE",
"604 1164 CURVE SMOOTH",
"608 1000 LINE SMOOTH",
"618 644 OFFCURVE",
"82 588 OFFCURVE",
"82 142 CURVE SMOOTH",
"82 0 LINE",
"828 0 LINE",
"828 190 LINE",
"284 190 LINE",
"284 568 OFFCURVE",
"798 550 OFFCURVE",
"798 1006 CURVE",
"796 1164 LINE SMOOTH",
"794 1344 OFFCURVE",
"640 1500 OFFCURVE",
"452 1500 CURVE SMOOTH",
"268 1500 OFFCURVE",
"108 1352 OFFCURVE",
"108 1164 CURVE SMOOTH",
"108 1040 LINE",
"300 1040 LINE"
);
}
);
width = 912;
},
{
components = (
{
name = two.dnom;
transform = "{1, 0, 0, 1, 0, -60}";
}
);
layerId = "DDDB0B36-051A-43AE-9F30-611505482296";
width = 544;
}
);
note = two;
unicode = 2082;
},
{
glyphname = fiveinferior;
lastChange = "2019-11-13 16:16:32 +0000";
layers = (
{
components = (
{
name = five.dnom;
transform = "{1, 0, 0, 1, 0, -60}";
}
);
layerId = "60B18B06-8123-4D0C-85E3-2DE7B5C03586";
width = 630;
},
{
components = (
{
name = five.dnom;
transform = "{1, 0, 0, 1, 0, -60}";
}
);
layerId = "DDDB0B36-051A-43AE-9F30-611505482296";
width = 608;
},
{
associatedMasterId = "DDDB0B36-051A-43AE-9F30-611505482296";
layerId = "2F00CE1A-B26B-4236-88BB-68A23E01396B";
name = "Apr 26 18, 16:09";
paths = (
{
closed = 1;
nodes = (
"722 -24 OFFCURVE",
"862 124 OFFCURVE",
"862 346 CURVE SMOOTH",
"862 450 LINE SMOOTH",
"862 672 OFFCURVE",
"722 820 OFFCURVE",
"512 820 CURVE SMOOTH",
"512 820 LINE",
"500 710 LINE",
"656 710 OFFCURVE",
"752 606 OFFCURVE",
"752 450 CURVE SMOOTH",
"752 346 LINE SMOOTH",
"752 190 OFFCURVE",
"656 86 OFFCURVE",
"512 86 CURVE SMOOTH",
"368 86 OFFCURVE",
"272 190 OFFCURVE",
"272 346 CURVE SMOOTH",
"272 386 LINE",
"162 386 LINE",
"162 346 LINE SMOOTH",
"162 124 OFFCURVE",
"302 -24 OFFCURVE",
"512 -24 CURVE SMOOTH"
);
},
{
closed = 1;
nodes = (
"512 820 LINE",
"322 820 OFFCURVE",
"206 674 OFFCURVE",
"206 452 CURVE SMOOTH",
"206 428 LINE",
"278 428 LINE",
"278 452 LINE SMOOTH",
"278 608 OFFCURVE",
"362 710 OFFCURVE",
"500 710 CURVE"
);
}
);
width = 1200;
}
);
note = five;
unicode = 2085;
},
{
glyphname = zero.dnom;
lastChange = "2019-11-13 16:16:32 +0000";
layers = (
{
layerId = "60B18B06-8123-4D0C-85E3-2DE7B5C03586";
paths = (
{
closed = 1;
nodes = (
"460 -20 OFFCURVE",
"548 70 OFFCURVE",
"548 202 CURVE SMOOTH",
"548 698 LINE SMOOTH",
"548 830 OFFCURVE",
"460 920 OFFCURVE",
"326 920 CURVE SMOOTH",
"190 920 OFFCURVE",
"102 830 OFFCURVE",
"102 698 CURVE SMOOTH",
"102 202 LINE SMOOTH",
"102 70 OFFCURVE",
"190 -20 OFFCURVE",
"326 -20 CURVE SMOOTH"
);
},
{
closed = 1;
nodes = (
"292 150 OFFCURVE",
"272 172 OFFCURVE",
"272 202 CURVE SMOOTH",
"272 698 LINE SMOOTH",
"272 728 OFFCURVE",
"292 750 OFFCURVE",
"326 750 CURVE SMOOTH",
"358 750 OFFCURVE",
"378 728 OFFCURVE",
"378 698 CURVE SMOOTH",
"378 202 LINE SMOOTH",
"378 172 OFFCURVE",
"358 150 OFFCURVE",
"326 150 CURVE SMOOTH"
);
},
{
closed = 1;
nodes = (
"198 150 LINE",
"290 150 LINE",
"454 750 LINE",
"360 750 LINE"
);
}
);
width = 650;
},
{
hints = (
{
horizontal = 1;
origin = "{0, 13}";
target = "{2, 0}";
type = Stem;
},
{
horizontal = 1;
origin = "{1, 6}";
target = "{0, 6}";
type = Stem;
}
);
layerId = "DDDB0B36-051A-43AE-9F30-611505482296";
paths = (
{
closed = 1;
nodes = (
"442 -20 OFFCURVE",
"528 70 OFFCURVE",
"528 202 CURVE SMOOTH",
"528 698 LINE SMOOTH",
"528 830 OFFCURVE",
"442 920 OFFCURVE",
"316 920 CURVE SMOOTH",
"188 920 OFFCURVE",
"102 830 OFFCURVE",
"102 698 CURVE SMOOTH",
"102 202 LINE SMOOTH",
"102 70 OFFCURVE",
"188 -20 OFFCURVE",
"316 -20 CURVE SMOOTH"
);
},
{
closed = 1;
nodes = (
"242 70 OFFCURVE",
"192 124 OFFCURVE",
"192 202 CURVE SMOOTH",
"192 698 LINE SMOOTH",
"192 776 OFFCURVE",
"242 830 OFFCURVE",
"316 830 CURVE SMOOTH",
"388 830 OFFCURVE",
"438 776 OFFCURVE",
"438 698 CURVE SMOOTH",
"438 202 LINE SMOOTH",
"438 124 OFFCURVE",
"388 70 OFFCURVE",
"316 70 CURVE SMOOTH"
);
},
{
closed = 1;
nodes = (
"174 70 LINE",
"240 70 LINE",
"458 830 LINE",
"390 830 LINE"
);
}
);
width = 630;
}
);
note = zero;
},
{
glyphname = one.dnom;
lastChange = "2019-11-13 16:16:32 +0000";
layers = (
{
layerId = "60B18B06-8123-4D0C-85E3-2DE7B5C03586";
paths = (
{
closed = 1;
nodes = (
"336 0 LINE",
"336 900 LINE",
"166 900 LINE",
"166 886 LINE SMOOTH",
"166 830 OFFCURVE",
"128 796 OFFCURVE",
"66 796 CURVE SMOOTH",
"24 796 LINE",
"24 626 LINE",
"166 626 LINE",
"166 0 LINE"
);
}
);
width = 456;
},
{
hints = (
{
horizontal = 1;
origin = "{0, 10}";
target = up;
type = BottomGhost;
},
{
horizontal = 1;
origin = "{0, 8}";
target = "{0, 7}";
type = Stem;
}
);
layerId = "DDDB0B36-051A-43AE-9F30-611505482296";
paths = (
{
closed = 1;
nodes = (
"236 0 LINE",
"236 900 LINE",
"146 900 LINE",
"146 886 LINE SMOOTH",
"146 830 OFFCURVE",
"108 796 OFFCURVE",
"46 796 CURVE SMOOTH",
"24 796 LINE",
"24 706 LINE",
"146 706 LINE",
"146 0 LINE"
);
}
);
width = 356;
}
);
note = one;
},
{
glyphname = two.dnom;
lastChange = "2019-11-13 16:16:32 +0000";
layers = (
{
layerId = "60B18B06-8123-4D0C-85E3-2DE7B5C03586";
paths = (
{
closed = 1;
nodes = (
"520 0 LINE",
"520 170 LINE",
"254 170 LINE",
"254 188 LINE SMOOTH",
"254 352 OFFCURVE",
"520 348 OFFCURVE",
"520 574 CURVE SMOOTH",
"520 698 LINE SMOOTH",
"520 830 OFFCURVE",
"432 920 OFFCURVE",
"296 920 CURVE SMOOTH",
"162 920 OFFCURVE",
"74 830 OFFCURVE",
"74 698 CURVE SMOOTH",
"74 648 LINE",
"244 648 LINE",
"244 698 LINE SMOOTH",
"244 728 OFFCURVE",
"264 750 OFFCURVE",
"296 750 CURVE SMOOTH",
"330 750 OFFCURVE",
"350 728 OFFCURVE",
"350 698 CURVE SMOOTH",
"350 574 LINE SMOOTH",
"350 438 OFFCURVE",
"74 448 OFFCURVE",
"74 158 CURVE SMOOTH",
"74 0 LINE"
);
}
);
width = 602;
},
{
associatedMasterId = "60B18B06-8123-4D0C-85E3-2DE7B5C03586";
layerId = "F92B29A1-039B-46AC-99A0-1FE44ADB51CB";
name = "Apr 25 18, 17:35";
paths = (
{
closed = 1;
nodes = (
"300 1164 LINE SMOOTH",
"300 1242 OFFCURVE",
"372 1310 OFFCURVE",
"452 1310 CURVE SMOOTH",
"530 1310 OFFCURVE",
"602 1246 OFFCURVE",
"604 1164 CURVE SMOOTH",
"608 1000 LINE SMOOTH",
"618 644 OFFCURVE",
"82 588 OFFCURVE",
"82 142 CURVE SMOOTH",
"82 0 LINE",
"828 0 LINE",
"828 190 LINE",
"284 190 LINE",
"284 568 OFFCURVE",
"798 550 OFFCURVE",
"798 1006 CURVE",
"796 1164 LINE SMOOTH",
"794 1344 OFFCURVE",
"640 1500 OFFCURVE",
"452 1500 CURVE SMOOTH",
"268 1500 OFFCURVE",
"108 1352 OFFCURVE",
"108 1164 CURVE SMOOTH",
"108 1040 LINE",
"300 1040 LINE"
);
}
);
width = 912;
},
{
hints = (
{
horizontal = 1;
origin = "{0, 27}";
target = "{0, 2}";
type = Stem;
},
{
horizontal = 1;
origin = "{0, 19}";
target = "{0, 10}";
type = Stem;
}
);
layerId = "DDDB0B36-051A-43AE-9F30-611505482296";
paths = (
{
closed = 1;
nodes = (
"482 0 LINE",
"482 90 LINE",
"150 90 LINE",
"150 100 LINE SMOOTH",
"150 290 OFFCURVE",
"482 402 OFFCURVE",
"482 614 CURVE SMOOTH",
"482 698 LINE SMOOTH",
"482 830 OFFCURVE",
"396 920 OFFCURVE",
"268 920 CURVE SMOOTH",
"142 920 OFFCURVE",
"56 830 OFFCURVE",
"56 698 CURVE SMOOTH",
"56 668 LINE",
"146 668 LINE",
"146 698 LINE SMOOTH",
"146 776 OFFCURVE",
"196 830 OFFCURVE",
"268 830 CURVE SMOOTH",
"342 830 OFFCURVE",
"392 776 OFFCURVE",
"392 698 CURVE SMOOTH",
"392 614 LINE SMOOTH",
"392 434 OFFCURVE",
"56 344 OFFCURVE",
"56 76 CURVE SMOOTH",
"56 0 LINE"
);
}
);
width = 544;
}
);
note = two;
},
{
glyphname = three.dnom;
lastChange = "2019-11-13 16:16:32 +0000";
layers = (
{
layerId = "60B18B06-8123-4D0C-85E3-2DE7B5C03586";
paths = (
{
closed = 1;
nodes = (
"422 -20 OFFCURVE",
"510 70 OFFCURVE",
"510 202 CURVE SMOOTH",
"510 328 LINE SMOOTH",
"510 380 OFFCURVE",
"496 428 OFFCURVE",
"470 464 CURVE",
"496 500 OFFCURVE",
"510 550 OFFCURVE",
"510 602 CURVE SMOOTH",
"510 698 LINE SMOOTH",
"510 830 OFFCURVE",
"422 920 OFFCURVE",
"288 920 CURVE SMOOTH",
"152 920 OFFCURVE",
"64 830 OFFCURVE",
"64 698 CURVE SMOOTH",
"64 648 LINE",
"234 648 LINE",
"234 698 LINE SMOOTH",
"234 728 OFFCURVE",
"254 750 OFFCURVE",
"288 750 CURVE SMOOTH",
"320 750 OFFCURVE",
"340 728 OFFCURVE",
"340 698 CURVE SMOOTH",
"340 602 LINE SMOOTH",
"340 570 OFFCURVE",
"320 550 OFFCURVE",
"288 550 CURVE SMOOTH",
"190 550 LINE",
"190 380 LINE",
"288 380 LINE SMOOTH",
"320 380 OFFCURVE",
"340 358 OFFCURVE",
"340 328 CURVE SMOOTH",
"340 202 LINE SMOOTH",
"340 172 OFFCURVE",
"320 150 OFFCURVE",
"288 150 CURVE SMOOTH",
"254 150 OFFCURVE",
"234 172 OFFCURVE",
"234 202 CURVE SMOOTH",
"234 252 LINE",
"64 252 LINE",
"64 202 LINE SMOOTH",
"64 70 OFFCURVE",
"152 -20 OFFCURVE",
"288 -20 CURVE SMOOTH"
);
}
);
width = 608;
},
{
hints = (
{
horizontal = 1;
origin = "{0, 48}";
target = "{0, 39}";
type = Stem;
},
{
horizontal = 1;
origin = "{0, 31}";
target = "{0, 30}";
type = Stem;
},
{
horizontal = 1;
origin = "{0, 22}";
target = "{0, 13}";
type = Stem;
}
);
layerId = "DDDB0B36-051A-43AE-9F30-611505482296";
paths = (
{
closed = 1;
nodes = (
"396 -20 OFFCURVE",
"482 70 OFFCURVE",
"482 202 CURVE SMOOTH",
"482 284 LINE SMOOTH",
"482 368 OFFCURVE",
"448 426 OFFCURVE",
"402 460 CURVE",
"456 500 OFFCURVE",
"482 564 OFFCURVE",
"482 638 CURVE SMOOTH",
"482 698 LINE SMOOTH",
"482 830 OFFCURVE",
"396 920 OFFCURVE",
"270 920 CURVE SMOOTH",
"142 920 OFFCURVE",
"56 830 OFFCURVE",
"56 698 CURVE SMOOTH",
"56 668 LINE",
"146 668 LINE",
"146 698 LINE SMOOTH",
"146 776 OFFCURVE",
"196 830 OFFCURVE",
"270 830 CURVE SMOOTH",
"342 830 OFFCURVE",
"392 776 OFFCURVE",
"392 698 CURVE SMOOTH",
"392 638 LINE SMOOTH",
"392 558 OFFCURVE",
"342 506 OFFCURVE",
"270 506 CURVE SMOOTH",
"198 506 LINE",
"198 416 LINE",
"270 416 LINE SMOOTH",
"342 416 OFFCURVE",
"392 362 OFFCURVE",
"392 284 CURVE SMOOTH",
"392 202 LINE SMOOTH",
"392 124 OFFCURVE",
"342 70 OFFCURVE",
"270 70 CURVE SMOOTH",
"196 70 OFFCURVE",
"146 124 OFFCURVE",
"146 202 CURVE SMOOTH",
"146 232 LINE",
"56 232 LINE",
"56 202 LINE SMOOTH",
"56 70 OFFCURVE",
"142 -20 OFFCURVE",
"270 -20 CURVE SMOOTH"
);
}
);
width = 576;
}
);
note = three;
},
{
glyphname = four.dnom;
lastChange = "2019-11-13 16:16:32 +0000";
layers = (
{
layerId = "60B18B06-8123-4D0C-85E3-2DE7B5C03586";
paths = (
{
closed = 1;
nodes = (
"490 0 LINE",
"490 148 LINE",
"556 148 LINE",
"556 320 LINE",
"490 320 LINE",
"490 900 LINE",
"342 900 LINE",
"26 294 LINE",
"26 148 LINE",
"320 148 LINE",
"320 0 LINE"
);
},
{
closed = 1;
nodes = (
"320 560 LINE",
"320 320 LINE",
"204 320 LINE"
);
}
);
width = 626;
},
{
hints = (
{
horizontal = 1;
origin = "{0, 10}";
target = "{1, 2}";
type = Stem;
},
{
horizontal = 1;
origin = "{1, 2}";
target = "{0, 8}";
type = Stem;
}
);
layerId = "DDDB0B36-051A-43AE-9F30-611505482296";
paths = (
{
closed = 1;
nodes = (
"440 0 LINE",
"440 196 LINE",
"524 196 LINE",
"524 286 LINE",
"440 286 LINE",
"440 900 LINE",
"350 900 LINE",
"14 280 LINE",
"14 196 LINE",
"350 196 LINE",
"350 0 LINE"
);
},
{
closed = 1;
nodes = (
"350 740 LINE",
"350 286 LINE",
"108 286 LINE"
);
}
);
width = 574;
}
);
note = four;
},
{
glyphname = five.dnom;
lastChange = "2019-11-13 16:16:32 +0000";
layers = (
{
layerId = "60B18B06-8123-4D0C-85E3-2DE7B5C03586";
paths = (
{
closed = 1;
nodes = (
"464 -20 OFFCURVE",
"552 70 OFFCURVE",
"552 202 CURVE SMOOTH",
"552 370 LINE SMOOTH",
"552 502 OFFCURVE",
"465 592 OFFCURVE",
"344 592 CURVE SMOOTH",
"318 592 OFFCURVE",
"294 588 OFFCURVE",
"276 578 CURVE",
"276 730 LINE",
"514 730 LINE",
"514 900 LINE",
"106 900 LINE",
"106 362 LINE",
"276 362 LINE",
"276 370 LINE SMOOTH",
"276 400 OFFCURVE",
"294 422 OFFCURVE",
"330 422 CURVE SMOOTH",
"364 422 OFFCURVE",
"382 400 OFFCURVE",
"382 370 CURVE SMOOTH",
"382 202 LINE SMOOTH",
"382 172 OFFCURVE",
"362 150 OFFCURVE",
"330 150 CURVE SMOOTH",
"296 150 OFFCURVE",
"276 172 OFFCURVE",
"276 202 CURVE SMOOTH",
"276 252 LINE",
"106 252 LINE",
"106 202 LINE SMOOTH",
"106 70 OFFCURVE",
"194 -20 OFFCURVE",
"330 -20 CURVE SMOOTH"
);
}
);
width = 630;
},
{
hints = (
{
horizontal = 1;
origin = "{0, 35}";
target = "{0, 26}";
type = Stem;
},
{
horizontal = 1;
origin = "{0, 19}";
target = "{0, 6}";
type = Stem;
},
{
horizontal = 1;
origin = "{0, 10}";
target = "{0, 13}";
type = Stem;
}
);
layerId = "DDDB0B36-051A-43AE-9F30-611505482296";
paths = (
{
closed = 1;
nodes = (
"444 -20 OFFCURVE",
"530 70 OFFCURVE",
"530 202 CURVE SMOOTH",
"530 378 LINE SMOOTH",
"530 512 OFFCURVE",
"443 600 OFFCURVE",
"323 600 CURVE SMOOTH",
"269 600 OFFCURVE",
"224 582 OFFCURVE",
"194 544 CURVE",
"194 810 LINE",
"522 810 LINE",
"522 900 LINE",
"104 900 LINE",
"104 366 LINE",
"194 366 LINE",
"194 380 LINE SMOOTH",
"194 458 OFFCURVE",
"239 510 OFFCURVE",
"314 510 CURVE SMOOTH",
"389 510 OFFCURVE",
"440 458 OFFCURVE",
"440 378 CURVE SMOOTH",
"440 202 LINE SMOOTH",
"440 124 OFFCURVE",
"390 70 OFFCURVE",
"318 70 CURVE SMOOTH",
"244 70 OFFCURVE",
"194 124 OFFCURVE",
"194 202 CURVE SMOOTH",
"194 232 LINE",
"104 232 LINE",
"104 202 LINE SMOOTH",
"104 70 OFFCURVE",
"190 -20 OFFCURVE",
"318 -20 CURVE SMOOTH"
);
}
);
width = 608;
},
{
associatedMasterId = "DDDB0B36-051A-43AE-9F30-611505482296";
layerId = "2F00CE1A-B26B-4236-88BB-68A23E01396B";
name = "Apr 26 18, 16:09";
paths = (
{
closed = 1;
nodes = (
"722 -24 OFFCURVE",
"862 124 OFFCURVE",
"862 346 CURVE SMOOTH",
"862 450 LINE SMOOTH",
"862 672 OFFCURVE",
"722 820 OFFCURVE",
"512 820 CURVE SMOOTH",
"512 820 LINE",
"500 710 LINE",
"656 710 OFFCURVE",
"752 606 OFFCURVE",
"752 450 CURVE SMOOTH",
"752 346 LINE SMOOTH",
"752 190 OFFCURVE",
"656 86 OFFCURVE",
"512 86 CURVE SMOOTH",
"368 86 OFFCURVE",
"272 190 OFFCURVE",
"272 346 CURVE SMOOTH",
"272 386 LINE",
"162 386 LINE",
"162 346 LINE SMOOTH",
"162 124 OFFCURVE",
"302 -24 OFFCURVE",
"512 -24 CURVE SMOOTH"
);
},
{
closed = 1;
nodes = (
"512 820 LINE",
"322 820 OFFCURVE",
"206 674 OFFCURVE",
"206 452 CURVE SMOOTH",
"206 428 LINE",
"278 428 LINE",
"278 452 LINE SMOOTH",
"278 608 OFFCURVE",
"362 710 OFFCURVE",
"500 710 CURVE"
);
}
);
width = 1200;
}
);
note = five;
},
{
glyphname = six.dnom;
lastChange = "2019-11-13 16:16:32 +0000";
layers = (
{
layerId = "60B18B06-8123-4D0C-85E3-2DE7B5C03586";
paths = (
{
closed = 1;
nodes = (
"460 -20 OFFCURVE",
"548 70 OFFCURVE",
"548 202 CURVE SMOOTH",
"548 370 LINE SMOOTH",
"548 502 OFFCURVE",
"461 592 OFFCURVE",
"340 592 CURVE SMOOTH",
"314 592 OFFCURVE",
"290 588 OFFCURVE",
"272 578 CURVE",
"272 698 LINE SMOOTH",
"272 728 OFFCURVE",
"292 750 OFFCURVE",
"326 750 CURVE SMOOTH",
"358 750 OFFCURVE",
"378 728 OFFCURVE",
"378 698 CURVE SMOOTH",
"378 648 LINE",
"548 648 LINE",
"548 698 LINE SMOOTH",
"548 830 OFFCURVE",
"460 920 OFFCURVE",
"326 920 CURVE SMOOTH",
"190 920 OFFCURVE",
"102 830 OFFCURVE",
"102 698 CURVE SMOOTH",
"102 202 LINE SMOOTH",
"102 70 OFFCURVE",
"190 -20 OFFCURVE",
"326 -20 CURVE SMOOTH"
);
},
{
closed = 1;
nodes = (
"292 150 OFFCURVE",
"272 172 OFFCURVE",
"272 202 CURVE SMOOTH",
"272 370 LINE SMOOTH",
"272 400 OFFCURVE",
"290 422 OFFCURVE",
"326 422 CURVE SMOOTH",
"360 422 OFFCURVE",
"378 400 OFFCURVE",
"378 370 CURVE SMOOTH",
"378 202 LINE SMOOTH",
"378 172 OFFCURVE",
"358 150 OFFCURVE",
"326 150 CURVE SMOOTH"
);
}
);
width = 640;
},
{
hints = (
{
horizontal = 1;
origin = "{0, 29}";
target = "{1, 13}";
type = Stem;
},
{
horizontal = 1;
origin = "{1, 6}";
target = "{0, 6}";
type = Stem;
},
{
horizontal = 1;
origin = "{0, 13}";
target = "{0, 22}";
type = Stem;
}
);
layerId = "DDDB0B36-051A-43AE-9F30-611505482296";
paths = (
{
closed = 1;
nodes = (
"442 -20 OFFCURVE",
"528 70 OFFCURVE",
"528 202 CURVE SMOOTH",
"528 378 LINE SMOOTH",
"528 512 OFFCURVE",
"441 600 OFFCURVE",
"321 600 CURVE SMOOTH",
"267 600 OFFCURVE",
"222 582 OFFCURVE",
"192 544 CURVE",
"192 698 LINE SMOOTH",
"192 776 OFFCURVE",
"242 830 OFFCURVE",
"316 830 CURVE SMOOTH",
"388 830 OFFCURVE",
"438 776 OFFCURVE",
"438 698 CURVE SMOOTH",
"438 668 LINE",
"528 668 LINE",
"528 698 LINE SMOOTH",
"528 830 OFFCURVE",
"442 920 OFFCURVE",
"316 920 CURVE SMOOTH",
"188 920 OFFCURVE",
"102 830 OFFCURVE",
"102 698 CURVE SMOOTH",
"102 202 LINE SMOOTH",
"102 70 OFFCURVE",
"188 -20 OFFCURVE",
"316 -20 CURVE SMOOTH"
);
},
{
closed = 1;
nodes = (
"242 70 OFFCURVE",
"192 124 OFFCURVE",
"192 202 CURVE SMOOTH",
"192 380 LINE SMOOTH",
"192 458 OFFCURVE",
"237 510 OFFCURVE",
"312 510 CURVE SMOOTH",
"387 510 OFFCURVE",
"438 458 OFFCURVE",
"438 378 CURVE SMOOTH",
"438 202 LINE SMOOTH",
"438 124 OFFCURVE",
"388 70 OFFCURVE",
"316 70 CURVE SMOOTH"
);
}
);
width = 618;
}
);
note = six;
},
{
glyphname = seven.dnom;
lastChange = "2019-11-13 16:16:32 +0000";
layers = (
{
layerId = "60B18B06-8123-4D0C-85E3-2DE7B5C03586";
paths = (
{
closed = 1;
nodes = (
"250 0 LINE",
"466 740 LINE",
"466 900 LINE",
"26 900 LINE",
"26 730 LINE",
"300 730 LINE",
"74 0 LINE"
);
}
);
width = 502;
},
{
hints = (
{
horizontal = 1;
origin = "{0, 6}";
target = up;
type = BottomGhost;
},
{
horizontal = 1;
origin = "{0, 4}";
target = "{0, 3}";
type = Stem;
}
);
layerId = "DDDB0B36-051A-43AE-9F30-611505482296";
paths = (
{
closed = 1;
nodes = (
"186 0 LINE",
"414 820 LINE",
"414 900 LINE",
"-2 900 LINE",
"-2 810 LINE",
"318 810 LINE",
"90 0 LINE"
);
}
);
width = 438;
}
);
note = seven;
},
{
glyphname = eight.dnom;
lastChange = "2019-11-13 16:16:32 +0000";
layers = (
{
layerId = "60B18B06-8123-4D0C-85E3-2DE7B5C03586";
paths = (
{
closed = 1;
nodes = (
"456 -20 OFFCURVE",
"544 70 OFFCURVE",
"544 202 CURVE SMOOTH",
"544 324 LINE SMOOTH",
"544 376 OFFCURVE",
"530 424 OFFCURVE",
"504 460 CURVE",
"530 496 OFFCURVE",
"544 546 OFFCURVE",
"544 598 CURVE SMOOTH",
"544 698 LINE SMOOTH",
"544 830 OFFCURVE",
"456 920 OFFCURVE",
"322 920 CURVE SMOOTH",
"186 920 OFFCURVE",
"98 830 OFFCURVE",
"98 698 CURVE SMOOTH",
"98 598 LINE SMOOTH",
"98 544 OFFCURVE",
"112 496 OFFCURVE",
"138 460 CURVE",
"112 424 OFFCURVE",
"98 378 OFFCURVE",
"98 324 CURVE SMOOTH",
"98 202 LINE SMOOTH",
"98 70 OFFCURVE",
"186 -20 OFFCURVE",
"322 -20 CURVE SMOOTH"
);
},
{
closed = 1;
nodes = (
"288 150 OFFCURVE",
"268 172 OFFCURVE",
"268 202 CURVE SMOOTH",
"268 324 LINE SMOOTH",
"268 354 OFFCURVE",
"288 376 OFFCURVE",
"322 376 CURVE SMOOTH",
"354 376 OFFCURVE",
"374 354 OFFCURVE",
"374 324 CURVE SMOOTH",
"374 202 LINE SMOOTH",
"374 172 OFFCURVE",
"354 150 OFFCURVE",
"322 150 CURVE SMOOTH"
);
},
{
closed = 1;
nodes = (
"288 546 OFFCURVE",
"268 566 OFFCURVE",
"268 598 CURVE SMOOTH",
"268 698 LINE SMOOTH",
"268 728 OFFCURVE",
"288 750 OFFCURVE",
"322 750 CURVE SMOOTH",
"354 750 OFFCURVE",
"374 728 OFFCURVE",
"374 698 CURVE SMOOTH",
"374 598 LINE SMOOTH",
"374 566 OFFCURVE",
"354 546 OFFCURVE",
"322 546 CURVE SMOOTH"
);
}
);
width = 642;
},
{
hints = (
{
horizontal = 1;
origin = "{0, 27}";
target = "{1, 13}";
type = Stem;
},
{
horizontal = 1;
origin = "{1, 6}";
target = "{2, 13}";
type = Stem;
},
{
horizontal = 1;
origin = "{2, 6}";
target = "{0, 13}";
type = Stem;
}
);
layerId = "DDDB0B36-051A-43AE-9F30-611505482296";
paths = (
{
closed = 1;
nodes = (
"434 -20 OFFCURVE",
"520 70 OFFCURVE",
"520 202 CURVE SMOOTH",
"520 282 LINE SMOOTH",
"520 364 OFFCURVE",
"488 424 OFFCURVE",
"440 460 CURVE",
"492 498 OFFCURVE",
"520 560 OFFCURVE",
"520 636 CURVE SMOOTH",
"520 698 LINE SMOOTH",
"520 830 OFFCURVE",
"434 920 OFFCURVE",
"308 920 CURVE SMOOTH",
"180 920 OFFCURVE",
"94 830 OFFCURVE",
"94 698 CURVE SMOOTH",
"94 636 LINE SMOOTH",
"94 560 OFFCURVE",
"122 498 OFFCURVE",
"174 460 CURVE",
"126 424 OFFCURVE",
"94 364 OFFCURVE",
"94 282 CURVE SMOOTH",
"94 202 LINE SMOOTH",
"94 70 OFFCURVE",
"180 -20 OFFCURVE",
"308 -20 CURVE SMOOTH"
);
},
{
closed = 1;
nodes = (
"234 70 OFFCURVE",
"184 124 OFFCURVE",
"184 202 CURVE SMOOTH",
"184 282 LINE SMOOTH",
"184 362 OFFCURVE",
"234 414 OFFCURVE",
"308 414 CURVE SMOOTH",
"380 414 OFFCURVE",
"430 362 OFFCURVE",
"430 282 CURVE SMOOTH",
"430 202 LINE SMOOTH",
"430 124 OFFCURVE",
"380 70 OFFCURVE",
"308 70 CURVE SMOOTH"
);
},
{
closed = 1;
nodes = (
"235 504 OFFCURVE",
"184 555 OFFCURVE",
"184 636 CURVE SMOOTH",
"184 698 LINE SMOOTH",
"184 776 OFFCURVE",
"234 830 OFFCURVE",
"308 830 CURVE SMOOTH",
"380 830 OFFCURVE",
"430 776 OFFCURVE",
"430 698 CURVE SMOOTH",
"430 636 LINE SMOOTH",
"430 558 OFFCURVE",
"382 504 OFFCURVE",
"307 504 CURVE SMOOTH"
);
}
);
width = 614;
}
);
note = eight;
},
{
glyphname = nine.dnom;
lastChange = "2019-11-13 16:16:32 +0000";
layers = (
{
layerId = "60B18B06-8123-4D0C-85E3-2DE7B5C03586";
paths = (
{
closed = 1;
nodes = (
"450 -20 OFFCURVE",
"538 70 OFFCURVE",
"538 202 CURVE SMOOTH",
"538 698 LINE SMOOTH",
"538 830 OFFCURVE",
"450 920 OFFCURVE",
"316 920 CURVE SMOOTH",
"180 920 OFFCURVE",
"92 830 OFFCURVE",
"92 698 CURVE SMOOTH",
"92 530 LINE SMOOTH",
"92 398 OFFCURVE",
"179 308 OFFCURVE",
"300 308 CURVE SMOOTH",
"326 308 OFFCURVE",
"350 312 OFFCURVE",
"368 322 CURVE",
"368 202 LINE SMOOTH",
"368 172 OFFCURVE",
"348 150 OFFCURVE",
"316 150 CURVE SMOOTH",
"282 150 OFFCURVE",
"262 172 OFFCURVE",
"262 202 CURVE SMOOTH",
"262 252 LINE",
"92 252 LINE",
"92 202 LINE SMOOTH",
"92 70 OFFCURVE",
"180 -20 OFFCURVE",
"316 -20 CURVE SMOOTH"
);
},
{
closed = 1;
nodes = (
"280 478 OFFCURVE",
"262 500 OFFCURVE",
"262 530 CURVE SMOOTH",
"262 698 LINE SMOOTH",
"262 728 OFFCURVE",
"282 750 OFFCURVE",
"316 750 CURVE SMOOTH",
"348 750 OFFCURVE",
"368 728 OFFCURVE",
"368 698 CURVE SMOOTH",
"368 530 LINE SMOOTH",
"368 500 OFFCURVE",
"350 478 OFFCURVE",
"314 478 CURVE SMOOTH"
);
}
);
width = 640;
},
{
hints = (
{
horizontal = 1;
origin = "{0, 29}";
target = "{0, 20}";
type = Stem;
},
{
horizontal = 1;
origin = "{0, 13}";
target = "{1, 13}";
type = Stem;
},
{
horizontal = 1;
origin = "{1, 6}";
target = "{0, 6}";
type = Stem;
}
);
layerId = "DDDB0B36-051A-43AE-9F30-611505482296";
paths = (
{
closed = 1;
nodes = (
"430 -20 OFFCURVE",
"516 70 OFFCURVE",
"516 202 CURVE SMOOTH",
"516 698 LINE SMOOTH",
"516 830 OFFCURVE",
"430 920 OFFCURVE",
"304 920 CURVE SMOOTH",
"176 920 OFFCURVE",
"90 830 OFFCURVE",
"90 698 CURVE SMOOTH",
"90 522 LINE SMOOTH",
"90 388 OFFCURVE",
"177 300 OFFCURVE",
"297 300 CURVE SMOOTH",
"351 300 OFFCURVE",
"396 318 OFFCURVE",
"426 356 CURVE",
"426 202 LINE SMOOTH",
"426 124 OFFCURVE",
"376 70 OFFCURVE",
"304 70 CURVE SMOOTH",
"230 70 OFFCURVE",
"180 124 OFFCURVE",
"180 202 CURVE SMOOTH",
"180 232 LINE",
"90 232 LINE",
"90 202 LINE SMOOTH",
"90 70 OFFCURVE",
"176 -20 OFFCURVE",
"304 -20 CURVE SMOOTH"
);
},
{
closed = 1;
nodes = (
"231 390 OFFCURVE",
"180 442 OFFCURVE",
"180 522 CURVE SMOOTH",
"180 698 LINE SMOOTH",
"180 776 OFFCURVE",
"230 830 OFFCURVE",
"304 830 CURVE SMOOTH",
"376 830 OFFCURVE",
"426 776 OFFCURVE",
"426 698 CURVE SMOOTH",
"426 520 LINE SMOOTH",
"426 442 OFFCURVE",
"381 390 OFFCURVE",
"306 390 CURVE SMOOTH"
);
}
);
width = 618;
}
);
note = nine;
},
{
glyphname = zero.numr;
lastChange = "2019-11-13 16:16:32 +0000";
layers = (
{
layerId = "60B18B06-8123-4D0C-85E3-2DE7B5C03586";
paths = (
{
closed = 1;
nodes = (
"460 580 OFFCURVE",
"548 670 OFFCURVE",
"548 802 CURVE SMOOTH",
"548 1298 LINE SMOOTH",
"548 1430 OFFCURVE",
"460 1520 OFFCURVE",
"326 1520 CURVE SMOOTH",
"190 1520 OFFCURVE",
"102 1430 OFFCURVE",
"102 1298 CURVE SMOOTH",
"102 802 LINE SMOOTH",
"102 670 OFFCURVE",
"190 580 OFFCURVE",
"326 580 CURVE SMOOTH"
);
},
{
closed = 1;
nodes = (
"292 750 OFFCURVE",
"272 772 OFFCURVE",
"272 802 CURVE SMOOTH",
"272 1298 LINE SMOOTH",
"272 1328 OFFCURVE",
"292 1350 OFFCURVE",
"326 1350 CURVE SMOOTH",
"358 1350 OFFCURVE",
"378 1328 OFFCURVE",
"378 1298 CURVE SMOOTH",
"378 802 LINE SMOOTH",
"378 772 OFFCURVE",
"358 750 OFFCURVE",
"326 750 CURVE SMOOTH"
);
},
{
closed = 1;
nodes = (
"198 750 LINE",
"290 750 LINE",
"454 1350 LINE",
"360 1350 LINE"
);
}
);
width = 650;
},
{
hints = (
{
horizontal = 1;
origin = "{0, 13}";
target = "{2, 0}";
type = Stem;
},
{
horizontal = 1;
origin = "{0, 6}";
target = "{1, 6}";
type = Stem;
}
);
layerId = "DDDB0B36-051A-43AE-9F30-611505482296";
paths = (
{
closed = 1;
nodes = (
"442 580 OFFCURVE",
"528 670 OFFCURVE",
"528 802 CURVE SMOOTH",
"528 1298 LINE SMOOTH",
"528 1430 OFFCURVE",
"442 1520 OFFCURVE",
"316 1520 CURVE SMOOTH",
"188 1520 OFFCURVE",
"102 1430 OFFCURVE",
"102 1298 CURVE SMOOTH",
"102 802 LINE SMOOTH",
"102 670 OFFCURVE",
"188 580 OFFCURVE",
"316 580 CURVE SMOOTH"
);
},
{
closed = 1;
nodes = (
"242 670 OFFCURVE",
"192 724 OFFCURVE",
"192 802 CURVE SMOOTH",
"192 1298 LINE SMOOTH",
"192 1376 OFFCURVE",
"242 1430 OFFCURVE",
"316 1430 CURVE SMOOTH",
"388 1430 OFFCURVE",
"438 1376 OFFCURVE",
"438 1298 CURVE SMOOTH",
"438 802 LINE SMOOTH",
"438 724 OFFCURVE",
"388 670 OFFCURVE",
"316 670 CURVE SMOOTH"
);
},
{
closed = 1;
nodes = (
"174 670 LINE",
"240 670 LINE",
"458 1430 LINE",
"390 1430 LINE"
);
}
);
width = 630;
}
);
note = zero;
},
{
glyphname = one.numr;
lastChange = "2019-11-13 16:16:32 +0000";
layers = (
{
layerId = "60B18B06-8123-4D0C-85E3-2DE7B5C03586";
paths = (
{
closed = 1;
nodes = (
"336 600 LINE",
"336 1500 LINE",
"166 1500 LINE",
"166 1486 LINE SMOOTH",
"166 1430 OFFCURVE",
"128 1396 OFFCURVE",
"66 1396 CURVE SMOOTH",
"24 1396 LINE",
"24 1226 LINE",
"166 1226 LINE",
"166 600 LINE"
);
}
);
width = 456;
},
{
hints = (
{
horizontal = 1;
origin = "{0, 2}";
target = "{0, 8}";
type = Stem;
},
{
horizontal = 1;
origin = "{0, 8}";
target = "{0, 7}";
type = Stem;
}
);
layerId = "DDDB0B36-051A-43AE-9F30-611505482296";
paths = (
{
closed = 1;
nodes = (
"236 600 LINE",
"236 1520 LINE",
"146 1520 LINE",
"146 1506 LINE SMOOTH",
"146 1450 OFFCURVE",
"108 1416 OFFCURVE",
"46 1416 CURVE SMOOTH",
"24 1416 LINE",
"24 1326 LINE",
"146 1326 LINE",
"146 600 LINE"
);
}
);
width = 356;
}
);
note = one;
},
{
glyphname = two.numr;
lastChange = "2019-11-13 16:16:32 +0000";
layers = (
{
layerId = "60B18B06-8123-4D0C-85E3-2DE7B5C03586";
paths = (
{
closed = 1;
nodes = (
"520 600 LINE",
"520 770 LINE",
"254 770 LINE",
"254 788 LINE SMOOTH",
"254 952 OFFCURVE",
"520 948 OFFCURVE",
"520 1174 CURVE SMOOTH",
"520 1298 LINE SMOOTH",
"520 1430 OFFCURVE",
"432 1520 OFFCURVE",
"296 1520 CURVE SMOOTH",
"162 1520 OFFCURVE",
"74 1430 OFFCURVE",
"74 1298 CURVE SMOOTH",
"74 1248 LINE",
"244 1248 LINE",
"244 1298 LINE SMOOTH",
"244 1328 OFFCURVE",
"264 1350 OFFCURVE",
"296 1350 CURVE SMOOTH",
"330 1350 OFFCURVE",
"350 1328 OFFCURVE",
"350 1298 CURVE SMOOTH",
"350 1174 LINE SMOOTH",
"350 1038 OFFCURVE",
"74 1048 OFFCURVE",
"74 758 CURVE SMOOTH",
"74 600 LINE"
);
}
);
width = 602;
},
{
associatedMasterId = "60B18B06-8123-4D0C-85E3-2DE7B5C03586";
layerId = "F92B29A1-039B-46AC-99A0-1FE44ADB51CB";
name = "Apr 25 18, 17:35";
paths = (
{
closed = 1;
nodes = (
"300 1164 LINE SMOOTH",
"300 1242 OFFCURVE",
"372 1310 OFFCURVE",
"452 1310 CURVE SMOOTH",
"530 1310 OFFCURVE",
"602 1246 OFFCURVE",
"604 1164 CURVE SMOOTH",
"608 1000 LINE SMOOTH",
"618 644 OFFCURVE",
"82 588 OFFCURVE",
"82 142 CURVE SMOOTH",
"82 0 LINE",
"828 0 LINE",
"828 190 LINE",
"284 190 LINE",
"284 568 OFFCURVE",
"798 550 OFFCURVE",
"798 1006 CURVE",
"796 1164 LINE SMOOTH",
"794 1344 OFFCURVE",
"640 1500 OFFCURVE",
"452 1500 CURVE SMOOTH",
"268 1500 OFFCURVE",
"108 1352 OFFCURVE",
"108 1164 CURVE SMOOTH",
"108 1040 LINE",
"300 1040 LINE"
);
}
);
width = 912;
},
{
hints = (
{
horizontal = 1;
origin = "{0, 27}";
target = "{0, 2}";
type = Stem;
},
{
horizontal = 1;
origin = "{0, 10}";
target = "{0, 19}";
type = Stem;
}
);
layerId = "DDDB0B36-051A-43AE-9F30-611505482296";
paths = (
{
closed = 1;
nodes = (
"482 600 LINE",
"482 690 LINE",
"150 690 LINE",
"150 700 LINE SMOOTH",
"150 890 OFFCURVE",
"482 1002 OFFCURVE",
"482 1214 CURVE SMOOTH",
"482 1298 LINE SMOOTH",
"482 1430 OFFCURVE",
"396 1520 OFFCURVE",
"268 1520 CURVE SMOOTH",
"142 1520 OFFCURVE",
"56 1430 OFFCURVE",
"56 1298 CURVE SMOOTH",
"56 1268 LINE",
"146 1268 LINE",
"146 1298 LINE SMOOTH",
"146 1376 OFFCURVE",
"196 1430 OFFCURVE",
"268 1430 CURVE SMOOTH",
"342 1430 OFFCURVE",
"392 1376 OFFCURVE",
"392 1298 CURVE SMOOTH",
"392 1214 LINE SMOOTH",
"392 1034 OFFCURVE",
"56 944 OFFCURVE",
"56 676 CURVE SMOOTH",
"56 600 LINE"
);
}
);
width = 544;
}
);
note = two;
},
